<?xml version="1.0" encoding="UTF-8"?><svg id="Layer_1" xmlns="http://www.w3.org/2000/svg" viewBox="0 0 135.02 90.54"><defs><style>.cls-1{fill:#231f20;}</style></defs><path class="cls-1" d="m16.42,46.77l14.53-9.44v20.95c0,10.57-5.29,16.61-15.48,16.61S0,68.86,0,58.29V23.93C0,13.36,5.28,7.32,15.48,7.32s15.48,6.04,15.48,16.61v6.42h-9.81v-7.08c0-4.72-2.08-6.51-5.38-6.51s-5.38,1.79-5.38,6.51v35.67c0,4.72,2.08,6.42,5.38,6.42s5.38-1.7,5.38-6.42v-12.17h-4.72Z"/><path class="cls-1" d="m50.12,7.32c10.1,0,15.29,6.04,15.29,16.61v2.08h-9.82v-2.74c0-4.72-1.89-6.51-5.19-6.51s-5.19,1.79-5.19,6.51,2.08,8.4,8.87,14.34c8.68,7.64,11.42,13.12,11.42,20.67,0,10.57-5.29,16.61-15.48,16.61s-15.48-6.04-15.48-16.61v-4.06h9.82v4.72c0,4.72,2.08,6.42,5.38,6.42s5.38-1.7,5.38-6.42-2.08-8.4-8.87-14.35c-8.68-7.64-11.42-13.12-11.42-20.67,0-10.57,5.19-16.61,15.29-16.61Z"/><path class="cls-1" d="m68.4,8.08h16.42c10.38,0,15.48,5.76,15.48,16.33v33.41c0,10.57-5.1,16.33-15.48,16.33h-16.42V8.08Zm10.38,9.44v47.19h5.85c3.3,0,5.29-1.7,5.29-6.42V23.93c0-4.72-1.98-6.42-5.29-6.42h-5.85Z"/><path class="cls-1" d="m103.5,23.93c0-10.57,5.57-16.61,15.76-16.61s15.76,6.04,15.76,16.61v34.35c0,10.57-5.57,16.61-15.76,16.61s-15.76-6.04-15.76-16.61V23.93Zm10.38,35.01c0,4.72,2.08,6.51,5.38,6.51s5.38-1.79,5.38-6.51V23.27c0-4.72-2.08-6.51-5.38-6.51s-5.38,1.79-5.38,6.51v35.67Z"/><path class="cls-1" d="m99.86,78.06h1.63l-4.73,12.34h-1.63l4.73-12.34Z"/><path class="cls-1" d="m107.73,85.8v1.64c0,1.97-.96,3.1-2.81,3.1s-2.81-1.13-2.81-3.1v-6.42c0-1.97.96-3.1,2.81-3.1s2.81,1.13,2.81,3.1v1.2h-1.78v-1.32c0-.88-.38-1.22-.98-1.22s-.98.33-.98,1.22v6.66c0,.88.38,1.2.98,1.2s.98-.32.98-1.2v-1.76h1.78Z"/><path class="cls-1" d="m112.82,90.4c-.1-.32-.17-.51-.17-1.52v-1.94c0-1.15-.38-1.57-1.23-1.57h-.65v5.02h-1.88v-12.34h2.84c1.95,0,2.79.93,2.79,2.84v.97c0,1.27-.39,2.08-1.23,2.49v.04c.94.41,1.25,1.32,1.25,2.61v1.9c0,.6.02,1.04.21,1.5h-1.92Zm-2.06-10.57v3.79h.74c.7,0,1.13-.32,1.13-1.3v-1.22c0-.88-.29-1.27-.96-1.27h-.91Z"/><path class="cls-1" d="m117.65,83.26h2.59v1.76h-2.59v3.61h3.26v1.76h-5.14v-12.34h5.14v1.76h-3.26v3.44Z"/><path class="cls-1" d="m126.27,83.82h-.03l-.67,6.57h-2.59l-1.34-12.34h1.83l.99,9.73h.04l.89-9.73h1.82l.92,9.8h.04l.96-9.8h1.65l-1.34,12.34h-2.5l-.67-6.57Z"/></svg>