<?xml version="1.0" encoding="utf-8"?>
<!-- Generator: Adobe Illustrator 27.3.1, SVG Export Plug-In . SVG Version: 6.00 Build 0)  -->
<svg version="1.1" id="Layer_1" xmlns="http://www.w3.org/2000/svg" xmlns:xlink="http://www.w3.org/1999/xlink" x="0px" y="0px"
	 viewBox="0 0 135 90.5" style="enable-background:new 0 0 135 90.5;" xml:space="preserve">
<style type="text/css">
	.st0{fill:#F4D117;}
</style>
<path class="st0" d="M16.4,46.8L31,37.3v21c0,10.6-5.3,16.6-15.5,16.6S0,68.9,0,58.3V23.9C0,13.4,5.3,7.3,15.5,7.3S31,13.4,31,23.9
	v6.4h-9.8v-7.1c0-4.7-2.1-6.5-5.4-6.5s-5.4,1.8-5.4,6.5v35.7c0,4.7,2.1,6.4,5.4,6.4s5.4-1.7,5.4-6.4V46.8L16.4,46.8L16.4,46.8z"/>
<path class="st0" d="M50.1,7.3c10.1,0,15.3,6,15.3,16.6V26h-9.8v-2.7c0-4.7-1.9-6.5-5.2-6.5s-5.2,1.8-5.2,6.5s2.1,8.4,8.9,14.3
	c8.7,7.6,11.4,13.1,11.4,20.7c0,10.6-5.3,16.6-15.5,16.6s-15.5-6-15.5-16.6v-4.1h9.8v4.7c0,4.7,2.1,6.4,5.4,6.4s5.4-1.7,5.4-6.4
	s-2.1-8.4-8.9-14.3C37.6,37,34.8,31.5,34.8,23.9C34.8,13.4,40,7.3,50.1,7.3L50.1,7.3z"/>
<path class="st0" d="M68.4,8.1h16.4c10.4,0,15.5,5.8,15.5,16.3v33.4c0,10.6-5.1,16.3-15.5,16.3H68.4C68.4,74.2,68.4,8.1,68.4,8.1z
	 M78.8,17.5v47.2h5.8c3.3,0,5.3-1.7,5.3-6.4V23.9c0-4.7-2-6.4-5.3-6.4L78.8,17.5L78.8,17.5z"/>
<path class="st0" d="M103.5,23.9c0-10.6,5.6-16.6,15.8-16.6s15.8,6,15.8,16.6v34.3c0,10.6-5.6,16.6-15.8,16.6s-15.8-6-15.8-16.6
	V23.9z M113.9,58.9c0,4.7,2.1,6.5,5.4,6.5s5.4-1.8,5.4-6.5V23.3c0-4.7-2.1-6.5-5.4-6.5s-5.4,1.8-5.4,6.5V58.9z"/>
<path class="st0" d="M99.9,78.1h1.6l-4.7,12.3h-1.6L99.9,78.1z"/>
<path class="st0" d="M107.7,85.8v1.6c0,2-1,3.1-2.8,3.1s-2.8-1.1-2.8-3.1V81c0-2,1-3.1,2.8-3.1s2.8,1.1,2.8,3.1v1.2H106v-1.3
	c0-0.9-0.4-1.2-1-1.2s-1,0.3-1,1.2v6.7c0,0.9,0.4,1.2,1,1.2s1-0.3,1-1.2v-1.8C106,85.8,107.7,85.8,107.7,85.8z"/>
<path class="st0" d="M112.8,90.4c-0.1-0.3-0.2-0.5-0.2-1.5v-1.9c0-1.2-0.4-1.6-1.2-1.6h-0.7v5h-1.9V78.1h2.8c1.9,0,2.8,0.9,2.8,2.8
	v1c0,1.3-0.4,2.1-1.2,2.5v0c0.9,0.4,1.2,1.3,1.2,2.6v1.9c0,0.6,0,1,0.2,1.5H112.8L112.8,90.4z M110.8,79.8v3.8h0.7
	c0.7,0,1.1-0.3,1.1-1.3v-1.2c0-0.9-0.3-1.3-1-1.3C111.7,79.8,110.8,79.8,110.8,79.8z"/>
<path class="st0" d="M117.7,83.3h2.6V85h-2.6v3.6h3.3v1.8h-5.1V78.1h5.1v1.8h-3.3V83.3L117.7,83.3z"/>
<path class="st0" d="M126.3,83.8L126.3,83.8l-0.7,6.6H123l-1.3-12.3h1.8l1,9.7h0l0.9-9.7h1.8l0.9,9.8h0l1-9.8h1.6l-1.3,12.3h-2.5
	C126.9,90.4,126.3,83.8,126.3,83.8z"/>
</svg>
