<?xml version="1.0" encoding="UTF-8"?><svg id="Layer_1" xmlns="http://www.w3.org/2000/svg" viewBox="0 0 246.52 123.71"><defs><style>.cls-1{fill:#a7a9ac;}</style></defs><path class="cls-1" d="m79.95,73.17c1.12,1.12,2.18,2.19,3.25,3.24.68.68.88,1.48.61,2.38-.49,1.57-2.41,2.11-3.67,1.05-.13-.11-.25-.24-.37-.36-1.9-1.9-3.81-3.81-5.71-5.71-.17-.17-.38-.32-.5-.58,1.38-1.4,2.76-2.81,4.14-4.22,1.77-1.8,3.56-3.56,5.29-5.4,2.33-2.47,3.05-5.41,2.03-8.63-1-3.15-3.24-5.1-6.48-5.73-2.85-.55-5.39.22-7.52,2.2-1.23,1.14-2.39,2.36-3.58,3.55-1.47,1.47-2.94,2.93-4.4,4.4-.62.63-1.36.89-2.23.69-1.51-.35-2.22-2.08-1.39-3.4.12-.19.26-.36.42-.52,2.69-2.69,5.34-5.43,8.09-8.05,4.96-4.73,12.82-4.79,17.85-.21,5.26,4.79,5.7,13.06.91,18.41-1.56,1.75-3.27,3.37-4.91,5.05-.59.6-1.17,1.2-1.83,1.86Z"/><path class="cls-1" d="m61.29,71c-6.36-.04-11.55-4.35-12.76-10.32-.92-4.54.24-8.59,3.45-11.95,2.58-2.7,5.26-5.29,7.89-7.93.69-.69,1.52-.93,2.45-.64,1.5.47,2.04,2.33,1.05,3.57-.14.17-.3.32-.46.48-2.43,2.43-4.84,4.87-7.29,7.28-1.68,1.65-2.67,3.61-2.81,5.95-.13,2.21.52,4.2,1.95,5.91,1.66,1.99,3.83,3.03,6.4,3.07,2.43.04,4.54-.82,6.28-2.55,2.5-2.49,5-4.99,7.49-7.49.17-.17.34-.36.53-.51.89-.72,2.14-.68,2.99.08.82.74.96,2.03.31,2.97-.14.2-.31.38-.48.56-2.53,2.53-5.05,5.08-7.6,7.59-2.6,2.57-5.74,3.85-9.39,3.92Z"/><path class="cls-1" d="m153.13,50.69c-.89,0-1.78.01-2.67,0-.38,0-.5.14-.52.52-.08,1.34.5,2.04,1.47,2.49,1,.46,2.16.22,2.97-.64.5-.53,1.1-.67,1.75-.48.67.19,1.08.68,1.19,1.38.1.58-.16,1.06-.53,1.48-.9,1.03-2.07,1.58-3.4,1.78-3.23.49-5.8-1.5-6.56-3.89-.17-.52-.26-1.05-.26-1.6,0-1.48-.01-2.96,0-4.44.03-2.95,2.26-5.32,5.23-5.51,2.87-.18,5.4,1.81,5.84,4.77.13.87.07,1.77.03,2.66-.03.66-.59,1.26-1.24,1.41-.26.06-.54.08-.81.08-.84.01-1.68,0-2.52,0h0Zm-1-3.37c.59,0,1.18.01,1.77,0,.4,0,.47-.1.4-.49-.09-.51-.38-.9-.77-1.22-1.23-1.01-3.25-.33-3.52,1.18-.08.43-.02.52.43.53.56.01,1.13,0,1.69,0Z"/><path class="cls-1" d="m98.56,75.54c0,.99.02,1.97,0,2.95-.02.99-.81,1.63-1.79,1.49-.74-.1-1.25-.64-1.32-1.38-.01-.15,0-.3,0-.44,0-3.83,0-7.66,0-11.48,0-2.6,1.68-4.65,4.2-5.18,3.04-.63,6.07,1.74,6.15,4.84.04,1.51.04,3.01,0,4.52-.07,3.2-3.21,5.59-6.33,4.85-.28-.07-.55-.23-.91-.18Zm4.13-6.87h0c0-.71.03-1.43,0-2.14-.06-1.16-.96-2-2.07-1.99-1.11,0-2.01.85-2.04,2.01-.03,1.38-.03,2.76,0,4.14.02.86.44,1.5,1.24,1.85,1.35.6,2.8-.34,2.88-1.87.03-.66,0-1.33,0-2Z"/><path class="cls-1" d="m118.44,49.55c0,.76,0,1.53,0,2.29-.04,3-2.5,5.42-5.51,5.43-3.07,0-5.57-2.39-5.61-5.41-.02-1.55-.02-3.11,0-4.66.04-3.01,2.57-5.46,5.59-5.45,3.01.02,5.49,2.45,5.53,5.43.01.79,0,1.58,0,2.37Zm-7.75-.04h0c0,.71,0,1.43,0,2.14,0,.27.02.54.11.8.38,1.02,1.36,1.59,2.47,1.42.98-.15,1.77-1,1.79-2.05.03-1.53,0-3.05,0-4.58,0-.25-.04-.49-.13-.72-.39-.95-1.36-1.53-2.37-1.38-1.05.16-1.82,1-1.86,2.07-.03.76,0,1.53,0,2.29Z"/><path class="cls-1" d="m120.37,51.17c0-1.23,0-2.47,0-3.7.02-2.97,1.99-5.24,4.92-5.66,2.75-.39,5.64,1.49,6.16,4.61.08.49.11.98.11,1.48,0,2.3,0,4.59,0,6.89,0,.27,0,.55-.05.81-.16.93-.86,1.49-1.77,1.44-.92-.06-1.55-.69-1.56-1.64-.02-2.54,0-5.09,0-7.63,0-.35,0-.69-.11-1.03-.29-1.01-1.26-1.69-2.3-1.6-1.05.09-1.9.91-2.01,1.95-.03.27-.02.54-.02.81,0,2.47-.03,4.94.01,7.41.01.94-.79,2-2.16,1.67-.76-.19-1.22-.82-1.23-1.73-.01-1.36,0-2.72,0-4.07Z"/><path class="cls-1" d="m144.64,51.19c0,1.36.01,2.72,0,4.07-.01.97-.53,1.58-1.39,1.73-1.05.18-1.92-.51-1.98-1.57-.01-.2,0-.39,0-.59,0-2.47,0-4.94,0-7.41,0-1.05-.52-1.8-1.41-2.14-1.27-.48-2.6.22-2.94,1.55-.08.32-.09.63-.09.95,0,2.37,0,4.74,0,7.11,0,.2,0,.4,0,.59-.05.87-.64,1.46-1.51,1.54-.88.08-1.62-.46-1.79-1.31-.03-.17-.05-.34-.05-.51,0-2.64-.04-5.28,0-7.93.04-2.47,1.58-4.51,3.86-5.25,3.52-1.15,7.21,1.46,7.3,5.17.03,1.33,0,2.67,0,4Z"/><path class="cls-1" d="m155.27,69.78c-.08.73-.08,1.44.42,2.04.93,1.13,2.62,1.19,3.66.14.67-.68,1.41-.78,2.12-.27.68.48.86,1.3.45,2.03-.18.33-.44.6-.72.84-2.74,2.33-7.6,1.49-8.87-2.53-.14-.45-.22-.91-.22-1.38,0-1.36-.02-2.72,0-4.08.04-2.27,1.43-4.17,3.54-4.89,2.08-.7,4.36-.04,5.72,1.7.69.88,1.08,1.88,1.1,3,.01.54.01,1.09,0,1.63-.02,1.07-.63,1.68-1.73,1.69-1.58.01-3.16,0-4.74,0-.24,0-.49-.05-.74.07Zm.03-3.2c1.25,0,2.5,0,3.75,0,.37,0,.29-.25.25-.47-.21-.97-1.19-1.67-2.21-1.57-1.04.1-1.75.88-1.79,2.03Z"/><path class="cls-1" d="m117.29,68.56c0,.79-.03,1.58,0,2.37.14,2.96-2.45,5.45-5.98,4.81-.68-.12-1.32-.38-1.91-.76-2.4-1.59-2.56-5.05-.3-6.85.79-.63,1.7-.99,2.67-1.22.67-.16,1.34-.31,2.02-.44.28-.05.36-.18.36-.44.02-.8-.37-1.32-1.17-1.46-.67-.12-1.27,0-1.79.46-.22.2-.44.4-.69.56-.66.43-1.44.36-1.97-.16-.53-.51-.64-1.29-.23-1.97.44-.72,1.09-1.21,1.84-1.56,1.41-.65,2.88-.71,4.32-.16,1.7.65,2.64,1.95,2.78,3.76.08,1.01.01,2.02.01,3.03.01,0,.02,0,.03,0Zm-3.14.99c-.62.13-1.15.25-1.68.36-.17.04-.34.08-.5.14-.37.14-.73.3-1,.6-.47.51-.41,1.27.13,1.7.64.51,1.94.48,2.55-.06.29-.25.48-.56.49-.96,0-.56,0-1.13,0-1.78Z"/><path class="cls-1" d="m150.17,70.17c0,1.31,0,2.62,0,3.93,0,.63-.28,1.09-.84,1.37-.58.29-1.16.22-1.68-.16-.48-.35-.61-.86-.61-1.44,0-2.25,0-4.49,0-6.74,0-.22,0-.45,0-.67-.07-1.05-.88-1.85-1.91-1.91-1.05-.06-1.93.62-2.14,1.66-.06.32-.07.64-.07.96,0,2.27,0,4.54,0,6.82,0,.72-.27,1.25-.94,1.53-.98.41-2.01-.18-2.17-1.23-.02-.15-.02-.3-.02-.44,0-2.4-.01-4.79,0-7.19.02-2.58,1.73-4.64,4.25-5.15,3.05-.62,6.04,1.78,6.1,4.89.02,1.26,0,2.52,0,3.78Z"/><path class="cls-1" d="m95.45,49.49c0-.89.02-1.78,0-2.67-.06-2.21,1.27-4.31,3.97-4.91,1.71-.38,3.33-.09,4.84.81.54.32.98.75,1.31,1.29.46.78.3,1.64-.4,2.18-.73.56-1.57.54-2.2-.14-.84-.9-1.84-1.09-2.97-.79-.79.21-1.16.68-1.17,1.5-.02,1.83-.01,3.65,0,5.48,0,.89.53,1.49,1.42,1.61,1.02.14,1.95,0,2.69-.84.58-.66,1.54-.69,2.21-.17.73.56.9,1.46.39,2.24-.69,1.04-1.7,1.63-2.88,1.96-1.58.43-3.14.37-4.61-.4-1.68-.87-2.54-2.29-2.6-4.18-.03-.99,0-1.97,0-2.96Z"/><path class="cls-1" d="m159.4,49.47c.04-1.04-.05-2.07.05-3.11.22-2.31,1.63-3.93,3.9-4.44,1.63-.37,3.19-.13,4.66.67.57.31,1.06.71,1.43,1.26.57.84.48,1.69-.26,2.31-.72.61-1.63.57-2.31-.17-.78-.84-1.72-1.01-2.77-.76-.86.2-1.3.69-1.32,1.56-.03,1.83-.03,3.66,0,5.48.01.86.48,1.4,1.32,1.55,1.04.2,2.05.12,2.77-.78.59-.74,1.81-.63,2.34-.15.71.64.83,1.52.22,2.32-.95,1.26-2.29,1.85-3.81,2.03-1.3.15-2.57-.02-3.73-.68-1.43-.81-2.25-2.03-2.43-3.68-.12-1.13-.02-2.27-.07-3.41Z"/><path class="cls-1" d="m178.02,75.84c-1.17,0-2.24-.31-3.21-.97-.35-.24-.65-.53-.89-.88-.52-.77-.4-1.62.3-2.17.66-.52,1.54-.47,2.13.19.71.8,1.58.81,2.5.57.5-.13.9-.43.98-.99.08-.58-.27-.92-.72-1.19-.47-.28-.97-.47-1.48-.67-.62-.24-1.24-.48-1.82-.81-1.63-.93-2.33-2.23-2.08-4.05.23-1.7,1.29-2.75,2.88-3.22,2.03-.6,3.8-.08,5.27,1.43.28.28.51.6.58,1.01.13.72-.21,1.41-.85,1.73-.67.33-1.37.21-1.86-.4-.45-.55-.97-.91-1.7-.88-.15,0-.3.02-.44.06-.37.11-.7.28-.78.7-.08.44.21.68.53.89.48.31,1.02.49,1.54.7.73.29,1.45.61,2.13,1.02,2.65,1.6,2.65,5.69-.32,7.25-.82.43-1.73.66-2.7.66Z"/><path class="cls-1" d="m130.6,68.55c0-1.11-.01-2.22,0-3.33,0-.36-.11-.49-.46-.47-.29.02-.59.01-.89-.03-.75-.11-1.28-.71-1.3-1.48-.03-.75.47-1.39,1.21-1.57.34-.08.69-.09,1.03-.06.34.02.42-.12.41-.43,0-.47-.05-.94.07-1.4.17-.65.61-1.02,1.23-1.13.63-.12,1.16.11,1.56.62.24.31.25.68.27,1.05.02.41-.19.93.12,1.2.29.26.81.07,1.22.09.64.03,1.29-.06,1.92.05,1.07.19,1.61,1.32,1.11,2.28-.29.56-.77.81-1.39.82-.79,0-1.58,0-2.37,0-.6,0-.61.01-.61.62,0,2.05,0,4.1,0,6.15,0,.96.68,1.43,1.59,1.1.27-.1.52-.28.77-.43.82-.47,1.68-.32,2.16.39.53.79.38,1.59-.41,2.21-1.13.88-2.42,1.21-3.83.99-2-.31-3.35-1.88-3.41-3.97-.03-1.09,0-2.17,0-3.26h0Z"/><path class="cls-1" d="m176.54,50.57c0,1.46,0,2.91,0,4.37,0,.45-.05.89-.22,1.3-.28.67-.77.93-1.62.88-.75-.05-1.15-.34-1.35-1.04-.15-.52-.18-1.07-.18-1.61,0-2.67,0-5.33,0-8,0-.17,0-.35,0-.52q-.02-.56-.6-.57c-.22,0-.45.01-.67,0-.93-.09-1.6-.83-1.58-1.73.02-.91.71-1.58,1.67-1.64.36-.02.81.16,1.07-.11.26-.27.07-.71.1-1.07.03-.27.03-.54.09-.81.18-.8.96-1.33,1.77-1.25.85.09,1.46.71,1.5,1.55.02.39.03.79,0,1.18-.03.4.15.51.52.5.91-.02,1.83-.02,2.74,0,1.02.03,1.69.79,1.63,1.8-.05.89-.69,1.52-1.66,1.56-.76.03-1.53,0-2.3,0-1.04,0-.93-.08-.93.9,0,1.43,0,2.86,0,4.3Z"/><path class="cls-1" d="m119.19,69.93c.06-1.22-.11-2.7.1-4.18.03-.24.08-.49.14-.72.97-3.86,4.86-4.38,7.3-2.77.27.18.52.37.72.63.49.65.45,1.45-.09,2.03-.55.59-1.34.68-2.01.24-.25-.16-.45-.37-.74-.49-1-.39-1.93.07-2.17,1.11-.1.43-.12.88-.12,1.32,0,2.27,0,4.54,0,6.81,0,.91-.35,1.41-1.09,1.64-.86.27-1.72-.21-1.97-1.08-.07-.27-.08-.54-.08-.81,0-1.16,0-2.32,0-3.74Z"/><path class="cls-1" d="m167.32,70.21c0,1.26,0,2.52,0,3.78,0,.71-.3,1.23-.96,1.52-1.02.45-2.17-.35-2.16-1.38.03-2.64.01-5.28.02-7.92,0-.47.11-.93.24-1.38,1.13-3.85,5.18-4.13,7.49-2.39.74.56.98,1.21.74,1.92-.34.99-1.47,1.38-2.35.81-.27-.17-.49-.4-.81-.51-.92-.33-1.74.06-2.06.98-.13.38-.14.77-.14,1.17,0,1.14,0,2.27,0,3.41Z"/></svg>