<?xml version="1.0" encoding="UTF-8"?><svg id="Layer_1" xmlns="http://www.w3.org/2000/svg" viewBox="0 0 246.52 123.71"><defs><style>.cls-1{fill:#fff;}.cls-2{fill:#a7a9ac;}</style></defs><path class="cls-2" d="m90.03,70.17c5.48,10.27,14.18,16.33,19.44,13.53,5.25-2.8,5.07-13.4-.41-23.68-5.48-10.28-14.18-16.33-19.44-13.53-5.25,2.8-5.07,13.4.41,23.68Z"/><path class="cls-2" d="m125.67,46.5c-4.75-2.53-12.31,2.17-17.77,10.68.58.91,1.14,1.86,1.67,2.85,5.48,10.28,5.66,20.88.41,23.68-.65.34-1.34.55-2.08.64,5.26.61,12.55-5.16,17.36-14.17,5.48-10.28,5.66-20.88.41-23.68Z"/><path class="cls-2" d="m107.6,56.77c5.47-8.64,13.11-13.43,17.89-10.88.22.12.43.25.63.4-3.6-3.34-10.59-5.56-18.61-5.48-7.25.07-13.64,2.01-17.4,4.89,4.8-2.09,12.18,2.67,17.49,11.07Z"/><path class="cls-1" d="m109.94,73.81l-1.74,5.69-1.68,5.19c8.18,1.14,17.57-19.33,17.57-19.33h0c1.1-2.31,1.64-4.92,1.46-7.65-.55-8.56-7.94-15.06-16.51-14.51-8.56.55-15.06,7.94-14.51,16.51.53,8.18,7.33,14.02,15.39,14.1Zm-.28-21.1c3.24-.21,6.03,2.25,6.24,5.48.21,3.24-2.25,6.03-5.48,6.24-3.24.21-6.03-2.25-6.24-5.48-.21-3.24,2.25-6.03,5.48-6.24Z"/><path class="cls-2" d="m126.29,74.22l-.54,2.84h2.64l.54-2.84h1.55l-1.38,7.27h-1.55l.57-3.05h-2.63l-.58,3.05h-1.55l1.38-7.27h1.55Z"/><path class="cls-2" d="m131.91,74.33c.62-.11,1.31-.16,2.01-.16,1.13,0,2.04.26,2.65.79.58.49.95,1.21.96,2.28,0,1.4-.59,2.62-1.5,3.34-.84.67-1.91.96-3.48.96-.87,0-1.63-.06-1.99-.13l1.35-7.08Zm.43,5.91c.18.03.41.04.68.04.84,0,1.59-.3,2.06-.85.5-.56.75-1.32.75-2.19,0-1.14-.64-1.82-1.92-1.82-.27,0-.5.01-.66.04l-.92,4.78Z"/></svg>