<?xml version="1.0" encoding="UTF-8"?><svg id="Layer_1" xmlns="http://www.w3.org/2000/svg" viewBox="0 0 246.52 123.71"><defs><style>.cls-1{fill:#a7a9ac;}</style></defs><path class="cls-1" d="m111.87,31.78s0,0,0,0c0,0,0,0,0,0Z"/><path class="cls-1" d="m106.71,38.71s.04-.02.06-.02c.06.04.15.06.23.06.06,0,.04-.04.08-.04.02,0,.06.02.08.02.04,0,.06-.06.13-.1,0-.15-.31-.42-.31-.96,0-1.64,1.91-4.91,3.54-5.56-.71,1.43-2.43,5.43-2.43,7.34,0,.4.06.94.8.94.06,0,.06-.04.08-.04.06,0,.02.04.44.15,0-.04.02-.04.04-.04,0,0,.13.08.21.08.06,0,.15.02.21.02.21,0,.25-.15.25-.27,0-.04,0-.08-.02-.13.06-3.42,3.1-8.05,4.55-8.05.42,0,.69.36.69,1.2,0,2.43-2.16,8.17-5.66,9.45-.54.21-.94.27-1.15.27-.15,0-.21-.02-.21-.08,0-.17,1.15-1.51,3.44-1.8.17-.02.25-.17.25-.29,0-.15-.1-.27-.31-.27h-.11c-.67.02-3.98.17-3.98,1.93,0,.84.5,1.87,1.61,1.87.13,0,.27,0,.42-.04,5.09-1.01,7.69-7.78,7.69-10.63,0-.23-.02-.44-.06-.63-.15-.73-1.03-1.8-1.72-1.95-.06-.02-.13-.02-.17-.02-1.34.06-2.85,1.32-4.13,3.19.29-.71.8-1.53.8-2.2-.04-.19-.16-.27-.18-.3,0,.07-.3.57-.58,1.03.11-.22.21-.42.24-.47.13-.27.21-.54.21-.63,0-.1-.31-.17-.31-.17-.25-.02-.42-.15-.67-.15-2.1,0-5.47,3.86-5.47,5.91,0,.61.57,1.4,1.43,1.4Zm1.93-.23s-.08-.06-.08-.08c0-.36.59-1.8,1.3-3.96.1-.21.13-.29.15-.29,0,.19-.46,1.26-.63,1.78-.15.42-.25.78-.34,1.05-.17.8-.36,1.51-.4,1.51Zm.82-.48c-.15.55-.13.73-.21.73-.04,0-.1-.06-.1-.08,0-.04.42-1.3,1.01-2.89.08-.27.15-.36.15-.31,0,.52-.75,2.28-.84,2.56Zm2.91,3.42s.02-.06.08-.13c.65-.65,1.09-1.36,1.95-2.89,0,0,.02-.02.08-.15.1-.19.06-.11.21-.23-.4.84-1.22,2.45-2.14,3.27-.13.13-.21.19-.23.19,0-.02.02-.04.04-.06Zm2.33-2.58c-.51,1.01-1.32,2.46-2.34,3.11.8-.66,2.07-2.59,2.36-3.21,0,.04,0,.08-.02.1Zm-3.58-3.75s.02-.03.04-.06c0,0,0,0,0,0-.02.04-.04.06-.04.06Zm.46-.36c0-.65,1.22-1.63,1.59-1.98-.35.39-1.55,1.88-1.59,1.98Zm1.45-2.22s.06-.04.08-.04c-.39.39-.95,1-1.43,1.69.17-.28.34-.54.42-.64.31-.67.9-.99.92-1.01Zm-6.85,2.87c-.34.67-.5,1.26-.5,1.76,0,.4.13.75.36,1.03-.36-.25-.52-.59-.52-1.03s.23-1.05.67-1.76Z"/><path class="cls-1" d="m117.34,38.8c-.23-.19-.52-.29-.71-.29-.46,0-.71,1.95-.71,2.37,0,1.28.69,2.64,2.33,2.64.94,0,1.8-.59,2.47-1.47.69-.14,1.23-.54,1.73-1.14-.08.42-.11.78-.11,1.08,0,1.15.48,1.53.82,1.53.15,0,.25-.08.27-.21.92-2.41,3.04-5.2,3.4-5.49-.17.42-1.28,2.74-1.28,4.34,0,.99.57,1.51,1.11,1.51,1.64,0,3.67-4.34,3.67-4.59,0-.06-.02-.1-.08-.1-.13,0-.42.19-.67.44-.73.71-1.49,2.54-2.56,3.23.04-1.49,1.8-4.65,1.8-5.22s-.55-1.03-1.13-1.03c-.82,0-1.87,1.17-2.81,2.54.23-.46.86-1.34.86-1.64,0-.13-.06-.27-.17-.4-.06,0-1.07,1.87-1.17,2.49-.02-.04-.02-.06-.02-.13,0-.57.9-1.97,1.07-2.26l.11-.13c-.27-.31-.76-.65-1.09-.65-.15,0-.25.06-.31.19-.55,1.09-.95,2.03-1.23,2.83-.02.02-.05.04-.07.07-.69.65-.92,1.34-1.51,1.74.35-.75.57-1.59.57-2.37,0-1.24-.67-2.7-2.24-2.7-1.24,0-2.33,1.17-2.33,2.54,0,.08,0,.19.02.29Zm-.71.5c-.15.29-.25.96-.25,1.61,0,.4.04.78.13,1.03-.17-.29-.23-.75-.23-1.22,0-.8.29-1.64.4-1.64,0,0-.02.08-.04.21Zm9.33,2.75c0-.55.5-2.03.52-2.03,0,0-.42,1.68-.42,2.26,0,.25.06.46.06.48-.13,0-.17-.65-.17-.71Zm.67-1.15c-.08.25-.13,1.64-.19,1.64,0,0-.04-.4-.04-.59,0-.4.19-1.17.23-1.17v.13Zm-5.22-2.91s-.04-.06-.06-.11c-.02-.38-.57-1.11-.99-1.28.59.11,1.05.99,1.05,1.38Zm-1.72-.94c.61,0,.84.48.84,1.19,0,1.03-.48,2.45-.84,3.02-.96-.23-1.36-1.17-1.36-2.1,0-1.07.52-2.12,1.36-2.12Zm-2.05,3.42c.38.73.94,1.28,1.57,1.55-.29.23-.59.38-.9.38-.06,0-.13,0-.19-.02-.4-.17-.61-.59-.61-1.11,0-.25.04-.5.13-.8Z"/><path class="cls-1" d="m93.26,60.42c.25-.39.45-.72.56-.95-.19.31-.37.63-.56.95Z"/><path class="cls-1" d="m101.06,77.19c-1.35-.32-1.59-2.69-1.59-4.4,0-4.23,1.1-9.17,2.27-13.43l.12-.44c1.04-3.77,1.84-6.59,3.49-10.29.06-.13.12-.32.12-.5,0-2.08-3.62-3.31-3.92-3.29-.61.05-.98.51-1.66,1.43,0,.24-.74,1.1-.86,1.24-4.17,5.5-7.79,10.47-11.22,16.52,2.57-9.11,7.17-18.51,8.15-20.37.12-.32.18-.75.18-1.06,0-.86-.55-.87-.61-.87.25-.02-3.31,5.55-3.31,5.31.92-1,2.39-4.19,3.13-5.54-.18-.11-.12-.6-1.35-.5-.12.01-.24-.1-.37-.28-.92-.23-1.9-.39-3-.3-.8.07-1.66.26-2.58.65-4.11,1.82-14.28,10.03-14.28,15.49,0,2.27,2.76,4.37,4.84,4.19.12-.01.18-.2.31-.21.06,0,.12.05.18.05.24-.02.43-.22.43-.34,0-.06-.61-.99-.61-1.73,0-4.66,7.48-13.38,10.91-15.45-2.51,4.07-3.25,7.26-4.72,11.74-1.35,4.22-3.98,13.33-3.98,18.06,0,1.23,1.23,4.98,3.19,4.82.12-.01.18-.08.31-.09.24-.27.31-.46.37-.71,2.08-4.98,5.15-11.13,8.27-16.47-1.07,1.66-3.17,4.49-4.14,5.91,1.37-2.22,5.12-7.98,6.11-9.06.98-1.74,2.08-3.06,3.07-4.61-2.02,6.67-4.41,13.68-4.41,20.36,0,5.21,2.94,6.5,5.46,6.28,1.41-.12,2.57-.71,2.57-1.38,0-.43-.49-.63-.86-.72Zm-25.07-18.3c-.92-.47-1.35-1.3-1.35-2.4,0-1.35.74-3.25,2.21-5.58-1.1,2.3-1.59,4.06-1.59,5.65,0,.92.31,1.69.74,2.33Zm6.5,10.55c.43-5.43,2.57-12.91,6.38-22.36-3.19,9.16-5.33,16.64-6.38,22.36Zm3.74.05c.06-.06.19-.25.37-.54-.19.31-.33.53-.37.54Zm10.54-15.24c-1.89,2.62-5.44,7.1-8.34,11.68,1.33-2.22,2.84-4.8,3.32-5.56,1.66-2.59,4.72-6.41,5.33-6.46l-.31.33Zm1.66,18.56c0-3.19.98-7.93,2.88-14.22-1.65,6.45-2.45,11.3-2.45,14.55,0,1.53.18,2.68.55,3.51-.61-.75-.98-2.06-.98-3.84Z"/><path class="cls-1" d="m113.26,47.29c-1.9.16-4.72,2.3-6.68,2.46-.37.03-.86-.11-1.1-.09-.24.02-.31.15-.31.33,0,1.53,1.72,2.43,2.45,2.37,2.58-.22,6.44-2.93,7.91-3.06.18-.02.31-.03.43.03.12.11.24.1.31.1.12,0,.18-.08.18-.2,0-.61-1.04-2.12-3.19-1.94Z"/><path class="cls-1" d="m109.46,74.4c2.94-.25,5.22-2.35,7.11-5.06.45,1.43,2.08,3.39,3.5,4.1.8.42,2.51.71,4.11.57,1.78-.15,3.37-.77,3.37-2.18,0-.18,0-.43-.06-.67-.86-2.81-2.33-6.92-2.33-10.35,0-.61.06-1.23.18-1.85,1.35-1.34,4.97-3.73,4.97-5.88,0-.18,0-.37-.06-.55.49-.72.8-1.35.8-1.97-.06-.18-.43-.82-.61-.93l-.25-.04-.31.21c.06-.13.06-.19.06-.25,0-.12-.12-.17-.25-.16-.12-.05-.25-.1-.31-.1-1.78.15-7.54,4.56-8.83,8.1-.3.86-.42,1.94-.43,3.08-.22.18-.46.39-.74.64-1.65,1.61-4.97,9.43-8.95,9.77-2.21.19-2.88-1.17-2.88-2.76,0-.55.12-1.17.25-1.74.31.1.61.13.98.1,3.68-.31,9.01-6.22,9.01-10.32,0-2.02-1.84-3.71-4.11-3.52-5.27.44-11.1,10.68-11.1,16.63,0,2.88,2.88,5.46,6.87,5.12Zm16.68-4.84c-1.23-2.04-1.84-4.38-1.84-7.02,0-.37.06-.8.06-1.17.18,2.99.8,5.7,1.78,8.19Zm-3.25-13.28c.61-1.22,1.66-2.28,3.07-3.2-1.29,1.09-2.27,2.15-3.07,3.2Zm4.41-5.28c-2.39,2.04-4.23,3.97-5.64,5.87,1.16-2.24,3-4.24,5.64-5.87Zm-7.17,12.13l.14-.26c.3,2.61,1.04,5.33,1.88,7.14-1.43-.7-2.71-2.41-3.89-3.38.66-1.16,1.28-2.35,1.87-3.5Zm-5.76-4.36c-.61,2.75-1.84,4.75-3.86,5.91,1.78-1.5,3.07-3.45,3.86-5.91Zm-.8-2.14c.12-.01.25.04.37.15.06.12.12.23.12.48,0,1.72-2.51,7.39-5.4,7.63-.12,0-.31.03-.43-.03.24-1,3.68-8.1,5.33-8.24Zm-2.45-.65c0,.06-3.31,5.06-3.56,5.02,0-1.29,3.43-5.01,3.56-5.02Zm-6.13,7.08c0-1.04,1.41-4.23,4.41-7.18,0,.37-2.94,4.17-3.62,5.45-.43.47-.67,1.71-.8,1.72Z"/><path class="cls-1" d="m173.58,49.81c0-.43-.18-.78-.61-1.17-.55-.44-1.1-.58-1.66-.54-4.05.34-8.95,10.81-9.69,13.57.61-3.73,2.51-7.94,3.68-10.85.06-.13.06-.31.06-.43,0-1.29-2.02-2.1-3.43-1.98-.49.04-.92.2-1.1.46-.48.69-2.19,5.03-3.3,9.62-1.41,1.74-2.12,3.4-3.57,4.51,1.04-2.3,1.65-4.8,1.65-7.07,0-3.62-1.96-7.74-6.56-7.36-3.62.3-6.8,4.01-6.8,7.99,0,.25,0,.55.06.85-.68-.49-1.53-.73-2.09-.68-1.35.11-2.08,5.88-2.08,7.1,0,.09,0,.18,0,.27-1.33,2.15-2.84,4.25-4.72,5.27-.12-.48-.18-1.09-.18-1.7,0-4.66,2.88-12.44,5.15-18.15,1.23-.1,2.45-.27,3.37-.35.92-.08,1.59-.07,1.9.02.37-.03.37-1.26.37-1.38,0-1.84-.49-2.11-2.08-1.97-.49.04-1.04.15-1.66.26-.37.03-.43-.02-.43-.02,0-.06.06-.37.12-.5.25-.57.31-1.13.31-1.68,0-2.02-1.29-3.75-2.51-3.65-.61.05-1.78,1.87-3.74,6.81-1.78.15-3.25-.03-3.62-.92-.12-.17-.25-.22-.37-.21-.31.02-.67.61-.67,1.16,0,1.72,1.65,2.37,3.68,2.57-1.9,5.37-3.74,11.97-3.74,16.56,0,4.17,1.84,6.1,3.68,5.94,2.19-.18,4.42-2.99,5.73-5.04.9,2.36,2.89,4.13,6.23,3.85,2.76-.23,5.27-2.16,7.23-4.9,1.78-.5,3.21-1.56,4.51-3.08-.1.82-.15,1.61-.15,2.34,0,2.94.86,4.95,3.37,4.74.49-.04.86-.38.98-.88.92-4.43,3.56-9.56,6.38-14.52-.06.5-.06.93-.06,1.35,0,3.68.92,5.69,2.7,5.54.49-.04.86-.32.86-.93-.06-.55-.12-1.03-.12-1.52,0-4.84,2.94-7.48,2.94-9.32Zm-42.67,12.18c.43-3.53,1.53-7.73,3.13-12.28l.25.04c-1.53,4.66-2.64,8.68-3.37,12.24Zm9.44-3.55s-.06.25-.12.62c-.26.54-.48,1.49-.61,2.58-.13.21-.26.43-.39.65.19-1.99.85-3.83,1.11-3.85Zm-.87,7.44c.04-.07.09-.15.13-.22.06.44.15.84.25,1.16-.16-.26-.28-.58-.38-.94Zm5.65,1.78c-.18.02-.37.03-.55-.02-1.17-.39-1.78-1.57-1.78-3.1,0-.74.12-1.48.37-2.36,1.1,2.05,2.76,3.51,4.6,4.15-.86.75-1.72,1.25-2.64,1.33Zm4.05-3.65c-2.82-.44-3.98-3.1-3.98-5.8,0-3.13,1.53-6.32,3.98-6.53,1.78-.15,2.45,1.2,2.45,3.29,0,3-1.41,7.29-2.45,9.03Zm1.96-13.78c1.72.16,3.07,2.62,3.07,3.79,0,.06-.12-.17-.18-.29-.06-1.1-1.65-3.11-2.88-3.5Zm8.11,6.49c-.07.06-.15.12-.22.19.29-2.33,1.23-4.66,2.78-6.91-1.15,2.25-2.01,4.51-2.56,6.72Zm8.51-.35c0-.61.12-1.3.37-1.99,0,1.59,0,3.07.25,4.15-.37-.64-.61-1.36-.61-2.16Z"/><path class="cls-1" d="m167.61,76.25c-.09-.29-.26-.46-.49-.59-2.37-1.12-5.1-1.51-7.81-1.57-1.18-.02-2.37-.01-3.51.07l-4.12.3c-11.74.86-23.34,3.55-34.96,4.39-2.02.15-3.97.29-5.97.25-.7-.02-4.04-.66-5.15-.58-.18.01-.33.06-.32.17,0,.04.04.07.12.14,2.01,2.69,8.39,2.93,11.24,3.01.11,0,.22.02.33.01,1.48.04,2.89.05,4.36-.06,4.75-.35,9.6-1.25,14.31-2,6.14-.96,12.32-2,18.49-2.53-5.68,1.78-11.67,4.72-16.76,6.05-.58.15-1.09.26-1.61.3-.59.04-1.16-.17-1.78-.13-.15.01-.25.06-.25.13,0,.07.04.11.12.18,1.41,1.11,2.97,1.22,4.59,1.1,2.72-.2,5.83-1.2,8.61-2.14,7.44-2.46,11.68-4.13,19.74-4.72.59-.04.95-.62.9-1.32-.01-.18-.02-.29-.11-.47Zm-36.55,1.41c8.04-1.29,14.16-2.1,18.35-2.41,1.07-.08,1.99-.11,2.8-.13-5,.44-12.07,1.29-21.15,2.54Zm6.24,5.96c2.86-.87,6.07-1.99,9.62-3.43-3.9,1.8-7.11,2.91-9.62,3.43Z"/><path class="cls-1" d="m165.45,68.54c0-.66-.51-1.17-1.16-1.17s-1.16.49-1.16,1.16.55,1.16,1.16,1.16c.67,0,1.16-.54,1.16-1.15Zm-2.22,0c0-.59.48-1.06,1.05-1.06.61,0,1.06.47,1.06,1.06s-.45,1.05-1.06,1.05-1.06-.46-1.06-1.06Z"/><path class="cls-1" d="m164.54,68.82c0,.05.05.29.06.33.02.05.03.07.04.1h.19c-.06-.12-.07-.19-.1-.4-.02-.12-.05-.27-.25-.33.23-.03.34-.18.34-.35,0-.14-.08-.26-.21-.31-.09-.04-.17-.04-.33-.04h-.42v1.43h.16v-.69c.31,0,.47,0,.52.26Zm-.52-.39v-.49h.23c.14,0,.2,0,.26.03.09.04.13.12.13.21,0,.25-.26.25-.35.25h-.27Z"/></svg>