<?xml version="1.0" encoding="UTF-8"?><svg id="Layer_1" xmlns="http://www.w3.org/2000/svg" viewBox="0 0 246.52 123.71"><defs><style>.cls-1{fill:#a7a9ac;fill-rule:evenodd;}</style></defs><path class="cls-1" d="m135.67,62.77h-4.4l2.26-10,2.14,10Zm-11.61,10.29h4.75l1.38-5.46h6.58l1.31,5.46h5.12l-6.76-25.56h-5.73l-6.66,25.56Z"/><path class="cls-1" d="m97.79,62.77h-4.4l2.26-10,2.14,10Zm-11.61,10.29h4.75l1.38-5.46h6.58l1.31,5.46h5.12l-6.76-25.56h-5.73l-6.66,25.56Z"/><path class="cls-1" d="m75.41,52.33h1.23c1.78,0,3.42.44,3.42,2.82,0,2.89-1.91,2.97-3.42,2.97h-1.23v-5.79Zm-4.67,20.73h4.67v-10.11h.98c1.73,0,2.34,1.1,3.29,5.49l1,4.61h4.87l-1.71-6.96c-.88-3.11-.98-5.05-2.49-5.64,2.26-.84,3.37-3.11,3.37-6.52,0-4.39-2.54-6.45-5.65-6.45h-8.34v25.56Z"/><path class="cls-1" d="m56.15,52.55h1.81c3.42,0,5.45,2.64,5.45,7.73s-1.96,7.73-5.45,7.73h-1.81v-15.46Zm-4.67,20.51h6.38c5.98,0,10.37-3.33,10.37-12.89s-4.27-12.67-10.37-12.67h-6.38v25.56Z"/><path class="cls-1" d="m167.92,60.28c0-4.43,1.13-8.17,3.97-8.17s3.97,3.74,3.97,8.17-1.13,8.17-3.97,8.17-3.97-3.96-3.97-8.17Zm-4.82,0c0,8.13,3.06,13.22,8.79,13.22s8.79-5.09,8.79-13.22-3.01-13.22-8.79-13.22-8.79,5.02-8.79,13.22Z"/><path class="cls-1" d="m149.76,52.55h1.81c3.42,0,5.45,2.64,5.45,7.73s-1.96,7.73-5.45,7.73h-1.81v-15.46Zm-4.67,20.51h6.38c5.98,0,10.38-3.33,10.38-12.89s-4.27-12.67-10.38-12.67h-6.38v25.56Z"/><path class="cls-1" d="m182.11,72.41c1.56.73,3.59,1.1,5.22,1.1,3.89,0,7.71-1.79,7.71-8.42,0-9.23-8.29-6.45-8.29-10.58,0-2.23,1.96-2.38,3.14-2.38,1.33,0,2.69.37,3.89,1.17l.3-5.27c-1.18-.59-2.84-.95-4.52-.95-3.52,0-7.64,1.68-7.64,7.84,0,9.3,8.29,6.3,8.29,11.06,0,2.05-1.41,2.49-2.89,2.49-1.93,0-3.62-.73-4.82-1.68l-.4,5.64Z"/><path class="cls-1" d="m122.81,58.12h-7.26v4.83h2.74v5.05c-.43.29-1.03.44-1.66.44-3.42,0-5.85-3.04-5.85-8.06,0-5.97,3.12-8.28,6.91-8.28,1.11,0,2.81.4,4.27,1.65l.38-5.57c-1.71-.95-4.14-1.14-5.3-1.14-6.43,0-11.08,3.7-11.08,13.33s5.4,13.11,10.07,13.11c1.61,0,3.82-.07,6.78-1.17v-14.21Z"/></svg>