<?xml version="1.0" encoding="utf-8"?>
<!-- Generator: Adobe Illustrator 27.3.1, SVG Export Plug-In . SVG Version: 6.00 Build 0)  -->
<svg version="1.1" id="Layer_1" xmlns="http://www.w3.org/2000/svg" xmlns:xlink="http://www.w3.org/1999/xlink" x="0px" y="0px"
	 viewBox="0 0 246.5 123.7" style="enable-background:new 0 0 246.5 123.7;" xml:space="preserve">
<style type="text/css">
	.st0{fill:#A7A9AC;}
	.st1{opacity:0.5;fill:url(#SVGID_1_);}
</style>
<g>
	<g>
		<path class="st0" d="M194,45.6c1.3,0,2.4,1.1,2.4,2.4c0,1.3-1.1,2.4-2.4,2.4c-1.3,0-2.4-1.1-2.4-2.4
			C191.7,46.6,192.7,45.6,194,45.6z M194.1,49.8c1,0,1.9-0.9,1.9-1.9c0-1.1-0.9-1.9-1.9-1.9c-1.1,0-1.9,0.8-1.9,1.9
			C192.1,49,193,49.8,194.1,49.8z M193.2,46.7h0.9c0.5,0,0.8,0.3,0.8,0.7c0,0.3-0.2,0.6-0.6,0.7l0.7,1c-0.2,0-0.2,0-0.3,0
			c-0.2,0-0.3-0.1-0.3-0.1l-0.6-0.9h-0.2v1h-0.4V46.7z M194.1,47.8c0.2,0,0.3-0.1,0.3-0.3c0-0.2-0.1-0.3-0.3-0.3h-0.5v0.7H194.1z"/>
	</g>
	<path class="st0" d="M50.8,77.7V60.5h-4.2v-4.9h4.2v-1.5c0-6,4-8.8,8.5-8.8c2,0,4,0.6,5.8,1.8l-2,4.1c-1.2-0.8-2.3-1.2-3.4-1.2
		c-1.9,0-3.4,1.3-3.4,4v1.5h6.6l-1.8,4.9h-4.8v17.2H50.8z"/>
	<path class="st0" d="M71.1,51.6c0,4.3-6.5,4.3-6.5,0C64.6,47.3,71.1,47.3,71.1,51.6z"/>
	<rect x="65.1" y="55.6" class="st0" width="5.5" height="22.1"/>
	<path class="st0" d="M78.1,46v12.4c1.3-2.3,5-3.6,7.4-3.6c6.5,0,11.4,4,11.4,11.7c0,7.4-5,11.7-11.5,11.7c-2.7,0-5.5-0.9-7.2-3.6
		l-0.4,3.1h-5.2V48.4L78.1,46z M78.5,66.5c0,4,3,6.6,6.5,6.6c3.5,0,6.4-2.7,6.4-6.6c0-4-2.8-6.5-6.4-6.5
		C81.5,59.9,78.5,62.6,78.5,66.5z"/>
	<path class="st0" d="M103.5,68.5c0.4,2.8,2.8,4.8,6.7,4.8c2,0,4.7-0.8,6-2.1l3.5,3.5c-2.4,2.5-6.2,3.6-9.6,3.6
		c-7.7,0-12.3-4.8-12.3-11.9c0-6.8,4.6-11.7,11.9-11.7c7.5,0,12.2,4.6,11.3,13.8H103.5z M115.7,63.9c-0.4-2.9-2.6-4.4-5.8-4.4
		c-3,0-5.4,1.5-6.3,4.4H115.7z"/>
	<path class="st0" d="M127.4,55.3l0.4,2.6c1.7-2.8,4-3.2,6.3-3.2c2.3,0,4.5,0.9,5.8,2.1l-2.5,4.8c-1.1-1-2.2-1.5-4-1.5
		c-2.9,0-5.6,1.5-5.6,5.7v11.8h-5.5V55.3H127.4z"/>
	<path class="st0" d="M156.1,55.3h6.6v0.2l-7.4,10.9l7.8,11.2v0.1h-6.6L148,66.3L156.1,55.3z"/>
	<path class="st0" d="M166.7,68.5c0.4,2.8,2.8,4.8,6.7,4.8c2,0,4.7-0.8,6-2.1l3.5,3.5c-2.4,2.5-6.2,3.6-9.6,3.6
		c-7.7,0-12.3-4.8-12.3-11.9c0-6.8,4.6-11.7,11.9-11.7c7.5,0,12.2,4.6,11.3,13.8H166.7z M178.8,63.9c-0.4-2.9-2.6-4.4-5.8-4.4
		c-3,0-5.4,1.5-6.3,4.4H178.8z"/>
	<path class="st0" d="M190.7,46v31.7h-5.5V48.4L190.7,46z"/>
	<linearGradient id="SVGID_1_" gradientUnits="userSpaceOnUse" x1="150.1601" y1="63.3107" x2="158.2591" y2="76.1307">
		<stop  offset="0" style="stop-color:#000000"/>
		<stop  offset="1" style="stop-color:#231F20;stop-opacity:0"/>
	</linearGradient>
	<path class="st1" d="M155.4,66.3l7.8,11.2v0.1h-6.6L148,66.3H155.4z"/>
	<path class="st0" d="M155.4,66.3l-8.5,11.4h-6.6v-0.1l7.8-11.2l-7.4-10.9v-0.2h6.6L155.4,66.3z"/>
</g>
</svg>
