<?xml version="1.0" encoding="UTF-8"?><svg id="Layer_1" xmlns="http://www.w3.org/2000/svg" viewBox="0 0 246.52 123.71"><defs><style>.cls-1{fill:#a7a9ac;}</style></defs><path class="cls-1" d="m73.97,71.32c-1.66.85-3.72,1.21-5.33,1.21-.9,0-1.89-.17-2.54-.39-.82,1.18-1.38,2.4-1.49,3.58-.08.99.42,1.66,1.3,1.69,1.49.03,3.02-1.16,4.62-2.85.45-.45.93-.87,1.35-.87.54,0,.65.11.37.45-.51.62-.87,1.13-1.41,1.86-.48.62-.82,1.1-1.66,2.2v.03c.68-.37,1.66-.96,2.68-1.72.73-.54,1.32-1.01,1.97-1.58.17-.14.31-.28.39-.2.06.06-.03.2-.37.51-.34.31-1.07.9-1.69,1.35-1.16.87-2.37,1.58-3.3,2.09-1.35,1.95-1.69,2.42-3.5,4.54-2.23,2.59-5.1,4.57-6.65,4.57-.59,0-1.27-.25-1.18-1.18.14-1.64,2.85-3.5,4.37-4.45,2.51-1.55,3.19-1.78,5.41-3.16.54-.73,2.34-3.24,2.34-3.24-1.16,1.16-2.57,1.97-3.78,2.06-1.61.14-2.82-.48-2.93-2.03-.08-1.18.56-2.82,1.78-4.31-.9-.59-1.55-1.55-1.55-2.68,0-2.23,2.09-3.52,4.4-3.52,1.27,0,2.56.39,3.5,1.38,1.66-.73,3.19-1.1,4.17-1.1s2.23.34,2.23,1.63c0,1.55-1.58,3.13-3.5,4.14Zm-12.09,11.19c-1.49.96-3.64,2.85-3.61,4.14,0,.48.25.68.65.73.45.06,1.04-.14,1.75-.56.96-.59,2.37-1.97,3.61-3.64,1.04-1.38,1.94-2.56,2.73-3.75-1.63,1.07-2.54,1.38-5.13,3.07Zm1.58-13.73c0,1.04.62,1.92,1.44,2.48.56-.65,1.58-1.69,2.51-2.4,1.07-.82,2.14-1.49,3.19-2-.93-.84-2.03-1.27-3.21-1.27-2,0-3.92,1.16-3.92,3.18Zm11.78-2.93c-1.01,0-2.34.37-3.83,1.24.31.45.56,1.1.65,1.52.11.56.06.82,0,.82-.08.03-.06-.23-.23-.7-.17-.54-.48-1.04-.82-1.41-.93.62-1.92,1.41-2.93,2.42-.68.68-1.3,1.44-1.8,2.2.73.23,1.55.34,2.34.34,1.58,0,3.3-.39,5.02-1.33,1.78-.93,3.5-2.68,3.5-3.83,0-1.04-1.04-1.27-1.89-1.27Z"/><path class="cls-1" d="m80.96,72.7c.59-.03.65.11.37.45-.37.42-.99,1.13-1.58,1.86-.37.45-.73.93-.99,1.38-.2.34-.2.56-.08.65.14.11.42,0,.65-.11.28-.14.82-.51,1.27-.87.59-.48,1.04-.87,1.35-1.16.17-.14.31-.28.39-.2.08.09-.06.23-.37.51-.37.34-1.04.93-1.58,1.35-.56.45-1.49,1.13-2.42,1.13-.54,0-.79-.25-.82-.59-.03-.31.14-.7.39-1.01l-.03-.03c-.73.65-2.03,1.58-3.1,1.63-.62.03-1.27-.23-1.16-1.13.06-.42.28-.87.79-1.47l-.03-.03c-.08.08-.2.2-.37.34-.11.08-.2.14-.25.08-.06-.08.08-.25.39-.54.08-.08.56-.48.85-.68.28-.2.76-.51,1.3-.79,1.1-.56,2.09-.9,2.82-.79.56.08.76.59.59,1.07.68-.7,1.16-1.07,1.61-1.07Zm-4.9,2.06c-1.16,1.13-1.63,1.86-1.58,2.23.03.2.17.28.37.28.54,0,1.61-.62,2.37-1.33.9-.79,1.92-2,1.95-2.45.03-.37-.2-.51-.51-.51-.56,0-1.58.76-2.59,1.78Z"/><path class="cls-1" d="m87.7,76.45c-1.16.87-2.31,1.18-3.24,1.21-.62,0-1.13-.08-1.13-.56.03-.54.76-.79,1.83-1.07.79-.2,1.66-.42,2.17-.65.28-.31.76-1.01.9-1.41.11-.31.2-.85-.28-.85-.51,0-1.44.48-2.45,1.27-1.24.96-2.06,1.78-3.13,2.85-.23.23-.51.37-.82.39-.56.03-.54-.14-.39-.45.25-.56.68-1.18,1.16-1.89.25-.37.51-.73.82-1.1h-.03c-.39.34-.76.68-1.01.9-.17.14-.25.17-.31.11-.06-.06,0-.14.14-.28.45-.39,1.16-1.04,1.8-1.58,1.01-1.3,2.14-2.73,3.44-4.23,1.61-1.92,5.05-5.44,6.54-6.51.76-.56,1.58-1.13,2.4-1.13.73,0,.96.51.87,1.01-.23,1.35-2.93,3.61-5.78,5.98-1.72,1.41-4.09,3.1-5.75,4.6-.48.59-1.89,2.59-1.89,2.59l.03.03c.82-.85,1.8-1.61,2.65-2.17.56-.37,1.66-.93,2.48-.82.62.06.96.42.87,1.07-.11.82-.76,1.83-1.89,2.68Zm-1.89.42c.48-.31.9-.68,1.3-1.18-.34.17-1.3.42-1.75.53-1.01.25-1.61.51-1.58.87.03.23.31.28.68.25.56-.06.99-.25,1.35-.48Zm5.13-8.71c2.71-2.42,5.22-4.59,5.33-5.84.03-.37-.17-.54-.48-.54-.48,0-1.24.56-1.83,1.13-.96.93-2.28,2.28-3.75,4.03-2.06,2.45-2.79,3.35-4.31,5.38,2.68-2.34,3.78-3.02,5.05-4.17Z"/><path class="cls-1" d="m95,73.46c0,.37-.68.96-1.3,1.69-.48.56-.82,1.04-.96,1.33-.14.25-.14.45-.03.54.11.09.31.06.62-.11.31-.17.82-.48,1.27-.85.62-.48.96-.76,1.33-1.1.2-.2.37-.28.42-.23.08.08-.11.25-.34.48-.34.31-.9.82-1.61,1.35-.59.45-1.58,1.13-2.51,1.13-.59,0-.9-.31-.87-.73.03-.62.73-1.41,1.35-2,.68-.65,1.75-1.41,1.83-1.61.11-.31-.42-.23-1.13-.23-.28,0-.51,0-.65-.06-.23.25-.62.65-1.07,1.07-.48.45-.82.76-1.13,1.04-.25.23-.37.28-.42.23-.06-.06.03-.2.31-.45.34-.31.59-.54,1.1-1.01.39-.37.76-.73.99-.99-.25-.17-.28-.56,0-.9.23-.28.62-.48,1.07-.48.23,0,.48.11.51.28-.2.14-.31.23-.48.39-.37.39-.28.59.08.62.79.03,1.61.06,1.61.56v.03Z"/><path class="cls-1" d="m97.05,74.33c-.42.34-.73.59-1.01.85-.23.2-.34.28-.42.23-.06-.06,0-.17.31-.45.31-.28,1.33-1.13,2-1.58.73-.51,1.1-.62,1.63-.62.59,0,.65.08.31.45-.51.56-.96,1.1-1.52,1.8-.48.59-.82,1.1-.99,1.38-.17.31-.2.51-.08.62.14.11.39.06.68-.08.28-.14.76-.45,1.24-.85.59-.48.85-.7,1.3-1.13.25-.23.37-.34.45-.25.08.09-.23.37-.31.45-.34.34-1.04.96-1.61,1.41-.56.45-1.52,1.16-2.45,1.16-.59,0-.85-.28-.85-.73,0-.37.2-.73.42-1.07.56-.87,1.66-2.03,2.11-2.42-.2.08-.79.51-1.21.85Zm5.16-5.38c.37,0,.54.31.2.73-.34.45-1.04.76-1.33.76-.14-.17-.17-.59-.03-.96.17-.42.59-.54,1.13-.54h.03Z"/><path class="cls-1" d="m104.78,76.31c.54-.37,1.18-.87,1.72-1.35.17-.14.25-.17.31-.11.06.08-.06.23-.23.37-.37.34-1.27,1.07-1.78,1.41-1.18.79-2.23,1.16-3.19,1.16-1.04,0-1.52-.39-1.49-1.13.03-.56.28-1.07.85-1.75l-.03-.03c-.08.08-.39.37-.56.51-.14.11-.23.14-.28.08-.06-.08.06-.2.17-.31.37-.34.62-.54,1.04-.85.31-.23.85-.56,1.38-.85.82-.42,1.66-.79,2.42-.79h.03c.62,0,.85.39.82.76-.06.73-.96,1.3-1.8,1.72-.82.39-1.78.73-2.42.9-.11.23-.17.48-.17.65,0,.42.23.65.65.65.37,0,1.32-.2,2.56-1.04Zm-.96-1.41c.7-.48,1.13-1.07,1.16-1.47.03-.25-.08-.39-.34-.39s-.68.28-1.24.82c-.45.42-1.16,1.33-1.49,1.89.56-.14,1.33-.45,1.92-.85Z"/><path class="cls-1" d="m107.85,74.05c-.42.37-.85.76-1.16,1.04-.17.14-.25.17-.31.09-.03-.09.06-.17.14-.25.11-.11,1.18-1.04,2.06-1.78.73-.93,2.11-2.65,3.33-4.03.96-1.13,2.11-2.37,3.35-3.5.34-.31.65-.48,1.01-.48.28,0,.42.11.42.2-.54.54-3.02,3.27-4.2,4.68-1.89,2.28-3.92,4.9-4.51,6.2-.08.2-.25.59-.06.76.2.14.62-.03.87-.17.37-.2.76-.48,1.16-.79.51-.39.87-.7,1.24-1.04.11-.11.34-.31.42-.23.06.06-.03.17-.2.34-.34.34-1.04.96-1.72,1.47-.56.42-1.61,1.13-2.54,1.13-.56,0-.9-.25-.87-.76.03-.68.73-1.78,1.58-2.85l-.03-.03Z"/><path class="cls-1" d="m118.39,72.7c.59-.03.65.11.37.45-.37.42-.99,1.13-1.58,1.86-.37.45-.73.93-.99,1.38-.2.34-.2.56-.08.65.14.11.42,0,.65-.11.28-.14.82-.51,1.27-.87.59-.48,1.04-.87,1.35-1.16.17-.14.31-.28.39-.2.08.09-.06.23-.37.51-.37.34-1.04.93-1.58,1.35-.56.45-1.49,1.13-2.42,1.13-.54,0-.79-.25-.82-.59-.03-.31.14-.7.39-1.01l-.03-.03c-.73.65-2.03,1.58-3.1,1.63-.62.03-1.27-.23-1.16-1.13.06-.42.28-.87.79-1.47l-.03-.03c-.08.08-.2.2-.37.34-.11.08-.2.14-.25.08-.06-.08.08-.25.39-.54.08-.08.56-.48.85-.68.28-.2.76-.51,1.3-.79,1.1-.56,2.09-.9,2.82-.79.56.08.76.59.59,1.07.68-.7,1.15-1.07,1.61-1.07Zm-4.9,2.06c-1.16,1.13-1.63,1.86-1.58,2.23.03.2.17.28.37.28.54,0,1.61-.62,2.37-1.33.9-.79,1.92-2,1.95-2.45.03-.37-.2-.51-.51-.51-.56,0-1.58.76-2.59,1.78Z"/><path class="cls-1" d="m126.06,78.37c-1.55,0-3.24-.42-3.33-2.03-.03-.93.68-1.92,1.69-1.92.65,0,1.13.39,1.07.96-.06.45-.34.73-.62.96-.25.25-.48.39-.54.7-.11.56.62.99,2.03.99,2.42,0,6.23-1.75,9.19-3.95,2.59-1.89,5.07-4.43,7.87-7.02-1.35-.25-3.13-.45-5.58-.45-3.07,0-6.03,1.16-6.57,3.69-.23,1.13.11,2.54,1.92,3.16.23.08.37.06.34.14-.03.08-.23.11-.54.03-1.63-.48-2.48-1.92-2.34-3.41.28-2.62,2.85-4.34,7.24-4.17,2.34.08,4.51.54,5.78.73.14-.14.34-.34.54-.51.25-.23.62-.54.9-.51.42.06.37.28-.03.73-.14.17-.25.28-.39.45.7.11,1.52.17,2.06.14.76-.03,1.92-.11,2.9-.51.96-.39,1.55-.85,1.89-1.3.37-.45.17-.62.31-.68.2-.06.23.39.09.71-.17.37-.42.76-1.07,1.41-1.35,1.41-3.38,3.61-4.71,5.27-1.47,1.83-2.99,3.83-3.02,4.88,0,.23.14.37.37.37.45,0,1.24-.42,2.14-1.16.56-.45,1.04-.87,1.35-1.16.14-.11.25-.23.34-.14.06.08-.06.2-.25.39-.37.34-.87.79-1.58,1.35-.56.45-1.52,1.1-2.31,1.13-.71.03-1.24-.23-1.27-1.04-.03-1.01.87-2.34,2.09-3.89,1.13-1.47,3.24-3.78,4.68-4.99h-.03c-1.89,1.41-3.81,2.99-5.67,4.6-2.14,1.86-3.78,3.33-5.38,4.85-.34.31-.48.54-.73.37-.23-.2-.08-.54.08-.76,1.63-2.28,4.45-7.02,5.98-8.91h-.03c-1.04,1.01-4.71,4.65-7.22,6.48-2.79,2.09-6.68,4-9.61,4h-.03Zm18.94-8.09c1.55-1.27,2.9-2.31,4.37-3.33v-.03c-.82.31-1.86.42-2.71.45-.65,0-1.46-.06-2.17-.14-1.38,1.97-3.41,5.75-4.79,7.58,1.1-.99,3.36-2.96,5.3-4.54Z"/><path class="cls-1" d="m148.1,74.33c-.42.34-.73.59-1.02.85-.23.2-.34.28-.42.23-.06-.06,0-.17.31-.45.31-.28,1.33-1.13,2-1.58.73-.51,1.1-.62,1.64-.62.59,0,.65.08.31.45-.51.56-.96,1.1-1.52,1.8-.48.59-.82,1.1-.99,1.38-.17.31-.2.51-.09.62.14.11.39.06.68-.08.28-.14.76-.45,1.24-.85.59-.48.84-.7,1.3-1.13.25-.23.37-.34.45-.25.08.09-.23.37-.31.45-.34.34-1.04.96-1.61,1.41-.56.45-1.52,1.16-2.45,1.16-.59,0-.85-.28-.85-.73,0-.37.2-.73.42-1.07.56-.87,1.66-2.03,2.11-2.42-.2.08-.79.51-1.21.85Zm5.16-5.38c.37,0,.54.31.2.73-.34.45-1.04.76-1.32.76-.14-.17-.17-.59-.03-.96.17-.42.59-.54,1.13-.54h.03Z"/><path class="cls-1" d="m156.19,76.31c.79-.48,1.38-.99,1.86-1.41.14-.11.28-.25.37-.17.06.06-.06.23-.31.45-.28.25-.82.7-1.44,1.13-.62.42-1.24.73-1.78.96-.51.23-1.52.51-2.37.51-1.49,0-1.8-.9-1.69-1.69.11-.82.76-1.49,1.44-1.47.39.03.59.31.54.62-.06.28-.25.51-.62.7-.25.14-.62.45-.65.85-.03.45.31.7.82.7.56,0,1.27-.45,1.89-1.52.51-.82,1.01-2.51,1.33-2.88v-.03c-.28.28-.87.73-1.35,1.07-.39.28-.85.56-1.07.68-.11.06-.23.11-.28.03-.03-.08,0-.14.14-.23.28-.17.73-.45,1.18-.79.51-.37,1.01-.79,1.66-1.35.06-.11.25-.34.45-.48.31-.23.62-.31.82-.31.65,0,.23.37-.14.59-.25.17-.54.28-.68.42-.23.23-.2.45-.2.76.03.79.09,1.52-.25,2.31-.17.39-.56.93-.9,1.16.31-.11.79-.34,1.24-.62Z"/><path class="cls-1" d="m158.16,75.12c-.2.17-.28.2-.34.14-.06-.06,0-.17.2-.34.76-.68,1.52-1.35,2.06-1.83-.37,0-.68.03-1.01.03-.2,0-.34,0-.31-.14.03-.11.31-.14.76-.17.37-.03.68-.03.79-.03.87-1.07,2-2.31,2.65-2.93.51-.51,1.18-1.16,1.78-1.16.28,0,.39.08.42.17-.34.31-1.07,1.1-1.72,1.83-.65.73-1.16,1.35-1.72,2.09.65-.03,1.16-.03,1.61-.03.23,0,.42.03.39.17-.03.17-.28.14-.51.14-.62,0-1.07,0-1.72.03-.56.68-1.52,2.11-2.03,3.1-.17.31-.25.7-.03.82.17.09.48,0,.7-.11.34-.17.82-.48,1.27-.85.51-.39.99-.85,1.33-1.13.14-.11.31-.28.39-.2.06.06,0,.14-.2.34-.31.31-1.13,1.04-1.72,1.49-.51.39-1.52,1.16-2.59,1.16-.65,0-.87-.37-.85-.79.06-.71.7-1.72,1.52-2.79-.45.37-.79.68-1.13.99Z"/><path class="cls-1" d="m167.58,73.46c0,.37-.68.96-1.3,1.69-.48.56-.82,1.04-.96,1.33-.14.25-.14.45-.03.54.11.09.31.06.62-.11.31-.17.82-.48,1.27-.85.62-.48.96-.76,1.33-1.1.2-.2.37-.28.42-.23.08.08-.11.25-.34.48-.34.31-.9.82-1.61,1.35-.59.45-1.58,1.13-2.51,1.13-.59,0-.9-.31-.87-.73.03-.62.73-1.41,1.35-2,.68-.65,1.75-1.41,1.83-1.61.11-.31-.42-.23-1.13-.23-.28,0-.51,0-.65-.06-.23.25-.62.65-1.07,1.07-.48.45-.82.76-1.13,1.04-.25.23-.37.28-.42.23-.06-.06.03-.2.31-.45.34-.31.59-.54,1.1-1.01.39-.37.76-.73.99-.99-.25-.17-.28-.56,0-.9.23-.28.62-.48,1.07-.48.23,0,.48.11.51.28-.2.14-.31.23-.48.39-.37.39-.28.59.08.62.79.03,1.61.06,1.61.56v.03Z"/><path class="cls-1" d="m175.67,72.7c.59-.03.65.11.37.45-.37.42-.99,1.13-1.58,1.86-.37.45-.73.93-.99,1.38-.2.34-.2.56-.08.65.14.11.42,0,.65-.11.28-.14.82-.51,1.27-.87.59-.48,1.04-.87,1.35-1.16.17-.14.31-.28.39-.2.08.09-.06.23-.37.51-.37.34-1.04.93-1.58,1.35-.56.45-1.49,1.13-2.42,1.13-.54,0-.79-.25-.82-.59-.03-.31.14-.7.39-1.01l-.03-.03c-.73.65-2.03,1.58-3.1,1.63-.62.03-1.27-.23-1.16-1.13.06-.42.28-.87.79-1.47l-.03-.03c-.08.08-.2.2-.37.34-.11.08-.2.14-.25.08-.06-.08.08-.25.39-.54.08-.08.56-.48.85-.68.28-.2.76-.51,1.3-.79,1.1-.56,2.09-.9,2.82-.79.56.08.76.59.59,1.07.68-.7,1.16-1.07,1.61-1.07Zm-4.9,2.06c-1.16,1.13-1.63,1.86-1.58,2.23.03.2.17.28.37.28.54,0,1.61-.62,2.37-1.33.9-.79,1.92-2,1.95-2.45.03-.37-.2-.51-.51-.51-.56,0-1.58.76-2.59,1.78Z"/><path class="cls-1" d="m177.95,74.05c-.42.37-.85.76-1.16,1.04-.17.14-.25.17-.31.09-.03-.09.06-.17.14-.25.11-.11,1.18-1.04,2.06-1.78.73-.93,2.11-2.65,3.33-4.03.96-1.13,2.11-2.37,3.35-3.5.34-.31.65-.48,1.02-.48.28,0,.42.11.42.2-.54.54-3.02,3.27-4.2,4.68-1.89,2.28-3.92,4.9-4.51,6.2-.09.2-.25.59-.06.76.2.14.62-.03.87-.17.37-.2.76-.48,1.16-.79.51-.39.87-.7,1.24-1.04.11-.11.34-.31.42-.23.06.06-.03.17-.2.34-.34.34-1.04.96-1.72,1.47-.56.42-1.61,1.13-2.54,1.13-.56,0-.9-.25-.87-.76.03-.68.73-1.78,1.58-2.85l-.03-.03Z"/><path class="cls-1" d="m126.34,41.2l-.29-.89-4.1-13.54-4.1,13.54-14.15-.28,11.61,8.09,2.15,1.56c3.31-3.99,5.63-6.73,8.88-8.47Zm3.21,9.69c-1.66,1.12-3.72,2.16-6.18,3.11l9.86,7.47-3.68-10.59Z"/><path class="cls-1" d="m132.9,43.57c4.25-.55,5.4-2.62,7.74-3.65-14.81,0-16.23,3.39-24.55,13.27-.22.26-1.61,1.88-3.1,3.61h1.61l1.45-1.53s3.2-1.07,4.88-1.64c5.77-1.95,9.13-4.13,10.86-6.3-2.99.76-5.04.1-5.04.1,5.36,0,7.41-1.92,9.07-4.04-2.12.48-2.92.18-2.92.18Z"/><path class="cls-1" d="m108.96,61.48l3.35-2.25,1.72-1.82h-1.56c-1.76,2.05-3.51,4.08-3.51,4.08Z"/><path class="cls-1" d="m100.38,83.94s.06,0,.09.01c.03,0,.04.04.03.09-.01.11-.02.24-.01.39,0,.14,0,.28.02.4,0,.02,0,.03-.03.04-.02.01-.04.02-.06.02-.02,0-.05,0-.07-.01-.02,0-.03-.02-.04-.04-.03-.15-.05-.27-.08-.35s-.06-.15-.11-.19c-.05-.04-.11-.07-.2-.08-.08-.01-.19-.02-.32-.02h-.34c-.1,0-.18,0-.24,0-.06,0-.11.02-.14.04-.03.02-.06.06-.07.12-.01.05-.02.13-.02.22v1c0,.05,0,.09.03.1.02.01.04.02.06.02.18,0,.31,0,.42-.02.1-.02.18-.04.23-.08.05-.04.09-.09.1-.16.02-.07.03-.15.04-.25,0-.02.02-.04.03-.05.02-.01.04-.02.06-.02s.04,0,.06.02c.02.01.03.03.03.05,0,.06,0,.12,0,.16,0,.05,0,.1-.01.14,0,.05,0,.1-.01.15,0,.05,0,.11,0,.18,0,.12,0,.22.02.31.01.09.02.21.02.34,0,.02-.01.03-.03.04-.02,0-.04.01-.06.01-.02,0-.04,0-.06-.02-.02,0-.03-.03-.03-.05-.01-.11-.03-.2-.04-.27-.02-.07-.05-.12-.1-.16-.05-.04-.13-.06-.23-.07-.1-.01-.24-.02-.42-.02-.02,0-.04,0-.06.02-.02.01-.03.04-.03.08v.96c0,.13.01.23.03.31.02.08.06.14.11.18.05.04.12.07.2.09.08.02.19.03.32.04.03,0,.05.01.06.03.01.02.02.04.02.07,0,.02,0,.04-.02.06-.01.02-.03.03-.06.03-.21,0-.38,0-.53-.02-.15-.01-.29-.02-.43-.02-.15,0-.29,0-.43.02-.14.02-.28.02-.41.02-.02,0-.04,0-.05-.03-.01-.02-.02-.04-.02-.06,0-.02,0-.05.01-.07.01-.02.03-.03.06-.04.11-.01.19-.03.26-.05.07-.02.12-.05.16-.09.04-.04.06-.1.08-.17.01-.07.02-.16.02-.28v-2.16c0-.08,0-.17,0-.25,0-.08-.02-.16-.04-.22-.02-.07-.05-.13-.09-.18-.04-.05-.09-.08-.16-.1-.04-.01-.09-.02-.13-.03-.05,0-.09-.01-.13-.02-.02,0-.04-.01-.05-.03-.01-.02-.02-.04-.02-.06,0-.02,0-.04.02-.06.01-.02.03-.03.05-.03.13,0,.25,0,.35.01.1,0,.22.01.36.01h2.06Z"/><path class="cls-1" d="m103.9,87.85c-.6,0-1.07-.17-1.41-.51-.34-.34-.51-.85-.51-1.53,0-.29.05-.56.14-.8.1-.24.23-.45.4-.63.17-.18.37-.31.61-.41.24-.1.5-.15.79-.15s.53.05.77.14c.23.09.43.23.6.4.17.17.3.38.39.62.09.24.14.51.14.81,0,.33-.05.63-.15.88-.1.25-.24.47-.41.64-.17.17-.38.31-.61.4-.23.09-.48.14-.75.14Zm.02-.24c.19,0,.35-.05.49-.15.14-.1.26-.23.36-.39.1-.16.17-.35.23-.56.05-.21.08-.43.08-.66s-.02-.44-.06-.65c-.04-.21-.11-.4-.2-.57-.09-.17-.21-.3-.37-.4-.15-.1-.34-.15-.56-.15-.21,0-.38.05-.53.15-.15.1-.27.24-.37.4-.1.17-.17.36-.21.57-.05.21-.07.43-.07.64,0,.23.02.45.06.66.04.21.1.4.19.56.09.16.21.29.37.39.15.1.35.15.59.15Z"/><path class="cls-1" d="m111.05,86.28c0,.25-.03.47-.08.67-.06.2-.14.36-.26.5-.12.14-.28.24-.47.31-.2.07-.43.11-.71.11s-.5-.03-.7-.08c-.2-.05-.36-.14-.49-.25-.13-.12-.22-.27-.28-.45-.06-.18-.09-.41-.09-.67v-1.6c0-.12,0-.22-.02-.3-.01-.08-.04-.15-.08-.21-.04-.05-.09-.09-.16-.12-.07-.03-.17-.05-.28-.05-.02,0-.04-.01-.05-.03-.01-.02-.02-.04-.02-.07s0-.05.02-.06c.01-.02.03-.03.05-.03.12,0,.26,0,.42.02.16.01.3.02.44.02.08,0,.16,0,.23,0,.07,0,.14,0,.21-.01.07,0,.13-.01.2-.01s.14,0,.22,0c.02,0,.04,0,.05.03,0,.02.01.04.01.06,0,.02,0,.05-.02.07-.01.02-.03.03-.05.03-.12,0-.21.02-.29.05-.07.02-.13.06-.17.11-.04.05-.06.12-.07.2-.01.08-.02.19-.02.32v1.57c0,.16.02.31.06.46.04.15.11.27.19.38.09.11.19.2.32.26.13.07.28.1.46.1.37,0,.65-.1.85-.31.19-.2.29-.53.29-.97v-1.19c0-.09,0-.18,0-.27,0-.09,0-.18-.02-.26,0-.08-.02-.15-.03-.19-.02-.06-.04-.11-.06-.15-.02-.03-.05-.06-.08-.07-.03-.02-.07-.02-.11-.03-.05,0-.1,0-.17-.01-.02,0-.03-.01-.04-.03,0-.02-.01-.04-.01-.07s0-.05.01-.06c0-.02.02-.03.05-.03.09,0,.19,0,.29.02.1.01.21.02.32.02.1,0,.2,0,.3-.02.1-.01.21-.02.33-.02.02,0,.04,0,.05.03.01.02.02.04.02.06s0,.05-.02.07c-.01.02-.03.03-.05.03-.07,0-.12.01-.16.01-.04,0-.07.01-.1.03-.03.02-.05.04-.07.07-.02.03-.05.08-.07.15-.02.05-.03.11-.04.19-.01.08-.02.16-.02.25,0,.09,0,.18,0,.27,0,.09,0,.17,0,.24v.95Z"/><path class="cls-1" d="m113.61,84.56c0-.13-.04-.23-.12-.31-.08-.08-.21-.13-.41-.15-.02,0-.03-.01-.04-.03-.01-.02-.01-.04-.01-.07s0-.04.01-.06c0-.02.03-.03.05-.03h.22c.1,0,.2,0,.3,0,.1,0,.2.01.28.03.08.01.13.03.15.05l2.31,2.75c.05.05.07.04.07-.03v-1.63c0-.09,0-.18,0-.27,0-.09,0-.17-.01-.26,0-.08-.02-.14-.03-.19-.02-.06-.04-.1-.06-.13-.02-.03-.05-.06-.08-.07-.03-.02-.07-.03-.12-.03-.05,0-.11-.01-.17-.02-.02,0-.03-.01-.04-.03,0-.02-.01-.04-.01-.07s0-.04.01-.06c0-.02.02-.03.05-.03.09,0,.19,0,.3.02.1.01.21.02.32.02.1,0,.2,0,.29-.02.1-.01.21-.02.33-.02.02,0,.04,0,.05.03.01.02.02.04.02.06s0,.05-.02.07c-.01.02-.03.03-.05.03-.07,0-.12.01-.16.02-.04,0-.07.01-.1.03-.03.02-.05.04-.08.07-.02.03-.05.08-.07.15-.02.05-.03.11-.04.19-.01.08-.02.17-.03.26,0,.09,0,.18,0,.28v2.72s-.01.02-.03.03c-.02,0-.05.01-.07.01-.03,0-.06,0-.08,0-.03,0-.04-.01-.05-.02l-2.47-2.92s-.05-.05-.07-.05c-.02,0-.02.03-.02.08v2.09c0,.14.01.25.03.32.02.08.05.13.1.17.04.04.1.06.16.08.07.01.14.03.23.04.02,0,.04.02.05.03.01.02.02.04.01.06,0,.02,0,.04-.02.06-.01.02-.03.03-.05.03-.08,0-.18,0-.28-.02-.1-.01-.22-.02-.36-.02-.15,0-.27,0-.39.02-.11.01-.21.02-.28.02-.02,0-.03,0-.05-.03-.01-.02-.02-.04-.02-.06,0-.02,0-.04.01-.06.01-.02.03-.03.05-.03.1-.01.18-.02.25-.04.07-.01.12-.04.16-.08.04-.04.07-.09.09-.17.02-.08.03-.18.03-.32v-2.47Z"/><path class="cls-1" d="m119.32,84.9c0-.08,0-.17,0-.25,0-.08-.02-.16-.04-.22-.02-.07-.05-.13-.09-.18-.04-.05-.1-.08-.16-.1-.04-.01-.09-.02-.13-.03-.05,0-.09-.01-.13-.02-.02,0-.04,0-.05-.03-.01-.02-.02-.04-.02-.06s0-.04.02-.06c.01-.02.03-.03.05-.03.13,0,.25,0,.35.01.1,0,.22.01.36.01.16,0,.31,0,.46,0,.15,0,.31-.01.46-.02.31,0,.6.05.87.15.27.1.49.24.68.42.19.18.34.39.45.64.11.25.16.52.16.81,0,.32-.05.6-.15.84-.1.24-.24.43-.43.59-.18.16-.39.28-.64.35-.25.08-.51.12-.8.12-.17,0-.34,0-.5-.02-.16-.01-.31-.02-.44-.02-.08,0-.15,0-.22,0-.06,0-.13,0-.19,0-.06,0-.12,0-.19.02-.06,0-.13.02-.21.02-.02,0-.04,0-.05-.02-.01-.02-.02-.04-.03-.06,0-.02,0-.05.01-.07.01-.02.04-.04.07-.04.09-.01.17-.03.24-.05.06-.02.12-.05.16-.09.04-.04.07-.09.09-.15.02-.06.03-.14.03-.24v-2.21Zm.63,1.81c0,.19,0,.34.03.46.02.11.05.2.1.26.05.06.12.09.22.11.09.02.22.03.37.03.17,0,.33-.04.47-.11.14-.07.27-.18.37-.32.1-.14.18-.31.24-.51.06-.2.09-.44.09-.7,0-.28-.03-.53-.09-.74-.06-.22-.15-.4-.28-.54-.13-.15-.3-.26-.52-.33-.22-.07-.48-.11-.79-.11-.08,0-.13.01-.16.04-.03.03-.05.08-.05.15v2.33Z"/><path class="cls-1" d="m125.27,86.44c-.05,0-.09,0-.11.03-.02.02-.05.05-.06.09l-.26.67c-.02.06-.03.1-.03.13,0,.05.01.09.04.12.02.03.06.06.1.08.04.02.09.03.14.05.05.01.11.02.17.02.03,0,.05.01.06.03s.02.04.02.07,0,.04-.02.07c-.01.02-.03.03-.06.03-.09,0-.2,0-.32-.02-.12-.02-.23-.02-.34-.02-.1,0-.2,0-.29.02-.09.02-.19.02-.3.02-.02,0-.04,0-.05-.03-.01-.02-.02-.04-.02-.06,0-.02,0-.04.01-.07,0-.02.03-.03.06-.04h.09c.06-.02.11-.04.16-.05.05-.02.09-.04.13-.08.04-.04.08-.09.12-.15.04-.06.08-.14.11-.24l1.3-3.26s.04-.05.09-.05c.05,0,.1.02.13.05.1.24.2.51.31.78.11.28.22.56.33.85.12.29.23.57.34.86.11.28.22.55.33.8.05.11.09.2.14.26.04.06.09.11.13.14.04.03.09.05.14.06.05.01.1.02.15.03.02,0,.04.02.05.04,0,.02.01.04.01.07s0,.04-.01.06c-.01.02-.02.03-.04.03-.12,0-.24,0-.35-.02-.11-.02-.24-.02-.38-.02-.16,0-.31,0-.45.02-.14.02-.28.02-.41.02-.03,0-.05-.01-.06-.03-.01-.02-.02-.04-.02-.07,0-.02,0-.04.02-.06.01-.02.03-.03.06-.03.13-.02.23-.04.29-.07.06-.03.09-.09.09-.19,0-.03,0-.06,0-.09,0-.03-.02-.08-.04-.14-.02-.06-.05-.14-.08-.23-.04-.09-.08-.21-.14-.36-.02-.05-.05-.08-.08-.09-.03-.01-.09-.02-.16-.02h-1.01Zm.99-.22c.05,0,.09,0,.11-.03.02-.02.02-.05,0-.09l-.5-1.34s-.02-.03-.05-.03-.04.01-.05.03l-.52,1.34s-.02.08,0,.1c.02.02.04.02.09.02h.92Z"/><path class="cls-1" d="m130.97,87.05c0,.13,0,.22.02.3.01.07.04.12.08.16.04.04.1.07.17.08.07.02.17.03.29.04.02,0,.04.02.05.04.01.02.02.04.02.07s0,.04-.02.06c-.01.02-.03.03-.06.03-.15,0-.3,0-.44-.02-.14-.01-.28-.02-.42-.02s-.3,0-.45.02c-.16.02-.29.02-.42.02-.02,0-.04,0-.05-.03-.01-.02-.02-.04-.02-.06s0-.05.02-.07c.01-.02.03-.03.05-.04.12-.01.21-.03.28-.04.07-.02.13-.05.17-.08.04-.04.07-.09.08-.16.01-.07.02-.17.02-.3v-2.54c0-.14-.04-.23-.11-.27-.07-.04-.19-.05-.36-.05-.14,0-.26.01-.35.03-.09.02-.17.06-.23.11-.06.06-.11.13-.14.23s-.07.22-.1.37c0,.02-.02.04-.04.05-.02,0-.04.01-.06,0-.02,0-.04,0-.06-.02-.02-.01-.03-.03-.03-.04.02-.14.02-.29.03-.43,0-.15,0-.29-.03-.44,0-.04.03-.07.08-.09.05-.02.11-.02.18-.02h3.07c.07,0,.13,0,.18.02.05.01.07.04.07.08,0,.05-.01.1-.02.17,0,.07,0,.14,0,.22s0,.16,0,.25c0,.08.01.16.02.24,0,.02,0,.03-.03.04-.02.01-.04.02-.06.02-.02,0-.05,0-.07,0-.02,0-.03-.02-.04-.05-.02-.15-.05-.28-.09-.38-.04-.1-.09-.17-.15-.23-.06-.06-.14-.09-.23-.11-.09-.02-.2-.03-.33-.03-.17,0-.3.02-.37.05-.08.04-.12.12-.12.27v2.54Z"/><path class="cls-1" d="m134.42,84.8c0-.12,0-.22-.02-.3-.01-.08-.04-.15-.08-.21-.04-.05-.09-.1-.16-.12-.07-.03-.17-.05-.28-.06-.02,0-.04-.01-.05-.03-.01-.02-.02-.04-.02-.06s0-.04.02-.06c.01-.02.03-.03.05-.03.12,0,.26,0,.42.02.16.01.3.02.44.02.08,0,.16,0,.23,0,.07,0,.14,0,.21-.01.07,0,.14,0,.2-.01.07,0,.14,0,.22,0,.02,0,.04,0,.05.03,0,.02.01.04.01.06,0,.02,0,.04-.02.06-.01.02-.03.03-.05.03-.12,0-.21.02-.29.05-.07.02-.13.06-.17.11-.04.05-.06.12-.07.2-.01.08-.02.19-.02.32v2.25c0,.13,0,.22.02.3.02.07.04.12.08.16.04.04.1.07.17.08.07.02.17.03.28.04.02,0,.04.02.05.04.01.02.02.04.02.07s0,.04-.02.06c-.01.02-.03.03-.06.03-.15,0-.3,0-.44-.02-.14-.01-.28-.02-.42-.02-.15,0-.3,0-.45.02-.16.02-.29.02-.42.02-.02,0-.04,0-.05-.03-.01-.02-.02-.04-.02-.06s0-.05.02-.07c.01-.02.03-.03.05-.04.12-.01.21-.03.28-.04.07-.02.13-.05.17-.08.04-.04.07-.09.08-.16.01-.07.02-.17.02-.3v-2.25Z"/><path class="cls-1" d="m139.12,87.85c-.6,0-1.07-.17-1.41-.51-.34-.34-.51-.85-.51-1.53,0-.29.05-.56.14-.8.1-.24.23-.45.4-.63.17-.18.37-.31.61-.41.24-.1.5-.15.78-.15s.53.05.77.14c.23.09.43.23.6.4.17.17.3.38.39.62.09.24.14.51.14.81,0,.33-.05.63-.15.88-.1.25-.24.47-.41.64-.17.17-.38.31-.61.4-.23.09-.48.14-.75.14Zm.02-.24c.19,0,.35-.05.49-.15.14-.1.26-.23.36-.39.1-.16.17-.35.23-.56.05-.21.08-.43.08-.66s-.02-.44-.06-.65c-.04-.21-.11-.4-.2-.57-.09-.17-.21-.3-.37-.4-.15-.1-.34-.15-.56-.15-.21,0-.38.05-.53.15-.15.1-.27.24-.37.4-.1.17-.17.36-.21.57-.05.21-.07.43-.07.64,0,.23.02.45.06.66.04.21.1.4.19.56.09.16.21.29.37.39.16.1.35.15.59.15Z"/><path class="cls-1" d="m143.16,84.56c0-.13-.04-.23-.12-.31-.08-.08-.22-.13-.41-.15-.02,0-.03-.01-.04-.03-.01-.02-.01-.04-.01-.07s0-.04.01-.06c.01-.02.03-.03.05-.03h.22c.1,0,.2,0,.3,0,.1,0,.2.01.28.03.08.01.13.03.15.05l2.31,2.75c.05.05.07.04.07-.03v-1.63c0-.09,0-.18,0-.27,0-.09,0-.17-.01-.26,0-.08-.02-.14-.03-.19-.02-.06-.04-.1-.06-.13-.02-.03-.05-.06-.08-.07-.03-.02-.07-.03-.12-.03-.05,0-.1-.01-.17-.02-.02,0-.03-.01-.04-.03-.01-.02-.01-.04-.01-.07s0-.04.01-.06c0-.02.02-.03.05-.03.09,0,.19,0,.3.02.1.01.21.02.32.02.1,0,.2,0,.29-.02.1-.01.21-.02.33-.02.02,0,.04,0,.05.03.01.02.02.04.02.06s0,.05-.02.07c-.01.02-.03.03-.05.03-.07,0-.12.01-.16.02-.04,0-.07.01-.1.03-.03.02-.05.04-.08.07-.02.03-.05.08-.07.15-.02.05-.03.11-.05.19-.01.08-.02.17-.03.26,0,.09,0,.18,0,.28v2.72s-.01.02-.03.03c-.02,0-.05.01-.07.01-.03,0-.06,0-.08,0-.03,0-.04-.01-.05-.02l-2.47-2.92s-.05-.05-.07-.05c-.02,0-.02.03-.02.08v2.09c0,.14.01.25.03.32.02.08.05.13.1.17.04.04.1.06.16.08.07.01.14.03.23.04.02,0,.04.02.05.03.01.02.02.04.01.06,0,.02,0,.04-.02.06-.01.02-.03.03-.05.03-.08,0-.18,0-.28-.02-.1-.01-.22-.02-.36-.02-.15,0-.28,0-.39.02-.11.01-.21.02-.28.02-.02,0-.04,0-.05-.03-.01-.02-.02-.04-.02-.06,0-.02,0-.04.01-.06.01-.02.03-.03.05-.03.1-.01.18-.02.25-.04.07-.01.12-.04.16-.08.04-.04.07-.09.09-.17.02-.08.03-.18.03-.32v-2.47Z"/></svg>