<?xml version="1.0" encoding="utf-8"?>
<!-- Generator: Adobe Illustrator 27.3.1, SVG Export Plug-In . SVG Version: 6.00 Build 0)  -->
<svg version="1.1" id="Layer_1" xmlns="http://www.w3.org/2000/svg" xmlns:xlink="http://www.w3.org/1999/xlink" x="0px" y="0px"
	 viewBox="0 0 246.5 123.7" style="enable-background:new 0 0 246.5 123.7;" xml:space="preserve">
<style type="text/css">
	.st0{fill:#A7A9AC;}
</style>
<g>
	<g>
		<g>
			<path class="st0" d="M74.7,64.3c1.4-4.9,1.2-7.8-1.1-11.8c-3-5.2-11.3-6.8-15.4-8.9c-1.5-0.8-1.9-1.4-2.3-1.2
				c1.3,1.6,2.4,2.6,4,3.8C61.7,47.5,70.6,53.9,74.7,64.3"/>
			<path class="st0" d="M75,73.5c0.9-2.6-0.2-5.3-0.7-6.7C73,63.2,69,54.2,59.8,46.1c0,0,0,0,0.1,0.1c-1.5-1.2-2.7-2.2-4-3.8
				c0,0,0,0,0,0c-0.3,0.7,0.9,1.5,1.7,4.4c1.5,5.7-0.4,11.5,11.3,16.8c4.9,2.2,5.6,5.6,4.8,8.1c0.3,0.3,0.6,0.6,0.8,1
				C74.7,72.9,74.9,73.2,75,73.5"/>
		</g>
		<g>
			<path class="st0" d="M149.7,67.1h3.5v-13h-3.5V67.1z M149.7,50.2h3.5v-2.7h-3.5V50.2z"/>
			<path class="st0" d="M163.2,58.1c0,2.4,1.5,3.4,4.1,3.7l2.2,0.2c1.1,0.1,1.5,0.6,1.5,1.2c0,1-1.3,1.3-2.5,1.3
				c-1.1,0-3.1-0.1-4.3-1.2l-1.2,2.8c1.8,1.2,3.2,1.2,5.4,1.2c3.3,0,5.9-1.4,5.9-4.3c0-2.2-1.4-3.6-4.1-3.8L168,59
				c-1.2-0.1-1.4-0.7-1.4-1.1c0-0.6,0.6-1.2,2-1.2c1.2,0,2.8,0.2,3.6,0.9l1.3-2.4c-1.6-0.9-2.6-1.1-4.8-1.1
				C165.7,53.9,163.2,55.4,163.2,58.1"/>
			<path class="st0" d="M176.2,49.6v4.9h-1.5v2.5h1.5v6.5c0,1.9,1.2,3.7,4,3.7h1.9v-2.8h-1.3c-0.8,0-1.2-0.4-1.2-1.2v-6.3h2.4v-2.5
				h-2.4v-4.9H176.2z"/>
			<path class="st0" d="M162.6,53.9c-1.5,0-2.8,0.6-3.5,1.4v-1.2h-3.4v13h3.5v-7.9c0-1.7,1.2-2.4,2.2-2.4c0.4,0,0.8,0,1.1,0.1l0.8-3
				c-0.1,0-0.2,0-0.4,0C162.9,53.9,162.8,53.9,162.6,53.9"/>
			<path class="st0" d="M146.1,47.5c-2.8,0-4.1,1.9-4.1,3.7v3.2h-1.4c0,1,0,1.8,0,2.3v0.1h1.4v10.2h3.5V56.9h2.6v-2.5h-2.6v-3
				c0-0.7,0.4-1.2,1.2-1.2h1.4v-2.8H146.1z"/>
			<path class="st0" d="M81,67.1l0-8.3c0-2.3,1.2-3.5,3.5-3.5c2.3,0,3.4,1.2,3.4,3.5v8.3h1.7v-8.5c0-1.5-0.5-2.7-1.3-3.5
				c-0.9-0.8-2.1-1.3-3.6-1.3c-1.5,0-2.7,0.5-3.7,1.4v-7.8l-1.7,0l0,19.7H81z"/>
			<path class="st0" d="M112.7,67.1h1.7l0-0.8v-8.2c0-1.3-0.4-2.4-1.3-3.1c-0.9-0.7-2.2-1.1-3.9-1.1c-2.2,0-3.6,0.5-4.7,2l-0.1,0.1
				l1.2,1l0.1-0.1c0.8-1.1,1.7-1.5,3.5-1.5c2.6,0,3.5,1,3.5,2.9v1.3h-4.1c-1.4,0-2.6,0.3-3.4,1c-0.8,0.6-1.3,1.6-1.3,2.8
				c0,1,0.3,2.1,1,2.7c0.9,0.9,2,1.2,3.9,1.2c1.7,0,2.8-0.3,3.8-1.2V67.1z M112,64.8c-0.9,0.8-2,0.9-3.1,0.9c-2.4,0-3.2-0.9-3.3-2.4
				c0-1.6,1-2.3,3.2-2.4h3.9v1.5C112.7,63.5,112.4,64.4,112,64.8"/>
			<path class="st0" d="M130.5,67.1v-8.3c0-2.3,1.2-3.5,3.5-3.5c2.3,0,3.4,1.2,3.4,3.5v8.3h1.7v-8.6c0-1.5-0.5-2.7-1.3-3.5
				c-0.9-0.8-2.1-1.3-3.6-1.3c-1.5,0-2.7,0.5-3.7,1.4v-7.8h-1.7V67v0.1H130.5z"/>
			<path class="st0" d="M126.7,65.7H126c-1.3,0-1.8-0.6-1.9-1.9v-8.2h2.9v-1.3h-2.9v-5.7h-1.7v5.7h-1.8v1.3h1.8v8.2
				c0,1,0.3,1.8,0.8,2.4c0.6,0.6,1.4,1,2.4,1h0.9V65.7z"/>
			<path class="st0" d="M100.8,64.3C100.8,64.3,100.8,64.3,100.8,64.3L100.8,64.3L100.8,64.3L100.8,64.3c-1.1,1-2,1.4-3.4,1.4
				c-2.7,0-4-1.6-4.1-4.7h9.1v-0.8c0-2-0.5-3.6-1.4-4.7c-0.9-1.1-2.3-1.7-3.9-1.7c-1.7,0-3,0.6-3.9,1.8c-0.9,1.1-1.4,2.8-1.4,4.9
				c0,2.1,0.5,3.8,1.5,5c1,1.1,2.4,1.7,4.2,1.7h0c2,0,3.2-0.6,4.4-1.7L100.8,64.3z M93.7,57.4c0.5-1.3,1.8-2,3.2-2
				c1.5,0,2.7,0.8,3.2,2c0.3,0.7,0.4,1.1,0.4,2.2h-7.4C93.4,58.4,93.5,58.1,93.7,57.4"/>
			<rect x="117.3" y="47.4" class="st0" width="1.7" height="19.7"/>
			<path class="st0" d="M183.9,49c0.2,0,0.4,0.1,0.6,0.2c0.2,0.1,0.4,0.3,0.5,0.5c0.1,0.2,0.2,0.4,0.2,0.7c0,0.2-0.1,0.4-0.2,0.6
				c-0.1,0.2-0.3,0.4-0.5,0.5c-0.2,0.1-0.4,0.2-0.6,0.2c-0.2,0-0.4-0.1-0.7-0.2c-0.2-0.1-0.4-0.3-0.5-0.5c-0.1-0.2-0.2-0.4-0.2-0.6
				c0-0.2,0.1-0.4,0.2-0.7c0.1-0.2,0.3-0.4,0.5-0.5C183.4,49,183.7,49,183.9,49 M183.9,49.2c-0.2,0-0.4,0-0.5,0.1
				c-0.2,0.1-0.3,0.2-0.4,0.4c-0.1,0.2-0.1,0.4-0.1,0.5c0,0.2,0,0.4,0.1,0.5c0.1,0.2,0.2,0.3,0.4,0.4c0.2,0.1,0.4,0.1,0.5,0.1
				c0.2,0,0.4,0,0.5-0.1c0.2-0.1,0.3-0.2,0.4-0.4c0.1-0.2,0.1-0.4,0.1-0.5c0-0.2,0-0.4-0.1-0.5c-0.1-0.2-0.2-0.3-0.4-0.4
				C184.2,49.2,184.1,49.2,183.9,49.2 M183.3,51v-1.4h0.5c0.2,0,0.3,0,0.4,0c0.1,0,0.1,0.1,0.2,0.1c0,0.1,0.1,0.1,0.1,0.2
				c0,0.1,0,0.2-0.1,0.3c-0.1,0.1-0.2,0.1-0.3,0.1c0,0,0.1,0,0.1,0.1c0.1,0.1,0.1,0.1,0.2,0.3l0.2,0.3h-0.3l-0.1-0.2
				c-0.1-0.2-0.2-0.3-0.2-0.3c0,0-0.1,0-0.2,0h-0.1V51H183.3z M183.5,50.2h0.3c0.1,0,0.2,0,0.3-0.1c0,0,0.1-0.1,0.1-0.2
				c0,0,0-0.1,0-0.1c0,0-0.1-0.1-0.1-0.1c0,0-0.1,0-0.2,0h-0.3V50.2z"/>
		</g>
	</g>
	<path class="st0" d="M179.5,75c0,0,0.5,0.5,1.4,0.5c0.8,0,1.3-0.4,1.3-1c0-1.2-1.8-1-1.8-1.7c0-0.3,0.3-0.4,0.6-0.4
		c0.6,0,0.9,0.3,0.9,0.3l0.3-0.5c0,0-0.4-0.4-1.2-0.4c-0.7,0-1.3,0.4-1.3,1c0,1.2,1.8,1,1.8,1.7c0,0.3-0.3,0.4-0.6,0.4
		c-0.6,0-1-0.4-1-0.4L179.5,75z M177.2,75.4h0.7v-1.5c0-0.2,0-0.4,0.1-0.6c0.2-0.5,0.6-0.8,1-0.8c0.1,0,0.2,0,0.2,0v-0.7
		c0,0-0.1,0-0.2,0c-0.6,0-1,0.4-1.1,0.9h0c0,0,0-0.1,0-0.3v-0.6h-0.7V75.4z M173.7,73.2c0.1-0.6,0.5-0.9,1-0.9
		c0.5,0,0.8,0.3,0.9,0.9H173.7z M173,73.6c0,1.1,0.8,1.9,1.9,1.9c0.9,0,1.4-0.5,1.4-0.5l-0.3-0.5c0,0-0.4,0.4-1.1,0.4
		c-0.6,0-1.2-0.4-1.2-1.2h2.6c0,0,0-0.2,0-0.3c0-0.9-0.5-1.7-1.5-1.7C173.8,71.8,173,72.5,173,73.6 M169.8,75.4h0.7v-1.7h0.5
		l1.1,1.7h0.8l-1.3-2v0l1.2-1.6h-0.8l-1,1.3h-0.5v-2.7h-0.7V75.4z M167.2,75.4h0.7v-1.5c0-0.2,0-0.4,0.1-0.6c0.2-0.5,0.6-0.8,1-0.8
		c0.1,0,0.2,0,0.2,0v-0.7c0,0-0.1,0-0.2,0c-0.6,0-1,0.4-1.1,0.9h0c0,0,0-0.1,0-0.3v-0.6h-0.7V75.4z M163.6,73.6
		c0-0.7,0.6-1.3,1.2-1.3c0.7,0,1.2,0.5,1.2,1.3c0,0.7-0.6,1.3-1.2,1.3C164.1,74.9,163.6,74.4,163.6,73.6 M162.9,73.6
		c0,1.1,0.9,1.9,1.9,1.9c1.1,0,1.9-0.8,1.9-1.9c0-1.1-0.9-1.9-1.9-1.9C163.7,71.8,162.9,72.5,162.9,73.6 M161,75.4h0.7v-2.1l1.7-2.9
		h-0.8l-0.9,1.6c-0.2,0.3-0.3,0.6-0.3,0.6h0c0,0-0.1-0.4-0.3-0.6l-0.9-1.6h-0.8l1.7,2.9V75.4z M153.5,75.4h0.8l0.7-2.3
		c0.1-0.2,0.1-0.4,0.1-0.4h0c0,0,0,0.2,0.1,0.4l0.7,2.3h0.8l1.2-3.6h-0.7l-0.7,2.5c-0.1,0.2-0.1,0.4-0.1,0.4h0c0,0,0-0.2-0.1-0.4
		l-0.8-2.5h-0.6l-0.8,2.5c-0.1,0.2-0.1,0.4-0.1,0.4h0c0,0,0-0.2-0.1-0.4l-0.7-2.5h-0.7L153.5,75.4z M149.5,73.2
		c0.1-0.6,0.5-0.9,1-0.9c0.5,0,0.8,0.3,0.9,0.9H149.5z M148.8,73.6c0,1.1,0.8,1.9,1.9,1.9c0.9,0,1.4-0.5,1.4-0.5l-0.3-0.5
		c0,0-0.4,0.4-1.1,0.4c-0.6,0-1.2-0.4-1.2-1.2h2.6c0,0,0-0.2,0-0.3c0-0.9-0.5-1.7-1.5-1.7C149.5,71.8,148.8,72.5,148.8,73.6
		 M144.1,75.4h0.7v-3.2c0-0.3,0-0.7,0-0.7h0c0,0,0.2,0.5,0.4,0.7l2.2,3.2h0.7v-5h-0.7v3.2c0,0.3,0,0.7,0,0.7h0c0,0-0.2-0.5-0.4-0.7
		l-2.2-3.2h-0.7V75.4z M140.1,75.4h0.7v-1.5c0-0.2,0-0.4,0.1-0.6c0.2-0.5,0.6-0.8,1-0.8c0.1,0,0.2,0,0.2,0v-0.7c0,0-0.1,0-0.2,0
		c-0.6,0-1,0.4-1.1,0.9h0c0,0,0-0.1,0-0.3v-0.6h-0.7V75.4z M136.2,73.6c0-0.7,0.6-1.3,1.2-1.3c0.7,0,1.2,0.5,1.2,1.3
		c0,0.7-0.6,1.3-1.2,1.3C136.8,74.9,136.2,74.4,136.2,73.6 M135.5,73.6c0,1.1,0.9,1.9,1.9,1.9c1.1,0,1.9-0.8,1.9-1.9
		c0-1.1-0.9-1.9-1.9-1.9C136.4,71.8,135.5,72.5,135.5,73.6 M133.8,75.4h0.7v-3h0.8v-0.6h-0.8v-0.2c0-0.7,0.5-0.7,0.7-0.7
		c0.1,0,0.2,0,0.2,0v-0.6c0,0-0.1,0-0.3,0c-0.5,0-1.3,0.1-1.3,1.3v0.2h-0.4v0.6h0.4V75.4z M128.7,73.2c0.1-0.6,0.5-0.9,1-0.9
		c0.5,0,0.8,0.3,0.9,0.9H128.7z M128,73.6c0,1.1,0.8,1.9,1.9,1.9c0.9,0,1.4-0.5,1.4-0.5l-0.3-0.5c0,0-0.4,0.4-1.1,0.4
		c-0.6,0-1.2-0.4-1.2-1.2h2.6c0,0,0-0.2,0-0.3c0-0.9-0.5-1.7-1.5-1.7C128.8,71.8,128,72.5,128,73.6 M124.3,73.6
		c0,1.1,0.8,1.9,1.9,1.9c0.9,0,1.4-0.6,1.4-0.6l-0.3-0.5c0,0-0.4,0.5-1.1,0.5c-0.7,0-1.3-0.6-1.3-1.3c0-0.7,0.5-1.3,1.2-1.3
		c0.6,0,1,0.4,1,0.4l0.3-0.5c0,0-0.4-0.5-1.3-0.5C125.1,71.8,124.3,72.6,124.3,73.6 M120.4,75.4h0.7v-1.7c0-0.2,0-0.3,0.1-0.5
		c0.1-0.5,0.6-0.9,1.1-0.9c0.6,0,0.7,0.4,0.7,0.9v2.1h0.7v-2.3c0-0.9-0.4-1.4-1.2-1.4c-0.8,0-1.2,0.5-1.3,0.8h0c0,0,0-0.1,0-0.3
		v-0.5h-0.7V75.4z M117.2,74.4c0-0.6,0.9-0.7,1.4-0.7h0.2v0.1c0,0.5-0.4,1.1-1,1.1C117.5,74.9,117.2,74.7,117.2,74.4 M116.6,74.4
		c0,0.7,0.6,1.1,1.2,1.1c0.9,0,1.1-0.7,1.1-0.7h0c0,0,0,0.1,0,0.3v0.3h0.6v-2.3c0-0.9-0.5-1.4-1.4-1.4c-0.8,0-1.3,0.4-1.3,0.4
		l0.3,0.5c0,0,0.4-0.3,1-0.3c0.5,0,0.8,0.2,0.8,0.8v0.1h-0.2C118.1,73.2,116.6,73.2,116.6,74.4 M114.3,75.4h0.7v-1.5
		c0-0.2,0-0.4,0.1-0.6c0.2-0.5,0.6-0.8,1-0.8c0.1,0,0.2,0,0.2,0v-0.7c0,0-0.1,0-0.2,0c-0.6,0-1,0.4-1.1,0.9h0c0,0,0-0.1,0-0.3v-0.6
		h-0.7V75.4z M110.2,74.1c0,0.9,0.4,1.4,1.2,1.4c0.7,0,1.2-0.5,1.3-0.8h0c0,0,0,0.1,0,0.3v0.5h0.7v-3.6h-0.7v1.7
		c0,0.7-0.4,1.3-1.2,1.3c-0.6,0-0.7-0.4-0.7-0.9v-2.1h-0.7V74.1z M106.9,75c0,0,0.5,0.5,1.4,0.5c0.8,0,1.3-0.4,1.3-1
		c0-1.2-1.8-1-1.8-1.7c0-0.3,0.3-0.4,0.6-0.4c0.6,0,0.9,0.3,0.9,0.3l0.3-0.5c0,0-0.4-0.4-1.2-0.4c-0.7,0-1.3,0.4-1.3,1
		c0,1.2,1.8,1,1.8,1.7c0,0.3-0.3,0.4-0.6,0.4c-0.6,0-1-0.4-1-0.4L106.9,75z M103.1,75.4h0.7v-1.7c0-0.2,0-0.3,0.1-0.5
		c0.1-0.5,0.6-0.9,1.1-0.9c0.6,0,0.7,0.4,0.7,0.9v2.1h0.7v-2.3c0-0.9-0.4-1.4-1.2-1.4c-0.8,0-1.2,0.5-1.3,0.8h0c0,0,0-0.1,0-0.3
		v-0.5h-0.7V75.4z M101.5,75.4h0.7v-5h-0.7V75.4z M96,75.4h0.7v-1.7c0-0.2,0-0.3,0.1-0.5c0.1-0.5,0.6-0.9,1.1-0.9
		c0.6,0,0.7,0.4,0.7,0.9v2.1h0.7v-2.3c0-0.9-0.4-1.4-1.2-1.4c-0.7,0-1.2,0.5-1.3,0.8h0c0,0,0-0.1,0-0.3v-1.8H96V75.4z M93.7,74.1
		c0,1.2,0.9,1.3,1.4,1.3c0.1,0,0.2,0,0.2,0v-0.6c0,0-0.1,0-0.2,0c-0.3,0-0.8-0.1-0.8-0.8v-1.6h0.9v-0.6h-0.9v-1h-0.7v1h-0.5v0.6h0.5
		V74.1z M91.8,74.4c0,0.9,0.6,1,1,1c0.1,0,0.2,0,0.2,0v-0.6c0,0-0.1,0-0.1,0c-0.2,0-0.4-0.1-0.4-0.5v-3.9h-0.7V74.4z M88.7,74.4
		c0-0.6,0.9-0.7,1.4-0.7h0.2v0.1c0,0.5-0.4,1.1-1,1.1C88.9,74.9,88.7,74.7,88.7,74.4 M88,74.4c0,0.7,0.6,1.1,1.2,1.1
		c0.9,0,1.1-0.7,1.1-0.7h0c0,0,0,0.1,0,0.3v0.3H91v-2.3c0-0.9-0.5-1.4-1.4-1.4c-0.8,0-1.3,0.4-1.3,0.4l0.3,0.5c0,0,0.4-0.3,1-0.3
		c0.5,0,0.8,0.2,0.8,0.8v0.1h-0.2C89.5,73.2,88,73.2,88,74.4 M85,73.2c0.1-0.6,0.5-0.9,1-0.9c0.5,0,0.8,0.3,0.9,0.9H85z M84.3,73.6
		c0,1.1,0.8,1.9,1.9,1.9c0.9,0,1.4-0.5,1.4-0.5l-0.3-0.5c0,0-0.4,0.4-1.1,0.4c-0.6,0-1.2-0.4-1.2-1.2h2.6c0,0,0-0.2,0-0.3
		c0-0.9-0.5-1.7-1.5-1.7C85,71.8,84.3,72.5,84.3,73.6 M79.6,75.4h0.7v-2.2h2.6v2.2h0.7v-5h-0.7v2.2h-2.6v-2.2h-0.7V75.4z"/>
</g>
</svg>
