<?xml version="1.0" encoding="UTF-8"?><svg id="Layer_1" xmlns="http://www.w3.org/2000/svg" viewBox="0 0 246.52 123.71"><defs><style>.cls-1{fill:#a7a9ac;}</style></defs><path class="cls-1" d="m94.19,76.96v-8.96h3.23v8.87c0,2.08,1.21,3.52,3.52,3.52s3.5-1.43,3.5-3.52v-7.06c0-1,.81-1.82,1.82-1.82h1.43v8.96c0,3.7-2.2,6.25-6.75,6.25s-6.75-2.55-6.75-6.25Z"/><path class="cls-1" d="m118.44,81.96l-6.41-8.77v9.75h-3.18v-14.95h1.97c.82,0,1.58.39,2.07,1.05l6.15,8.34v-9.39h3.18v14.95h-1.86c-.76,0-1.47-.36-1.92-.98Z"/><path class="cls-1" d="m123.59,82.94v-13.37c0-.87.7-1.57,1.57-1.57h1.61v14.95h-3.18Z"/><path class="cls-1" d="m160.62,69.11h1.73v.49h-.57v1.61h-.59v-1.61h-.57v-.49Zm4.49,0v2.1h-.52v-1.05l.04-.33-.53,1.04c-.04.09-.11.13-.21.13h-.08c-.1,0-.16-.04-.2-.13l-.53-1.04.04.34v1.05h-.52v-2.1h.51c.05,0,.09,0,.11.02.02.01.05.04.08.07l.45.89c.04.09.07.17.09.24.01-.04.03-.08.04-.12.02-.04.03-.08.06-.12l.46-.89s.06-.06.08-.07c.02-.01.06-.02.11-.02h.51Z"/><path class="cls-1" d="m137.93,73.42c.25.61.38,1.3.38,2.03,0,2.55-1.73,4.68-4.68,4.68h-2.71v-9.34h2.73c.35,0,.68.03.99.08.59-.93,1.37-1.71,2.3-2.31-.99-.37-2.1-.57-3.31-.57h-4.45c-.8,0-1.44.65-1.44,1.44v13.51h5.92c4.66,0,7.91-2.96,7.91-7.48,0-1.65-.44-3.09-1.23-4.26-1.1.34-1.94,1.13-2.4,2.23Z"/><path class="cls-1" d="m97.38,51.12v11.38h5.65v2.62h-8.92v-10.7l3.27-3.3Z"/><path class="cls-1" d="m114.94,58.14c0-4.43,3.36-7.24,7.47-7.24,2.9,0,4.72,1.47,5.77,3.13l-2.46,1.34c-.65-.99-1.85-1.83-3.32-1.83-2.56,0-4.41,1.95-4.41,4.6s1.85,4.6,4.41,4.6c1.24,0,2.39-.55,2.96-1.07v-1.68h-3.7v-1.31c0-.72.58-1.3,1.3-1.3h5.38v5.37c-1.43,1.6-3.42,2.62-5.94,2.62-4.11,0-7.47-2.83-7.47-7.24Z"/><path class="cls-1" d="m141.87,58.14c0-4.32,3.25-7.24,7.47-7.24,3.07,0,4.85,1.66,5.84,3.42l-2.56,1.26c-.59-1.13-1.85-2.04-3.28-2.04-2.56,0-4.41,1.95-4.41,4.6s1.85,4.6,4.41,4.6c1.43,0,2.69-.9,3.28-2.04l2.56,1.24c-.99,1.74-2.77,3.44-5.84,3.44-4.22,0-7.47-2.94-7.47-7.24Z"/><path class="cls-1" d="m160.62,65.13v-14h9.91v1.28c0,.74-.6,1.34-1.34,1.34h-5.59v2.94h6.78v2.62h-6.78v3.19h6.93v2.62h-9.91Z"/><path class="cls-1" d="m171.48,63.15l.92-1.31c.36-.51,1.07-.64,1.57-.28.94.68,2.15,1.17,3.59,1.17,1.66,0,2.44-.73,2.44-1.55,0-2.44-8.06-.73-8.06-6,0-2.33,2.02-4.26,5.31-4.26,2.23,0,4.07.67,5.46,1.95l-.84,1.13c-.42.56-1.19.72-1.79.37-.96-.55-2.05-.81-3.1-.81-1.26,0-1.97.55-1.97,1.39,0,2.2,8.04.71,8.04,5.94,0,2.56-1.85,4.49-5.61,4.49-2.71,0-4.64-.9-5.96-2.23Z"/><path class="cls-1" d="m151.88,72.16c0-.88.75-1.46,2.08-1.46,1.1,0,2.25.27,3.26.86.63.37,1.44.19,1.88-.39l.89-1.19c-1.46-1.35-3.4-2.05-5.74-2.05-3.24,0-5.31,1.78-5.56,4.01-1.22-2.58-3.81-4.23-7.03-4.23-1.25,0-2.4.25-3.42.7-.04.02-.08.03-.12.05-.03.01-.06.03-.09.04,0,0,0,0,0,0-2.56,1.22-4.21,3.76-4.21,6.95,0,.42.03.83.08,1.22h.02c.15,1.03.47,1.97.95,2.8,1.16-.31,2.06-1.06,2.55-2.1-.21-.59-.32-1.24-.32-1.93s.12-1.4.34-2.01c0,0,0,0,0-.01.65-1.73,2.15-2.88,4.2-2.88,2.76,0,4.53,2.11,4.53,4.91,0,.42-.04.83-.12,1.22h.01c-.45,2.15-2.07,3.68-4.4,3.68-.39,0-.77-.04-1.12-.13-.26.35-.55.68-.87.98-.49.46-1.05.85-1.66,1.17,1.07.52,2.3.8,3.64.8,4.5,0,7.8-3.23,7.8-7.73,0-.21-.01-.42-.03-.63,2.09,2.63,7.72,1.83,7.72,3.92,0,.86-.82,1.63-2.56,1.63-1.52,0-2.8-.52-3.78-1.23-.53-.38-1.28-.25-1.66.29l-.97,1.38c1.39,1.39,3.42,2.34,6.27,2.34,3.95,0,5.9-2.03,5.9-4.73,0-5.5-8.46-3.93-8.46-6.25Z"/><polygon class="cls-1" points="137.4 51.12 133.67 51.12 128.27 65.13 131.65 65.13 135.53 54.1 139.42 65.13 142.8 65.13 137.4 51.12"/><path class="cls-1" d="m104.33,65.13v-14h9.91v1.28c0,.74-.6,1.34-1.34,1.34h-5.59v2.94h6.78v2.62h-6.78v3.19h6.93v2.62h-9.91Z"/><polygon class="cls-1" points="156.45 65.13 159.27 65.13 159.27 51.12 156.45 53.87 156.45 65.13"/><path class="cls-1" d="m59.81,64.49c-.25-.24-.44-.42-.76-.73-.61.68-1.19,1.33-1.88,2.09-.06-.83-.14-1.44.49-1.97.74-.61,1.37-1.35,2.06-2.03.12-.12.31-.25.47-.25,1.48-.02,2.96-.01,4.49-.01v7.8c-.37-.37-.69-.69-1.01-1-.41-.4-.59-.4-.99,0-.98.97-1.95,1.95-2.93,2.92-.12.12-.25.23-.43.4-.19-.25-.37-.48-.6-.79,1.21-1.17,2.49-2.41,3.83-3.69-.31-.26-.51-.44-.75-.65-1.22,1.24-2.46,2.5-3.73,3.79-.27-.29-.47-.51-.7-.75,1.24-1.22,2.49-2.45,3.81-3.75-.3-.23-.53-.4-.81-.62-1,1.02-2.05,2.1-3.11,3.17-.12-.66-.3-1.24.3-1.76.77-.66,1.45-1.42,2.23-2.2Z"/><path class="cls-1" d="m81.61,72.99v-7.71s.09-.08.13-.11c.29.33.56.68.87.99.42.44.6.43,1.02,0,1.08-1.09,2.15-2.18,3.26-3.31.27.25.49.46.72.68-1.28,1.26-2.54,2.5-3.88,3.82.31.24.53.42.83.65,1.2-1.22,2.44-2.49,3.72-3.8.23.26.42.48.63.72-1.25,1.22-2.51,2.45-3.81,3.72.31.29.51.48.81.76,1.05-1.08,2.1-2.16,3.22-3.3.06.75.14,1.36-.5,1.88-.75.62-1.41,1.36-2.13,2.06.25.25.45.45.72.71.6-.65,1.2-1.29,1.89-2.03.05.79.19,1.38-.43,1.91-.76.64-1.42,1.4-2.13,2.1-.11.11-.28.23-.43.24-1.5.02-2.99.01-4.53.01Z"/><path class="cls-1" d="m73.19,56.73c.28-.33.46-.55.68-.82-1.24-1.22-2.49-2.45-3.77-3.7.27-.23.5-.43.77-.66,1.18,1.2,2.41,2.46,3.69,3.75.22-.29.38-.51.61-.81-1-.98-2.08-2.05-3.23-3.18.79-.07,1.41-.11,1.94.53.61.74,1.33,1.38,2.04,2.1.24-.23.43-.42.7-.67-.68-.61-1.34-1.2-2-1.79l.13-.17c.62-.05,1.21-.17,1.74.44.63.75,1.38,1.4,2.07,2.1.11.12.27.27.27.41.02,1.51.01,3.02.01,4.57h-7.7s-.06-.08-.09-.13c.33-.3.67-.58.99-.89.41-.4.4-.58,0-.99-.96-.97-1.92-1.92-2.88-2.89-.13-.13-.26-.27-.44-.47.25-.2.48-.37.74-.58,1.19,1.22,2.43,2.5,3.73,3.83Z"/><path class="cls-1" d="m67.46,75.74h7.81c-.37.38-.68.69-.98,1-.42.43-.43.61,0,1.03,1.08,1.08,2.17,2.16,3.3,3.28-.23.25-.43.47-.64.7-1.26-1.29-2.5-2.55-3.77-3.85-.3.28-.51.48-.75.71,1.28,1.26,2.54,2.5,3.83,3.77-.29.27-.52.47-.76.69-1.21-1.23-2.44-2.48-3.71-3.77-.27.25-.47.45-.72.69,1.1,1.09,2.18,2.15,3.26,3.21-.64.09-1.23.29-1.74-.31-.65-.77-1.41-1.46-2.16-2.23-.25.23-.46.43-.76.7.67.63,1.32,1.24,2.06,1.93-.82.06-1.42.14-1.95-.49-.61-.74-1.35-1.37-2.02-2.06-.12-.13-.25-.31-.26-.47-.02-1.48-.01-2.96-.01-4.51Z"/><path class="cls-1" d="m81.67,54.46h.98v5.29h.93v-4.61c.56.5,1.08.82,1.02,1.62-.07.99-.02,1.99-.02,3.03h.89v-2.74c.59.51,1.1.85,1.03,1.67-.08.98-.01,1.96-.03,2.95,0,.17-.05.39-.17.51-1.03,1.06-2.09,2.1-3.1,3.11-1.83-1.83-3.65-3.64-5.51-5.5.47,0,.93-.02,1.39,0,.5.02.67-.19.67-.68-.02-1.34,0-2.69,0-4.03,0-.19,0-.37,0-.61h.99v5.27h.91v-5.29Z"/><path class="cls-1" d="m65.53,74.82h-.88v5.3h-1.01v-5.3h-.9v4.51c-.65-.26-1.02-.78-1.02-1.39,0-.88,0-1.76,0-2.64,0-.17,0-.33,0-.52h-.9v2.74c-.67-.5-1.11-.96-1.03-1.8.09-.92.01-1.86.03-2.79,0-.16.02-.37.12-.47,1.05-1.09,2.12-2.16,3.14-3.19,1.86,1.86,3.68,3.66,5.55,5.53-.43,0-.81,0-1.2,0-.85,0-.88.03-.88.86,0,1.29,0,2.59,0,3.88,0,.19,0,.37,0,.59h-1.01v-5.31Z"/><path class="cls-1" d="m65.66,55.87v-.89h-2.76c.51-.62.89-1.13,1.73-1.05.94.09,1.89.02,2.84.02.16,0,.38,0,.48.1,1.09,1.07,2.17,2.16,3.19,3.18-1.84,1.84-3.64,3.65-5.49,5.51,0-.47-.01-.93,0-1.39.02-.48-.18-.68-.67-.67-1.36.02-2.72,0-4.08,0-.18,0-.37,0-.58,0v-1.02h5.31v-.87h-5.3v-1.01h5.28v-.9h-4.48c.37-.52.63-1.09,1.42-1.03,1.03.07,2.06.02,3.11.02Z"/><path class="cls-1" d="m80.66,71.88c0,.44.01.9,0,1.36-.02.49.19.67.68.67,1.53-.02,3.06,0,4.64,0v1.02h-5.3v.87h5.3v1.01h-5.29v.9h4.49c-.38.52-.65,1.08-1.44,1.02-1.03-.07-2.06-.02-3.1-.02v.9h2.77c-.52.62-.9,1.12-1.74,1.04-.94-.09-1.89-.01-2.84-.03-.19,0-.43-.05-.55-.18-1.06-1.03-2.1-2.09-3.12-3.11,1.82-1.81,3.64-3.61,5.5-5.46Z"/><circle class="cls-1" cx="73.16" cy="67.04" r="5.94"/></svg>