<?xml version="1.0" encoding="UTF-8"?><svg id="Layer_1" xmlns="http://www.w3.org/2000/svg" viewBox="0 0 246.52 123.71"><defs><style>.cls-1,.cls-2{fill:#a7a9ac;}.cls-2{fill-rule:evenodd;}</style></defs><path class="cls-1" d="m107.6,46.56l1.03-.05c.86-.04,1.43-.06,1.73-.06.93,0,1.65.14,2.17.42.52.28.9.66,1.16,1.15.25.48.38,1.04.38,1.67,0,.46-.07.87-.21,1.25-.14.38-.33.69-.57.94-.24.25-.52.44-.84.57-.32.13-.62.21-.9.24-.29.03-.69.05-1.2.05h-2.76v-.21h.26c.27,0,.45-.03.55-.1.1-.07.17-.17.2-.31.03-.14.04-.47.04-1v-3.01c0-.5-.01-.82-.04-.96-.03-.15-.09-.25-.18-.3-.09-.05-.3-.08-.61-.08h-.18v-.21Zm1.92.13v4.17c0,.62.01,1.01.03,1.19.02.18.09.3.21.37.11.07.36.11.73.11.54,0,.99-.07,1.34-.22.35-.15.64-.44.88-.88.23-.44.35-.99.35-1.67,0-.53-.07-1-.2-1.41-.14-.41-.33-.75-.59-1.01-.25-.26-.54-.44-.85-.53-.31-.09-.71-.14-1.19-.14-.23,0-.47,0-.71.02Z"/><path class="cls-1" d="m116.11,49.79c.1-.27.27-.5.51-.69.23-.18.46-.28.69-.28.2,0,.36.06.48.19.12.13.17.25.17.39,0,.09-.03.17-.09.23-.06.06-.13.1-.22.1-.15,0-.27-.11-.35-.34-.06-.15-.14-.23-.25-.23-.13,0-.29.09-.47.27-.18.18-.3.37-.35.56-.05.19-.08.46-.08.8v.67c0,.4,0,.65.02.76.01.1.05.18.13.24.08.06.21.08.41.08h.13v.21h-2v-.21h.1c.18,0,.31-.03.39-.08.08-.05.12-.12.14-.21.02-.09.02-.36.02-.79v-1.06c0-.4,0-.66-.02-.76-.01-.1-.05-.18-.13-.24-.08-.06-.21-.08-.41-.08h-.1v-.21c.29-.03.67-.12,1.13-.27.09.24.14.56.15.96Z"/><path class="cls-1" d="m117.69,52.4c0-.13.05-.25.14-.35.1-.1.21-.14.35-.14s.26.05.35.14c.1.1.14.21.14.35s-.05.26-.15.35c-.1.1-.21.14-.35.14s-.25-.05-.35-.15c-.09-.1-.14-.22-.14-.35Z"/><path class="cls-1" d="m128.57,52.75h-1.68c-.3-.21-.75-.75-1.37-1.64-.2-.28-.4-.55-.61-.81-.21-.26-.36-.42-.44-.47-.08-.06-.2-.09-.37-.09h-.25v1.38c0,.49.01.81.03.96.02.15.08.26.18.34.1.07.29.11.57.11h.3v.21h-2.98v-.21h.2c.27,0,.45-.03.55-.1.1-.07.17-.17.2-.31.03-.14.04-.47.04-1v-3.06c0-.5-.01-.82-.04-.96-.03-.14-.09-.24-.18-.3-.1-.06-.3-.08-.62-.08h-.11v-.21l.89-.05c.59-.03,1.07-.04,1.42-.04.59,0,1.08.06,1.45.17s.67.29.9.54.34.55.34.9c0,.41-.15.76-.45,1.04-.3.29-.74.47-1.32.54.26.13.68.58,1.26,1.36.47.63.84,1.05,1.11,1.25.27.2.59.3.96.31v.21Zm-4.71-3.22c.23,0,.47-.02.71-.03.25-.01.46-.05.64-.1.18-.06.33-.14.44-.24.11-.11.2-.24.26-.42.06-.17.1-.38.1-.63,0-.44-.11-.79-.33-1.05-.22-.26-.7-.4-1.43-.4-.11,0-.24,0-.39.02v2.85Z"/><path class="cls-1" d="m132.74,52.06h.17c-.03.52-.29.79-.77.79-.21,0-.37-.06-.49-.17-.12-.11-.2-.27-.24-.49-.31.22-.59.38-.84.49-.25.11-.48.17-.68.17-.25,0-.47-.07-.66-.22-.18-.15-.28-.34-.28-.58,0-.32.15-.59.46-.83.31-.24.73-.47,1.28-.69l.71-.29v-.18c0-.26-.02-.45-.05-.57-.03-.12-.12-.22-.26-.31-.14-.09-.33-.14-.56-.14-.46,0-.72.15-.77.46-.05.31-.18.47-.39.47-.19,0-.28-.09-.28-.27s.12-.36.37-.56c.25-.2.63-.3,1.16-.3.39,0,.69.06.91.18.21.12.36.26.43.42.07.16.1.4.1.72v1.52c0,.36.02.58.06.69s.12.15.24.15c.2,0,.33-.15.38-.45Zm-1.33-1.61l-.5.2c-.79.32-1.19.73-1.19,1.21,0,.19.05.35.15.47.1.12.23.18.4.18.14,0,.31-.05.5-.14.19-.1.4-.24.64-.43v-1.49Z"/><path class="cls-1" d="m134.33,48.83h.05c.09.21.13.47.13.79.21-.26.43-.46.66-.59.24-.13.49-.2.77-.2.31,0,.56.07.75.21.19.14.33.35.4.63.23-.28.47-.49.72-.63.25-.14.5-.21.75-.21.29,0,.54.07.74.2.2.14.33.29.37.46.04.17.06.45.06.83v1.13c0,.44,0,.71.03.8.02.1.07.17.15.21.08.05.23.07.45.07v.21h-1.88v-.21c.2,0,.34-.02.42-.07.08-.04.13-.11.15-.2.02-.09.03-.36.03-.81v-1.26c0-.25-.01-.45-.04-.57-.03-.13-.1-.24-.23-.33-.12-.09-.28-.14-.48-.14s-.4.07-.6.2c-.2.14-.4.34-.6.61v1.49c0,.4,0,.65.02.76.01.1.05.18.13.24.07.06.21.09.4.09v.21h-1.82v-.21c.21,0,.35-.02.43-.06.08-.04.13-.11.15-.2.02-.09.03-.36.03-.82v-1.04c0-.33-.01-.57-.04-.72-.03-.15-.11-.28-.24-.38-.13-.11-.3-.16-.49-.16s-.38.06-.58.18c-.2.12-.4.31-.6.55v1.57c0,.41,0,.67.02.77.01.1.06.18.14.23.08.05.22.08.43.08v.21h-1.84v-.21c.2,0,.34-.02.43-.07.08-.04.13-.11.15-.2.02-.09.03-.36.03-.81v-1.13c0-.43,0-.69-.02-.79s-.06-.17-.14-.22c-.08-.05-.23-.07-.44-.07v-.21c.44-.04.8-.11,1.08-.21Z"/><path class="cls-1" d="m140.84,50.86c0-.58.19-1.06.58-1.45.39-.39.86-.58,1.43-.58s1.04.19,1.43.58c.39.39.58.87.58,1.44,0,.63-.2,1.13-.59,1.5-.39.36-.87.54-1.42.54s-1.03-.18-1.42-.55c-.39-.37-.59-.87-.59-1.49Zm.76.02c0,.67.11,1.14.33,1.4.22.27.52.4.92.4s.71-.13.92-.4c.21-.27.32-.74.32-1.4s-.11-1.13-.32-1.42c-.21-.28-.52-.42-.92-.42s-.71.14-.92.42c-.21.28-.32.75-.32,1.42Z"/><path class="cls-1" d="m146.57,48.83h.12c.07.19.11.45.12.78.22-.26.45-.46.69-.58.24-.13.5-.19.76-.19.3,0,.55.06.74.19.19.13.31.28.37.46.06.18.08.45.08.8v1.18c0,.44,0,.7.02.8.02.1.06.17.14.21.08.05.23.07.45.07v.21h-1.93v-.21h.09c.22,0,.36-.03.43-.1.07-.06.11-.14.11-.23,0-.09.01-.34.01-.76v-1.21c0-.3-.01-.51-.04-.64-.03-.13-.11-.24-.23-.34-.13-.1-.29-.15-.48-.15-.22,0-.44.07-.64.2-.2.13-.4.33-.58.6v1.54c0,.44,0,.7.03.8.02.1.07.17.15.21.08.05.23.07.45.07v.21h-1.9v-.21c.21,0,.36-.02.44-.06.08-.04.13-.11.15-.2.02-.09.03-.36.03-.82v-1.12c0-.44,0-.7-.02-.8-.02-.09-.07-.16-.15-.21-.08-.05-.23-.07-.45-.07v-.21c.34-.04.68-.11,1.03-.21Z"/><path class="cls-1" d="m113.63,68.98l.03.82h-.11c-.02-.18-.07-.33-.15-.45-.08-.12-.16-.19-.25-.22-.09-.03-.23-.04-.44-.04h-.65v1.4h.31c.2,0,.33-.03.4-.1.07-.07.1-.2.1-.41h.12v1.16h-.12c0-.14-.01-.25-.04-.34s-.07-.14-.13-.17c-.06-.03-.17-.05-.33-.05h-.31v.82c0,.26,0,.43.02.51.01.08.05.14.1.18.05.04.15.06.31.06h.11v.11h-1.54v-.11h.1c.14,0,.24-.02.29-.05.05-.04.09-.09.1-.17.02-.08.02-.25.02-.53v-1.62c0-.26,0-.43-.02-.51-.02-.08-.05-.13-.1-.16-.05-.03-.16-.04-.33-.04h-.06v-.11h2.55Z"/><path class="cls-1" d="m115.94,70.61c0-.51.17-.92.51-1.23.34-.31.77-.46,1.28-.46s.95.15,1.29.46c.35.31.52.72.52,1.25s-.17.93-.5,1.24c-.33.32-.77.48-1.31.48s-.96-.16-1.29-.48c-.34-.32-.5-.74-.5-1.26Zm.56.02c0,.53.11.93.32,1.2.21.27.53.4.95.4.37,0,.67-.13.88-.4.22-.27.32-.66.32-1.19s-.11-.91-.32-1.18c-.21-.27-.52-.41-.93-.41s-.7.13-.92.4c-.21.27-.32.66-.32,1.19Z"/><path class="cls-1" d="m124.42,68.98h1.1v.11c-.15,0-.26.04-.33.1-.07.06-.12.12-.13.19-.02.07-.02.21-.02.41v1.1c0,.28-.01.49-.03.63-.02.14-.09.27-.19.4-.1.13-.25.24-.44.31-.19.08-.41.12-.66.12-.29,0-.54-.05-.75-.15-.2-.1-.35-.23-.44-.39-.09-.16-.13-.37-.13-.64v-.34s0-1.03,0-1.03c0-.26,0-.43-.02-.51-.02-.08-.05-.13-.1-.16-.05-.03-.16-.04-.33-.04h-.08v-.11h1.51v.11h-.07c-.16,0-.27.01-.32.04-.05.03-.08.08-.1.15-.02.07-.03.25-.03.52v1.04c0,.36.02.62.05.77.03.15.13.28.28.4.15.11.36.17.62.17.2,0,.38-.04.55-.11.16-.08.29-.17.37-.28.08-.11.13-.23.15-.35.02-.12.03-.31.03-.56v-1.13c0-.19-.01-.32-.03-.39-.02-.07-.07-.13-.14-.18-.07-.04-.18-.07-.33-.08v-.11Z"/><path class="cls-1" d="m130.7,72.36l-2.34-3.1v2.29c0,.19,0,.32.03.38.02.06.07.12.16.17.09.05.22.08.39.08v.11h-1.23v-.11c.16-.01.28-.04.36-.09.08-.05.13-.1.15-.15.02-.05.02-.18.02-.38v-1.75c0-.25-.01-.42-.04-.51-.02-.09-.06-.14-.11-.17-.05-.02-.17-.04-.34-.04v-.11h.98l1.96,2.59v-1.98c0-.15-.02-.25-.05-.31-.03-.06-.09-.1-.18-.14-.09-.03-.2-.05-.33-.05v-.11h1.2v.11c-.14.01-.25.04-.33.08-.08.04-.13.09-.15.15-.02.06-.03.16-.03.3v2.73h-.1Z"/><path class="cls-1" d="m133.48,69.01l.54-.03c.45-.02.76-.03.92-.03.49,0,.87.07,1.15.22.27.15.48.35.61.61.13.26.2.55.2.89,0,.24-.04.46-.11.66-.07.2-.17.37-.3.5-.13.13-.28.23-.44.3-.17.07-.33.11-.48.13-.15.02-.36.03-.64.03h-1.46v-.11h.14c.14,0,.24-.02.29-.05.05-.04.09-.09.1-.17.02-.08.02-.25.02-.53v-1.59c0-.26,0-.43-.02-.51-.02-.08-.05-.13-.1-.16-.05-.03-.16-.04-.33-.04h-.1v-.11Zm1.02.07v2.21c0,.33,0,.54.02.63.01.09.05.16.11.2.06.04.19.06.39.06.29,0,.52-.04.71-.12.19-.08.34-.23.46-.47.12-.23.19-.53.19-.89,0-.28-.04-.53-.11-.75-.07-.22-.18-.4-.31-.54-.13-.14-.28-.23-.45-.28-.16-.05-.37-.07-.63-.07-.12,0-.25,0-.38.01Z"/><path class="cls-1" d="m140.99,71.07h-1.26l-.09.21c-.13.3-.19.5-.19.59,0,.1.03.17.1.23.07.05.15.08.26.08v.11h-.98v-.11c.15-.02.25-.07.33-.15.07-.08.16-.25.26-.51,0-.02.05-.12.12-.28l.96-2.29h.09l1.1,2.62.15.35c.03.08.08.14.14.18.06.04.14.07.26.08v.11h-1.3v-.11c.16,0,.27-.01.32-.04.06-.02.08-.07.08-.14,0-.04-.04-.14-.11-.32l-.25-.61Zm-.04-.11l-.59-1.41-.58,1.41h1.17Z"/><path class="cls-1" d="m144.08,69.78h-.11l.02-.79h3.21l.02.79h-.1c-.04-.22-.09-.38-.15-.47-.06-.1-.13-.16-.21-.18-.07-.02-.2-.03-.38-.03h-.53v2.33c0,.26,0,.43.02.51.01.08.04.14.1.18.05.04.15.06.3.06h.16v.11h-1.65v-.11h.17c.14,0,.24-.02.29-.05.05-.04.09-.09.1-.17.02-.08.02-.25.02-.53v-2.33h-.49c-.21,0-.36.01-.43.03-.07.02-.14.08-.21.18-.06.1-.11.26-.15.47Z"/><path class="cls-1" d="m149.45,69.1v-.11h1.51v.11h-.07c-.16,0-.27.01-.32.04-.05.03-.08.08-.1.15-.02.07-.03.25-.03.52v1.62c0,.26,0,.43.02.51.01.08.04.14.1.18.05.04.15.06.3.06h.1v.11h-1.51v-.11h.1c.14,0,.24-.02.29-.05.05-.04.09-.09.1-.17.01-.08.02-.25.02-.53v-1.62c0-.26,0-.43-.02-.51-.01-.08-.05-.13-.1-.16-.05-.03-.16-.04-.33-.04h-.07Z"/><path class="cls-1" d="m153.34,70.61c0-.51.17-.92.51-1.23.34-.31.77-.46,1.28-.46s.95.15,1.29.46c.35.31.52.72.52,1.25s-.17.93-.5,1.24c-.33.32-.77.48-1.31.48s-.96-.16-1.29-.48c-.34-.32-.5-.74-.5-1.26Zm.56.02c0,.53.11.93.32,1.2.21.27.53.4.95.4.37,0,.67-.13.88-.4.22-.27.32-.66.32-1.19s-.11-.91-.32-1.18c-.21-.27-.52-.41-.93-.41s-.7.13-.92.4c-.21.27-.32.66-.32,1.19Z"/><path class="cls-1" d="m162.26,72.36l-2.34-3.1v2.29c0,.19,0,.32.03.38.02.06.07.12.16.17.09.05.22.08.39.08v.11h-1.23v-.11c.16-.01.28-.04.36-.09.08-.05.13-.1.15-.15.02-.05.02-.18.02-.38v-1.75c0-.25-.01-.42-.04-.51-.02-.09-.06-.14-.11-.17-.05-.02-.17-.04-.34-.04v-.11h.98l1.96,2.59v-1.98c0-.15-.02-.25-.05-.31-.03-.06-.09-.1-.18-.14-.09-.03-.2-.05-.33-.05v-.11h1.2v.11c-.14.01-.25.04-.33.08-.08.04-.13.09-.15.15-.02.06-.03.16-.03.3v2.73h-.1Z"/><path class="cls-1" d="m108.3,57.45h-.43l.07-3.03h12.24l.06,3.03h-.4c-.14-.83-.34-1.43-.59-1.8-.25-.37-.51-.6-.8-.68-.29-.08-.77-.13-1.46-.13h-2.03v8.9c0,.99.02,1.63.07,1.94.05.31.17.54.38.69.2.15.59.22,1.15.22h.61v.43h-6.29v-.43h.65c.54,0,.91-.07,1.12-.2.21-.14.34-.35.4-.64.06-.29.09-.96.09-2.01v-8.9h-1.87c-.81,0-1.36.04-1.64.12-.28.08-.54.31-.79.7-.24.39-.43.99-.56,1.79Z"/><path class="cls-1" d="m127.3,62.38h-4.79l-.33.8c-.48,1.16-.73,1.92-.73,2.27,0,.38.13.66.39.86.26.2.59.29.99.29v.43h-3.75v-.43c.56-.09.97-.28,1.25-.59.27-.31.6-.95.99-1.94.03-.09.18-.45.45-1.08l3.66-8.75h.36l4.21,10.02.58,1.32c.13.3.31.53.53.7.22.17.55.28.99.32v.43h-4.96v-.43c.61,0,1.02-.04,1.23-.13.21-.09.32-.27.32-.53,0-.14-.14-.54-.43-1.22l-.97-2.33Zm-.16-.42l-2.23-5.38-2.22,5.38h4.45Z"/><path class="cls-1" d="m143.33,63.32l-.09,3.71h-10.71v-.43h.37c.54,0,.91-.07,1.12-.2.21-.14.34-.35.4-.64.06-.29.09-.96.09-2.01v-6.18c0-1-.03-1.65-.09-1.94-.06-.29-.18-.49-.37-.6-.19-.11-.6-.17-1.24-.17h-.28v-.43h6.05v.43h-.56c-.62,0-1.03.05-1.22.15-.19.1-.32.29-.39.57-.07.28-.1.94-.1,1.99v6.6c0,.91.02,1.48.07,1.71.05.23.18.41.4.53.22.13.69.19,1.42.19h.96c.77,0,1.35-.07,1.73-.2.37-.14.73-.43,1.07-.89.34-.46.65-1.19.93-2.19h.44Z"/><path class="cls-1" d="m154.83,63.32l-.09,3.71h-10.71v-.43h.37c.54,0,.91-.07,1.12-.2.21-.14.34-.35.4-.64.06-.29.09-.96.09-2.01v-6.18c0-1-.03-1.65-.09-1.94-.06-.29-.18-.49-.37-.6-.19-.11-.6-.17-1.24-.17h-.28v-.43h6.05v.43h-.56c-.62,0-1.03.05-1.22.15-.19.1-.32.29-.39.57-.07.28-.1.94-.1,1.99v6.6c0,.91.02,1.48.07,1.71.05.23.18.41.4.53.22.13.69.19,1.42.19h.96c.77,0,1.35-.07,1.72-.2.38-.14.73-.43,1.07-.89.34-.46.65-1.19.93-2.19h.44Z"/><path class="cls-1" d="m163.21,62.38h-4.79l-.33.8c-.48,1.16-.73,1.92-.73,2.27,0,.38.13.66.39.86.26.2.59.29.99.29v.43h-3.75v-.43c.56-.09.97-.28,1.25-.59.27-.31.6-.95.99-1.94.03-.09.18-.45.45-1.08l3.66-8.75h.36l4.21,10.02.58,1.32c.13.3.31.53.53.7.22.17.55.28.99.32v.43h-4.96v-.43c.61,0,1.02-.04,1.23-.13.21-.09.32-.27.32-.53,0-.14-.14-.54-.43-1.22l-.97-2.33Zm-.16-.42l-2.23-5.38-2.22,5.38h4.45Z"/><path class="cls-1" d="m168.56,54.42h5.86v.43h-.32c-.62,0-1.03.05-1.22.15-.19.1-.32.29-.38.57-.06.28-.09.94-.09,1.99v8.24c0,1.07-.04,1.88-.13,2.44-.08.56-.32,1.1-.7,1.63-.38.53-.9.94-1.54,1.22-.64.29-1.39.43-2.24.43-.95,0-1.69-.18-2.2-.53-.51-.35-.77-.77-.77-1.25,0-.29.09-.54.27-.73.18-.2.41-.3.67-.3s.5.09.68.27c.18.18.27.4.27.66,0,.16-.04.32-.11.48-.07.15-.1.26-.1.33,0,.2.12.35.35.46.24.11.53.17.87.17.71,0,1.3-.22,1.79-.67.48-.45.77-.98.87-1.59.1-.61.15-1.62.15-3.03v-8.24c0-1-.03-1.65-.09-1.94-.06-.29-.18-.49-.37-.6-.19-.11-.6-.17-1.24-.17h-.3v-.43Z"/><path class="cls-2" d="m89.62,65.23c-.11,0-.11.08-.2.08-.11,0-.17.08-.11.08.06.03.25.11.25.11.11.03.28-.03.25-.11-.03-.08-.11-.17-.2-.17Z"/><path class="cls-2" d="m101.99,42.64h-10.48c-.73,0-1.39.6-1.47,1.33,0,0-.06.59-.06,1.07,0,1.04.58,2.37,1.56,3.35.98.98,2.72,2.14,4.4,3.24,1.68,1.1,2.26,2.08,2.83,2.83.58.75,1.85,2.54,1.91,2.83.06.29-.41.23-.93,0-.52-.23-2.31-2.08-2.89-2.78-.58-.69-1.33-1.04-2.31-1.39l-.98-.35c-.57.1-.62.6-.1,1.12,0,0,.62.62.91.91.29.29,1.1,1.21.52,1.35-.58.14-1.45-.54-1.74-.83-.29-.29-3.12-2.2-3.76-2.72-.64-.52-1.13-1.77-1.13-1.77-.27-.68-.87-.78-1.34-.21,0,0-2.86,3.48-3.2,3.65-.35.17-1.56,1.1-2.02,1.5-.46.41-1.16.52-1.33.37-.17-.15.12-.83.58-1.24.46-.4,1.45-1.33,1.57-1.5l.13-.17c-.07-.22-.23-.43-.37-.46l-.35.06c-.35.06-1.1.12-1.5.29-.4.17-1.39.69-2.14,1.45-.75.75-2.78,2.83-3.01,3.07-.23.23-.69.06-.52-.41.17-.46,1.97-3.24,3.07-4.4,1.1-1.16,3.93-2.6,5.26-3.7,1.33-1.1,2.31-3.01,2.37-3.99.02-.42-.03-1.19-.03-1.19-.06-.73-.7-1.33-1.43-1.33h-10.57c-.73,0-1.33.6-1.33,1.33v32.32c0,.73.6,1.33,1.33,1.33h28.56c.73,0,1.33-.6,1.33-1.33v-32.32c0-.73-.6-1.33-1.33-1.33Zm-13.04,30.2l-.03,1.15-.08,2.25c-.45.14-.81.11-.81.11,0,0-.2.03-.48.08l-.08-2.7v-1.18l-.11-4.97c.14-.03.25-.06.28-.03.11.11.39.17.59.17.23,0,.34-.03.84-.23l-.11,5.34Zm2.92-7.02h-1.94s-.06.28.62.28.79.03.79.03c0,0-1.52.59-2.13.81-.59.22-.73.25-.96.25-.2,0-.48-.03-.59-.14-.14-.14-2.08.62-2.08,2.25,0,1.49.73,2.22,1.4,2.56v2.16c-1.35-.45-3.43-1.57-3.43-4.36,0-3.93,3.51-4.61,3.71-4.69.17-.09.56-.45.73-.45.11,0,.59-.03.59-.03,0,0,1.04.42,2.11.62,1.29.25,1.18.7,1.18.7Zm-1.14-7.36l.05.03.04,2.09c.09.04.16.11.16.22,0,.05-.03.08-.05.12h.05l.26,3.01h-1.05l.26-3.01h.05s-.05-.08-.05-.12c0-.1.07-.17.15-.22l-.03-1.91-2.04-1.13c-.09.08-.2.13-.33.13-.27,0-.48-.22-.48-.48s.22-.48.48-.48.48.22.48.48c0,.05,0,.09-.02.13l2.06,1.14Zm.18,1.94v-1.5s.6-.28.6-.28v1.48s0,.01,0,.02l-.59.28Zm-.59.28l-1.93.93c-.17.05-.34.07-.52,0-1.04-.5-2.09-1-3.13-1.5v-1.49l3.38,1.63,2.2-1.06v1.49Zm-1.15,1.4l-.06,2.19c-.39-.14-.67-.25-.67-.25,0,0-.42.03-.59.03-.11,0-.37.22-.56.36l-.06-2.33.97.31.97-.31Zm1.76-3.74l-2.04-1.14s0-.01,0-.02c0-.38-.31-.69-.69-.69s-.69.31-.69.69.31.69.69.69c.12,0,.24-.03.35-.09l1.7.89-2.12,1.03-5.11-2.46v-.15l5.11-2.46,5.18,2.54-2.37,1.16Z"/></svg>