<?xml version="1.0" encoding="UTF-8"?><svg id="Layer_1" xmlns="http://www.w3.org/2000/svg" viewBox="0 0 246.52 123.71"><defs><style>.cls-1,.cls-2{fill:#a7a9ac;}.cls-2{fill-rule:evenodd;}</style></defs><path class="cls-2" d="m162.12,58.84h3.06v-.32l-.88-.12c-.16-.01-.35-.06-.35-.34.06-.34.16-.66.29-.98l.74-2.03c.51-.09,1.02-.14,1.53-.15.54,0,1.09.05,1.62.15l1.02,2.75c.04.1.07.2.09.31,0,.16-.19.23-.45.28l-.66.12v.32h3.62v-.32l-.58-.09c-.38-.07-.53-.41-.74-.99l-3.26-8.44-.42.15c-.12.28-.23.57-.35.86l-3.04,7.37c-.35.85-.42,1.01-.98,1.09l-.28.04v.32h0Zm4.45-7.86l1.34,3.53c-.47-.05-.93-.08-1.4-.07-.44,0-.89.04-1.33.07l1.39-3.53Z"/><path class="cls-1" d="m106.92,52.96c-.79-.47-1.42-.93-1.42-1.79-.02-.85.65-1.56,1.5-1.59.03,0,.06,0,.09,0,1.65,0,1.88,1.27,2.03,2h.36c0-.36-.03-1.55-.15-2.01-.62-.33-1.31-.49-2.01-.47-1.55,0-3.04.74-3.04,2.52,0,1.09.77,2,1.6,2.45l.93.51c1.14.51,2.03,1.24,2.03,2.3,0,1.14-.74,1.79-1.75,1.79-2,0-2.54-1.73-2.7-2.78l-.47.12c0,.92.2,2,.47,2.57.45.28,1.15.58,2.29.58,1.55,0,3.37-.76,3.37-2.73,0-1.75-1.2-2.36-2.35-3.02l-.8-.45s0,0,0,0Zm3.32,5.98h6.68c.27-.78.43-1.59.48-2.42l-.36-.06c-.29,1.2-.44,2.07-2.76,2.07-.53-.01-1.07-.08-1.59-.19v-4.2h1.3c1.14,0,1.4.01,1.49.61l.07.5h.38v-2.62h-.38l-.07.49c-.09.6-.35.61-1.49.61h-1.3v-4.01h1.21c2.06,0,2.09.22,2.41,1.78l.35-.06c0-.13.03-.25.03-.58,0-.52-.06-1.04-.16-1.55h-6.29v.32l.53.04c.57.06.57.13.57,1.91v5.07c0,1.78,0,1.85-.57,1.91l-.53.04v.32h0Zm9.39,0h4.04v-.32l-.52-.04c-.82-.06-.82-.13-.82-1.91v-6.94h.76c2.06,0,2.09.22,2.41,1.91h.35c0-.06.03-.45.03-.64,0-.56-.06-1.12-.16-1.68h-8.13c-.1.55-.15,1.11-.16,1.68,0,.19.03.58.03.64h.35c.32-1.69.35-1.91,2.41-1.91h.76v6.94c0,1.78,0,1.85-.8,1.91l-.54.04v.32h0Z"/><path class="cls-2" d="m130.74,59.16c2.89,0,5.22-1.91,5.22-5.12s-2.26-4.94-4.95-4.94c-2.82,0-5.25,1.95-5.25,5.1s2.09,4.96,4.98,4.96h0Zm-3.44-5.23c0-2.52,1.28-4.34,3.47-4.34s3.66,2.08,3.66,4.84c0,2.13-.93,4.26-3.41,4.26-2.2,0-3.72-1.78-3.72-4.75h0Z"/><path class="cls-1" d="m136.02,58.94h3.15v-.32l-.53-.04c-.76-.07-.76-.47-.76-2.07v-4.91l4.38,4.62c1.52,1.56,2.42,2.52,2.74,2.86l.32-.13v-7.19c0-1.57.1-2.03.63-2.07l.53-.04v-.32h-3.15v.32l.53.04c.8.07.8.47.8,2.07v5c-1.59-1.56-5.89-6.02-7.1-7.56l-.34.13v7.18c0,1.57-.1,2.03-.67,2.07l-.53.04v.32h0Zm14.96-.1h3.55v-.32l-.53-.04c-.57-.06-.57-.13-.57-1.91v-2.59h5.2v2.59c0,1.78,0,1.85-.57,1.91l-.52.04v.32h3.55v-.32l-.53-.04c-.57-.06-.57-.13-.57-1.91v-5.07c0-1.78,0-1.85.57-1.91l.53-.04v-.32h-3.55v.32l.52.04c.57.06.57.13.57,1.91v2.07h-5.2v-2.07c0-1.78,0-1.85.57-1.91l.53-.04v-.32h-3.55v.32l.53.04c.57.06.57.13.57,1.91v5.07c0,1.78,0,1.85-.57,1.91l-.53.04v.32Zm21.86,0h6.52c.27-.78.43-1.6.48-2.42l-.36-.06c-.29,1.2-.44,2.07-2.6,2.07-.53-.02-1.07-.07-1.59-.18v-6.76c0-1.78,0-1.85.57-1.91l.53-.04v-.32h-3.55v.32l.52.04c.57.06.57.13.57,1.91v5.07c0,1.78,0,1.85-.57,1.91l-.52.04v.32h0Zm8.09,0h6.52c.27-.78.43-1.6.48-2.42l-.36-.06c-.29,1.2-.44,2.07-2.6,2.07-.53-.02-1.07-.07-1.59-.18v-6.76c0-1.78,0-1.85.57-1.91l.53-.04v-.32h-3.55v.32l.52.04c.57.06.57.13.57,1.91v5.07c0,1.78,0,1.85-.57,1.91l-.52.04v.32Zm-68.66,12.07l.44-.13v-7.36c0-1.78,0-1.85.57-1.91l.53-.04v-.32h-3.55v.32l.53.04c.57.06.57.13.57,1.91v5.93c-.67.75-1.64,1.18-2.65,1.17-2.27,0-2.62-1.39-2.62-3.48v-3.62c0-1.78,0-1.85.57-1.91l.53-.04v-.32h-3.55v.32l.53.04c.57.06.57.13.57,1.91v3.85c0,1.99.25,3.72,3.27,3.72,1.94,0,3.16-.92,3.36-.92.22,0,.34.2.54.41l.37.42h0s0,0,0,0Zm2.33-.13h3.16v-.32l-.53-.04c-.76-.07-.76-.47-.76-2.07v-4.92l4.39,4.63c1.52,1.56,2.43,2.53,2.75,2.86l.32-.13v-7.2c0-1.58.1-2.03.63-2.07l.53-.04v-.32h-3.16v.32l.53.04c.8.07.8.47.8,2.07v5.01c-1.59-1.56-5.91-6.03-7.12-7.58l-.34.13v7.2c0,1.58-.1,2.03-.67,2.07l-.53.04v.32h0s0,0,0,0Zm11.6,0h3.55v-.32l-.53-.04c-.57-.06-.57-.13-.57-1.91v-5.08c0-1.78,0-1.85.57-1.91l.53-.04v-.32h-3.55v.32l.53.04c.57.06.57.13.57,1.91v5.08c0,1.78,0,1.85-.57,1.91l-.53.04v.32h0s0,0,0,0Zm8.79.22c.17-.05.34-.12.5-.22.13-.38.86-2.16,1.7-4.18l.99-2.39c.37-.7.83-2.1,1.16-2.42.12-.12.27-.2.44-.23l.38-.09v-.32h-3.16v.32l.66.09c.28.04.57.12.57.41,0,.45-2.3,6.13-2.63,7.01l-2.53-6.51c-.08-.19-.15-.38-.19-.58,0-.29.42-.34.66-.36l.45-.04v-.32h-3.64v.32l.42.04c.48.04.64.58.86,1.12l3.36,8.37s0,0,0,0Zm5.73-.22h6.7c.27-.78.43-1.6.48-2.42l-.37-.06c-.29,1.2-.44,2.07-2.76,2.07-.54-.01-1.07-.08-1.59-.19v-4.21h1.3c1.14,0,1.4.01,1.49.61l.07.5h.38v-2.63h-.38l-.07.5c-.09.6-.35.61-1.49.61h-1.3v-4.02h1.21c2.06,0,2.09.22,2.41,1.78l.35-.06c0-.13.03-.25.03-.58,0-.52-.06-1.04-.16-1.55h-6.3v.32l.53.04c.57.06.57.13.57,1.91v5.08c0,1.78,0,1.85-.57,1.91l-.53.04v.32h0s0,0,0,0Z"/><path class="cls-2" d="m149.06,70.77h3.54v-.32l-.53-.04c-.56-.06-.56-.13-.56-1.91v-1.93h.54c.31,0,.67,0,.91.19.19.16.53.72.91,1.43l.58,1.12c.44.8,1.11,1.46,2.08,1.46h1.13v-.32c-.25.01-.5-.04-.73-.15-.36-.2-1.01-1.07-1.62-2.16-.39-.7-.88-1.64-1.1-2.04.8-.38,2.02-1.18,2.02-2.54,0-2.22-1.96-2.42-3.35-2.42h-3.82v.32l.53.04c.57.06.57.13.57,1.91v5.08c0,1.78,0,1.85-.57,1.91l-.53.04v.32h0s0,0,0,0Zm2.46-9.04c.3-.07.6-.11.91-.12,1.14,0,2.27.53,2.27,2.23s-1.11,2.31-2.34,2.31h-.83v-4.42h0Z"/><path class="cls-1" d="m161.38,64.79c-.79-.47-1.42-.93-1.42-1.8-.02-.86.65-1.57,1.5-1.59.03,0,.06,0,.09,0,1.65,0,1.89,1.27,2.03,2h.37c0-.37-.03-1.55-.15-2.02-.62-.33-1.32-.49-2.02-.47-1.55,0-3.04.74-3.04,2.53,0,1.1.77,2,1.61,2.45l.94.51c1.14.51,2.03,1.24,2.03,2.31,0,1.14-.75,1.8-1.75,1.8-2,0-2.54-1.74-2.71-2.79l-.47.12c0,.92.2,2,.47,2.57.45.28,1.16.58,2.3.58,1.55,0,3.38-.76,3.38-2.73,0-1.75-1.2-2.37-2.35-3.02l-.8-.45h0s0,0,0,0Zm4.41,5.99h3.55v-.32l-.53-.04c-.57-.06-.57-.13-.57-1.91v-5.08c0-1.78,0-1.85.57-1.91l.53-.04v-.32h-3.55v.32l.53.04c.57.06.57.13.57,1.91v5.08c0,1.78,0,1.85-.57,1.91l-.53.04v.32h0s0,0,0,0Zm6.54,0h4.05v-.32l-.53-.04c-.82-.06-.82-.13-.82-1.91v-6.95h.76c2.06,0,2.09.22,2.41,1.91h.35c0-.06.03-.45.03-.64,0-.56-.06-1.13-.16-1.68h-8.14c-.1.55-.15,1.12-.16,1.68,0,.19.03.58.03.64h.35c.32-1.69.35-1.91,2.41-1.91h.76v6.95c0,1.78,0,1.85-.8,1.91l-.54.04v.32h0Zm9.23,0h4.05v-.32l-.63-.04c-.72-.02-.72-.44-.72-.89v-1.87c.03-.63.21-1.25.53-1.8l.66-1.24c.73-1.4,1.21-2.28,1.8-2.83.12-.12.27-.2.44-.23l.38-.09v-.32h-3.16v.32l.66.09c.28.04.57.12.57.41,0,.22-1.84,3.8-2.21,4.38-.38-.61-2.32-4.15-2.32-4.47,0-.29.42-.34.66-.36l.54-.04v-.32h-3.71v.32l.42.04c.39.04.57.34.77.72l1.94,3.64c.32.61.67,1.27.67,1.8v1.87c0,.45,0,.88-.72.89l-.63.04v.32h0s0,0,0,0Zm-117.32,7.55c0-.16.04-.16.44-.26v1.83c0,.08-.07.1-.14.1v.07h1.15v-.07c-.07,0-.14-.02-.14-.1v-2.68c0-.08.07-.1.15-.1v-.07h-1.13v.07s.12.02.12.1v.18c-.05.01-.35.14-.37.14-.06,0-.06-.1-.06-.14h-.07v.93h.07s0,0,0,0Z"/><path class="cls-2" d="m76.65,77.01c-.44,0-1.37.13-1.37.85,0,.26.16.5.4.6-.29.14-.54.35-.54.73,0,.75.92.92,1.5.92s1.51-.17,1.51-.92c0-.38-.25-.59-.6-.71.27-.09.45-.34.46-.62,0-.71-.92-.85-1.37-.85,0,0,0,0,0,0Zm0,1.79c.23,0,.67.06.67.37s-.44.37-.67.37-.67-.06-.67-.37.44-.37.67-.37Zm0-.59c-.21,0-.54-.06-.54-.32s.33-.32.54-.32.54.06.54.32-.33.32-.54.32Zm25.12-1.08l-.06-.02s-.06.08-.1.08c-.11-.02-.22-.05-.32-.09-.26-.06-.52-.09-.78-.09-.92,0-1.69.63-1.69,1.58,0,1.05.67,1.52,1.65,1.52.62,0,1.37-.29,1.37-1.03,0-.69-.63-1.04-1.23-1.04-.35-.02-.7.11-.96.34,0-.56.42-.81.95-.81.49,0,.74.16.74.26,0,.02,0,.04,0,.06l.05.03.42-.79h0Zm-.72,1.93c0,.27-.28.41-.63.41s-.63-.14-.63-.41.28-.43.63-.43.63.16.63.43Z"/><path class="cls-1" d="m87.61,79.79l.07.03s.05-.03.09-.04c.04,0,.09.03.13.05.39.18.81.28,1.23.28.92,0,1.57-.4,1.57-1.06,0-.73-.61-1.01-1.25-1.01-.27,0-.53.04-.78.12v-.5h1.67s.1.03.1.14h.07v-.9h-.07c0,.12-.06.14-.1.14h-2.55v.07c.06,0,.13.02.13.1v.97s-.02.06-.05.06c-.02,0-.05,0-.07-.01l-.04.06,1,.6.03-.06s-.04-.05-.04-.08c0-.07.11-.15.44-.15.42,0,.65.18.65.4,0,.27-.26.42-.65.42-.63,0-.96-.25-.96-.37,0-.03,0-.06.02-.09l-.06-.05-.58.87h0Zm98.94-9.02h-.2v-1.13h-.3v-.18h.8v.19h-.3v1.13h0Zm1.39-.8l-.38.85-.38-.85-.14.8h-.2l.28-1.41.45,1.02.44-1.02.28,1.41h-.2l-.14-.8h0Z"/><path class="cls-2" d="m96.28,50.84v-1.53s.44,0,.44,0l.45.26v-1.16l-.45.27h-.43s0-.44,0-.44l.27-.45h-1.16l.27.45v.44s-.43,0-.43,0l-.45-.27v1.16l.45-.26h.44v1.54l-5.39,7.85h-1.28s-.76-1.7-.76-1.7v-2.45h-1.1l-.8-1.8h-1.35s0-3.85,0-3.85h1.74l-1.6-1.67-1.91-5.58h-.09v-.88c.23-.08.42-.25.52-.47h.9v-.68h-.89c-.1-.23-.29-.4-.52-.48v-.7h-.57v.71c-.22.08-.4.25-.49.47h-.9v.68h.9c.09.21.27.38.48.46v.89h-.07l-1.95,5.58-1.58,1.67h1.74v3.85h-1.33s-.81,1.79-.81,1.79h-1.12v2.48l-.75,1.66h-1.33v-3.15h-1.49c0-1.84-1.22-3.46-2.98-3.99v-.95h-.91v-1.28h.41l.43.24v-1.1l-.42.26h-.41s0-.41,0-.41l.25-.42h-1.1l.26.42v.41s-.41,0-.41,0l-.42-.26v1.1l.42-.24h.41v1.28h-.88v.94c-1.77.52-2.99,2.15-3,4h-1.51v15.23h1.37v-10.79h1.87v10.79h1.51v-10.79h1.87v10.79h1.51v-10.79h1.87v10.79h8.01v-3.08h1.64v3.08h8.51v-7.38c0-.72.84-2.13.84-2.13,0,0,.84,1.44.84,2.12v7.38h1.3v-8.73c0-.38.26-.99.49-1.46.18-.38.35-.66.35-.66,0,0,.17.28.36.66h.02-.02c.23.46.48,1.06.48,1.46v8.73h1.28v-7.38c0-.68.84-2.12.84-2.12,0,0,.84,1.4.84,2.12v7.38h1.89v-12.12l-5.37-7.81h0Zm-29.03,8.12h-1.87v-1.87h1.87v1.87h0Zm3.38,0h-1.87v-1.87h1.87v1.87h0Zm3.38,0h-1.87v-1.87h1.87v1.87h0Zm10.97-1.35c0-.68.84-2.12.84-2.12,0,0,.84,1.4.84,2.12v1.35h-1.67v-1.35Zm-2.92-7.71l.8-.7.8.7v2.87h-1.6v-2.87h0Zm-1.34,16.78h-1.67v-2.77h1.67v2.77Zm0-6.09v2.16h-1.67v-2.77h1.67v.61Zm0-1.63h-1.67v-1.35c0-.72.84-2.12.84-2.12,0,0,.84,1.44.84,2.12v1.35h0Zm2.93,7.71h-1.64v-2.77h1.64v2.77Zm0-6.09v2.16h-1.64v-2.77h1.64v.61Zm.03-1.63h-1.67v-1.69c0-.68.84-2.12.84-2.12,0,0,.84,1.4.84,2.12v1.69Zm2.97,7.71h-1.69v-2.77h1.69v2.77Zm0-6.09v2.16h-1.69v-2.77h1.69v.61Zm9.32-1.85h-.8v-1.69l.8-1.24.8,1.24v1.69h-.8,0Z"/><path class="cls-1" d="m63.97,73.04h123.34v1.33H63.97v-1.33Z"/></svg>