<?xml version="1.0" encoding="UTF-8"?><svg id="Layer_1" xmlns="http://www.w3.org/2000/svg" viewBox="0 0 246.52 123.71"><defs><style>.cls-1{fill:#a7a9ac;}</style></defs><path class="cls-1" d="m104.87,65.66c0-6.84-5.53-12.39-12.34-12.39s-12.34,5.55-12.34,12.39,5.53,12.39,12.34,12.39,12.34-5.55,12.34-12.39m-7.41,0c0,2.74-2.21,4.96-4.94,4.96s-4.94-2.22-4.94-4.96,2.21-4.96,4.94-4.96,4.94,2.22,4.94,4.96"/><path class="cls-1" d="m138.35,78.05v-15.32c0-5.22-4.22-9.46-9.43-9.46-2.36,0-4.52.87-6.17,2.31-1.65-1.44-3.81-2.31-6.17-2.31-5.21,0-9.43,4.24-9.43,9.46v15.32h6.51v-15.32c0-1.62,1.31-2.93,2.92-2.93s2.92,1.31,2.92,2.93v15.32h6.51v-15.32c0-1.62,1.31-2.93,2.92-2.93s2.92,1.31,2.92,2.93v15.32h6.51Z"/><path class="cls-1" d="m174.77,60.38h10.7l1.89-7.11h-12.59c-4.39,0-7.94,3.57-7.94,7.97s3.39,7.79,7.63,7.96c0,0,5.7.02,5.71.02.47,0,.86.39.86.86s-.37.85-.84.86h0s-11.02,0-11.02,0l-1.57,7.11h12.59c4.39,0,7.94-3.57,7.94-7.97s-3.48-7.89-7.8-7.97c0,0-5.53,0-5.54,0-.47,0-.86-.39-.86-.86s.37-.85.84-.86h0Z"/><path class="cls-1" d="m165.25,65.73c0-6.88-5.56-12.46-12.42-12.46s-12.42,5.58-12.42,12.46c0,6.49,4.95,11.83,11.27,12.41v-7.37h-5.49v-1.8h5.49v-2.37h-7.13v-1.8h7.13v-2.37h-5.49v-1.8h5.49v-3.84h2.3v3.84h5.49v1.8h-5.49v2.37h7.13v1.8h-7.13v2.37h5.49v1.8h-5.49v7.37c6.32-.58,11.27-5.91,11.27-12.41"/><path class="cls-1" d="m65.43,60.33h10.7l1.89-7.11h-12.59c-4.39,0-7.94,3.57-7.94,7.97s3.39,7.79,7.63,7.96c0,0,5.7.02,5.71.02.47,0,.86.39.86.86s-.37.85-.84.86h0s-11.02,0-11.02,0l-1.57,7.11h12.59c4.39,0,7.94-3.57,7.94-7.97s-3.48-7.89-7.8-7.97c0,0-5.53,0-5.54,0-.47,0-.86-.39-.86-.86s.37-.85.84-.86h0Z"/></svg>