<?xml version="1.0" encoding="UTF-8"?><svg id="Layer_1" xmlns="http://www.w3.org/2000/svg" viewBox="0 0 246.52 123.71"><defs><style>.cls-1{fill:#a7a9ac;}</style></defs><path class="cls-1" d="m132.71,51.23c.18-.39.27-.87.66-1.12.79,1.93,1.51,3.89,2.29,5.82.09.35.47.4.76.47,0,.05,0,.14,0,.19-.84-.02-1.69.05-2.53-.05.26-.19.57-.26.88-.35-.23-.69-.45-1.4-.77-2.06-.66-.15-1.35-.1-2.02-.02-.22.7-.61,1.36-.68,2.1.26.09.53.12.8.17,0,.05-.01.16-.02.21-.71,0-1.42.03-2.13-.04.28-.22.7-.3.82-.68.65-1.55,1.29-3.1,1.93-4.65m.28.28c-.29.74-.59,1.49-.88,2.24.58-.04,1.17-.04,1.75,0-.29-.75-.57-1.49-.87-2.23m-33.42-1.21c.82.02,1.65-.04,2.47.04-.23.16-.51.23-.76.34-.18.86-.05,1.74-.09,2.61-.04,1.05.11,2.12-.15,3.15-.22.79-1.03,1.24-1.8,1.38.28-.33.68-.59.83-1.01.2-.52.21-1.1.21-1.65,0-1.29,0-2.58,0-3.87-.01-.23,0-.47-.12-.67-.2-.05-.4-.09-.6-.12v-.2m41.22.05c.83-.09,1.66-.03,2.49-.05v.2c-.26.08-.72.01-.69.39-.05,1.16,0,2.31-.02,3.47.01.64.07,1.43.68,1.81.9.48,2.04.19,2.75-.49,0-1.42,0-2.85,0-4.26-.02-.26.01-.54-.12-.78-.2-.07-.41-.09-.61-.14v-.2c.83.01,1.67-.04,2.5.04-.25.13-.52.21-.77.34-.11.23-.08.49-.09.74,0,1.73,0,3.45,0,5.17-.08.02-.23.06-.31.08-.18-.19-.36-.38-.54-.56-1.04.55-2.3.86-3.43.43-.62-.23-.93-.9-.95-1.52-.08-1.36.02-2.73-.05-4.09,0-.43-.58-.37-.84-.59m15.26.81c.07-.03.19-.08.25-.1.65,1.64,1.27,3.28,1.92,4.92.08.29.34.42.63.38.02.06.06.17.09.23-.75,0-1.49.06-2.23-.05.25-.12.51-.21.77-.3-.2-.59-.43-1.17-.64-1.76-.58-.08-1.17-.08-1.75,0-.21.59-.48,1.16-.6,1.78.28.1.56.16.84.26-.66.15-1.35.1-2.02.04.29-.16.67-.25.77-.61.67-1.59,1.32-3.18,1.97-4.77m-.85,2.98c.5-.03,1-.03,1.5,0-.25-.63-.49-1.27-.74-1.91-.26.64-.51,1.28-.76,1.91m-51.06-2.92c.97-.3,2.12-.17,2.91.49,1.37,1.19,1.16,3.72-.46,4.6-1.11.61-2.65.56-3.61-.31-.77-.71-.94-1.85-.72-2.83.22-.93.97-1.68,1.88-1.95m.25.23c-.74.24-1.19.99-1.29,1.72-.13.87-.03,1.85.54,2.56.63.81,1.99.95,2.75.23.52-.51.68-1.29.67-2-.02-.74-.21-1.52-.75-2.07-.48-.5-1.26-.67-1.92-.45m4.66-.07c.69-.45,1.57-.35,2.32-.1.05.44.09.88.04,1.32-.32-.45-.42-1.19-1.11-1.24-.73-.2-1.41.67-.98,1.31.51.64,1.39.82,1.98,1.37.63.56.65,1.69-.02,2.22-.69.54-1.69.56-2.48.25-.36-.11-.37-.54-.44-.84-.03-.3-.18-.69.15-.87.18.49.29,1.08.77,1.39.45.3,1.17.35,1.56-.08.34-.41.29-1.05-.09-1.42-.57-.57-1.49-.69-1.97-1.36-.45-.58-.37-1.54.27-1.95m3.15-.15c1.22-.09,2.46-.06,3.69-.02.1.44.14.91-.03,1.35-.2-.34-.17-.9-.61-1.05-.5-.12-1.02-.07-1.52-.07v2.22c.46-.01.93.04,1.38-.05.17-.21.25-.47.4-.69.07.55.05,1.11.03,1.67-.04-.02-.13-.06-.18-.08-.06-.18-.11-.36-.2-.52-.47-.12-.96-.05-1.43-.07v2.34c.6.08,1.25.18,1.82-.06.46-.18.51-.75.73-1.13.21.5-.04,1.03-.15,1.52-1.3-.05-2.62.1-3.92-.08.27-.14.79-.1.72-.54.02-1.49.06-2.98-.03-4.47-.24-.08-.48-.14-.7-.27m4.5.11s.07-.12.09-.16c1.08.06,2.2-.14,3.26.16.92.27,1.15,1.55.55,2.22-.49.54-1.27.81-1.99.69.43-.22,1.01-.28,1.25-.74.26-.51.28-1.2-.1-1.65-.41-.43-1.05-.39-1.6-.34,0,1.31,0,2.61,0,3.92,0,.28,0,.57.09.84.26.09.53.14.79.23-.79.16-1.62.1-2.42.03.23-.11.51-.15.71-.31.11-.89.02-1.79.05-2.68-.02-.69.06-1.38-.07-2.06-.2-.06-.4-.1-.6-.15m4.55-.16c.72.02,1.44-.05,2.15.06-.22.11-.47.18-.7.26-.08.71-.04,1.42-.05,2.13.97,0,1.93,0,2.9,0,0-.72.04-1.44-.04-2.15-.15-.1-.69.02-.55-.27.7,0,1.44-.13,2.13.09-.23.08-.46.14-.7.18-.1,1.09-.03,2.19-.05,3.29,0,.5-.04,1.02.08,1.52.22.08.44.15.66.22-.74.12-1.54.15-2.27-.02.23-.07.46-.13.7-.19.09-.81.03-1.63.05-2.44h-2.91c.03.8-.07,1.61.06,2.4.22.1.46.16.69.25-.75.12-1.53.13-2.27,0,.22-.07.44-.15.66-.22.12-.45.07-.93.09-1.39-.02-1.15.04-2.3-.05-3.44-.19-.03-.39-.06-.58-.09,0-.05,0-.14,0-.19m27.19-.14c.45.31.76.76,1.14,1.15.99,1.07,2.01,2.12,3.05,3.14-.03-1.2.06-2.4-.04-3.59-.04-.36-.47-.31-.73-.39,0-.04,0-.13.01-.17.65,0,1.3-.03,1.95.05-.27.17-.77.17-.75.59-.12,1.64.04,3.29-.09,4.93-1.46-1.34-2.76-2.83-4.15-4.24,0,.97,0,1.95,0,2.93,0,.26,0,.52.09.77.2.19.52.18.75.3-.66.16-1.36.09-2.04.03.22-.12.5-.16.69-.33.16-.46.08-.96.1-1.44.01-1.24-.03-2.48.03-3.72m11.19.12s.12-.02.16-.03c1.31,1.42,2.62,2.84,4.01,4.18,0-.94,0-1.88,0-2.82,0-.31.01-.63-.09-.93-.18-.16-.44-.15-.66-.21v-.17h1.8s0,.12,0,.16c-.19.09-.54.04-.57.32-.04.14-.06.28-.06.42-.04,1.55.04,3.1-.04,4.65-.42-.28-.75-.68-1.1-1.04-1.03-1.06-2.05-2.14-3.07-3.21.02,1.18-.06,2.37.04,3.55.03.35.45.3.7.39v.15c-.62-.06-1.32.18-1.84-.2.3.03.68-.04.66-.41.11-1.6-.02-3.21.06-4.81m5.54.07c.76-.08,1.55-.11,2.31.02-.24.09-.48.15-.71.25-.15.94-.04,1.9-.07,2.86.02.64-.02,1.46.59,1.86.78.41,1.75.16,2.37-.41-.02-1.45.07-2.91-.06-4.36-.19-.03-.38-.05-.57-.08,0-.05,0-.15,0-.2h2.01s.01.14.02.19c-.19.03-.38.06-.57.09-.12,1.75.01,3.51-.07,5.26-.27-.13-.5-.33-.72-.53-.88.44-1.92.71-2.88.37-.48-.16-.78-.63-.84-1.12-.15-1.29.05-2.6-.11-3.88-.16-.18-.48-.2-.69-.33m6.24-.04c1.2-.04,2.4,0,3.61-.02.06.46.12.94-.02,1.39-.17-.32-.23-.7-.47-.98-.52-.26-1.14-.12-1.69-.16,0,.74,0,1.48,0,2.23.48-.03,1,.09,1.46-.1.08-.17.12-.35.18-.52.04,0,.14,0,.19,0,0,.54.02,1.1-.06,1.64-.13-.23-.22-.48-.35-.69-.46-.14-.95-.05-1.42-.07,0,.78,0,1.56,0,2.34.6.08,1.26.18,1.84-.07.45-.19.49-.74.72-1.11.2.5-.04,1.02-.15,1.51-1.31-.04-2.63.09-3.92-.07.22-.1.47-.15.69-.26.09-.62.04-1.26.05-1.89-.01-.96.04-1.92-.04-2.87-.19-.1-.59,0-.6-.29m-34.02,4.39c.37-.2.88.09.9.51.07.45-.47.83-.88.63-.49-.18-.5-.94-.02-1.14m-37.99,3.7c.87-.06,1.77-.15,2.62.04-.26.1-.53.15-.78.26-.08.35-.08.71-.08,1.06.01,1.49,0,2.98,0,4.48.68.08,1.42.22,2.07-.08.5-.23.55-.82.73-1.27.39.46-.02,1.08-.03,1.61.22-.14.47-.28.56-.54.51-1.2,1-2.41,1.5-3.62.19-.45.33-.95.68-1.32.71,1.66,1.3,3.36,1.99,5.03.11.32.5.35.75.51-.75.13-1.53.09-2.28.03.24-.13.5-.23.76-.33-.2-.59-.42-1.18-.64-1.76-.58-.08-1.17-.08-1.74,0-.2.58-.48,1.15-.6,1.75.27.13.56.2.83.34-2.06.1-4.14.02-6.2.04v-.23c.21-.03.43-.06.65-.08.14-1.74.07-3.5.05-5.24.1-.53-.52-.49-.85-.68m6.23,3.77c.5-.03,1-.03,1.5,0-.25-.63-.49-1.27-.74-1.91-.26.63-.51,1.27-.76,1.91m25.98-3.82c.83.04,1.7-.13,2.51.1-.25.11-.55.11-.77.27-.08.3-.07.6-.08.91,0,1.29,0,2.59,0,3.88.01.24-.01.51.09.74.26.11.52.2.77.34-.87.07-1.75.07-2.63,0,.28-.23.91-.18.84-.67.02-1.48,0-2.95.01-4.42-.01-.28.02-.57-.1-.84-.19-.06-.4-.09-.59-.13-.02-.05-.05-.14-.07-.19m-6.94.77c1.06-.13,2.24.28,2.78,1.22.69,1.21.49,2.96-.68,3.82-.99.73-2.44.79-3.5.18-1.55-.94-1.61-3.43-.23-4.55.45-.39,1.04-.61,1.62-.67m-.23.32c-.78.17-1.29.91-1.41,1.66-.16.88-.06,1.87.48,2.61.59.81,1.88,1,2.67.37.6-.49.79-1.31.78-2.05-.01-.78-.22-1.61-.8-2.16-.45-.43-1.12-.58-1.72-.44m16.79,0c.69-.48,1.62-.4,2.37-.09.03.43.06.86.02,1.29-.31-.44-.43-1.18-1.1-1.23-.69-.19-1.37.57-1.03,1.22.45.71,1.37.87,1.97,1.41.69.55.72,1.75,0,2.29-.78.57-1.86.51-2.7.12-.07-.52-.49-1.19-.02-1.62.14.39.22.82.49,1.15.37.45,1.07.62,1.59.36.52-.29.62-1.05.25-1.49-.54-.68-1.54-.76-2.06-1.46-.46-.57-.4-1.52.22-1.95m-32.69-.21h4.63c.05.48.11.96.02,1.44-.22-.31-.27-.7-.48-1.01-.43-.28-.99-.16-1.47-.2,0,1.31,0,2.62,0,3.93,0,.29,0,.6.08.88.26.14.55.19.81.32-.85.07-1.71.07-2.56,0,.27-.13.56-.18.82-.31.07-.25.06-.51.07-.76,0-1.35,0-2.7,0-4.05-.46.03-.96-.05-1.39.15-.31.26-.29.71-.47,1.05-.25-.44-.09-.95-.06-1.42m4.79.03c.72-.06,1.44-.03,2.16-.03v.16c-.19.04-.38.07-.56.14-.14.74-.04,1.49-.07,2.24.03.85-.06,1.7.06,2.54.18.08.37.11.56.16v.16c-.72,0-1.44.03-2.16-.04.23-.12.49-.18.71-.33.11-.78.02-1.57.05-2.36-.03-.77.06-1.55-.05-2.32-.23-.12-.47-.21-.7-.32m3.32-.18c.44.33.77.77,1.14,1.16.98,1.06,1.99,2.1,3.02,3.12,0-.98,0-1.95,0-2.93,0-.27,0-.55-.08-.81-.22-.19-.54-.22-.79-.36.68-.06,1.37-.08,2.04.02-.22.09-.44.16-.65.27-.2.53-.09,1.12-.12,1.67-.02,1.18.06,2.37-.05,3.55-1.46-1.34-2.76-2.85-4.16-4.25,0,.94,0,1.89,0,2.84,0,.3,0,.61.11.88.23.14.5.21.75.33-.68.06-1.36.06-2.04,0,.31-.17.82-.23.77-.69.09-1.6-.03-3.21.06-4.82m18.52.81c0-.28.04-.56.11-.82,1.32,1.47,2.69,2.9,4.08,4.3,0-1.07,0-2.14,0-3.22-.02-.2,0-.43-.14-.59-.24-.11-.5-.18-.74-.29.68-.07,1.37-.08,2.05.01-.22.1-.44.18-.65.29-.19.58-.09,1.2-.11,1.8-.02,1.13.05,2.27-.05,3.4-.47-.35-.84-.78-1.25-1.2-.98-1-1.94-2.03-2.92-3.04.02,1.17-.05,2.36.05,3.52,0,.36.43.33.68.41v.16c-.64,0-1.27.02-1.91-.03.22-.12.45-.2.66-.33.14-.27.12-.59.13-.89,0-1.16,0-2.32,0-3.48m9.05.77c-.1-.48-.05-.96.02-1.44,1.54,0,3.09,0,4.64,0,.04.45.1.91.03,1.36-.41-.21-.2-.88-.66-1.04-.42-.12-.87-.08-1.3-.1,0,1.35,0,2.71,0,4.06,0,.25,0,.51.08.76.26.13.55.19.82.31-.81.09-1.62.03-2.44.04v-.18c.22-.04.45-.06.66-.13.12-.3.1-.64.11-.95,0-1.3,0-2.61,0-3.92-.48.04-1.02-.07-1.45.18-.25.3-.26.72-.5,1.03m4.81-1.39c.75-.07,1.52-.07,2.27,0-.22.11-.46.19-.69.26-.1,1.05-.03,2.11-.05,3.17.01.54-.06,1.09.07,1.63.18.06.36.1.55.14v.16h-2.04v-.16c.19-.05.38-.08.56-.14.13-.57.05-1.16.07-1.74-.02-1.02.05-2.03-.05-3.05-.24-.08-.48-.14-.69-.26m2.44-.04c1.55,0,3.1-.01,4.64,0,.05.45.11.9.03,1.36-.39-.17-.21-.79-.58-1-.44-.17-.92-.11-1.38-.13.02,1.52-.02,3.05.02,4.58,0,.44.6.35.87.55-.81.1-1.63.03-2.44.05v-.18c.23-.04.46-.07.67-.15.09-.35.09-.71.09-1.06,0-1.26,0-2.53,0-3.79-.48.03-.99-.06-1.43.16-.27.29-.27.74-.54,1.05-.07-.48-.03-.96.03-1.44m4.86.04c.75-.07,1.51-.08,2.27,0-.23.1-.47.18-.7.25-.1,1.06-.05,2.12-.05,3.18.02.57.08,1.29.66,1.59.73.33,1.69.15,2.23-.44.14-.5.04-1.04.06-1.56-.03-.92.07-1.85-.06-2.76-.23-.09-.47-.16-.7-.24.71-.14,1.43-.06,2.15-.08v.15c-.21.09-.64.03-.59.37-.08,1.67.06,3.35-.07,5.02-.25-.16-.47-.36-.73-.51-.88.41-1.91.69-2.86.34-.52-.18-.81-.71-.85-1.23-.11-1.27.03-2.56-.08-3.83-.23-.08-.47-.15-.69-.26m6.22-.04c2.81-.01,5.6.01,8.41,0,.04.44.17.92-.05,1.34-.19-.32-.18-.77-.5-.98-.52-.18-1.08-.1-1.63-.13,0,.74,0,1.48,0,2.23.47-.01.95.06,1.42-.06.13-.22.23-.47.35-.7.09.54.06,1.09.06,1.64-.04,0-.14,0-.19,0-.11-.2-.08-.55-.35-.59-.43-.07-.86-.03-1.29-.04,0,.78,0,1.57,0,2.35.62.08,1.3.19,1.89-.09.42-.22.38-.79.76-1.06,0,.51-.12,1-.25,1.49-1.27,0-2.54,0-3.81,0v-.16c.19-.06.39-.09.57-.17.1-.57.05-1.16.06-1.73-.02-1.01.04-2.03-.04-3.04-.26-.07-.51-.15-.76-.24.05.46.08.92,0,1.37-.24-.3-.26-.71-.49-1.02-.43-.26-.98-.15-1.46-.19,0,1.49-.02,2.98,0,4.47-.08.52.57.47.89.66-.81.09-1.63.03-2.45.04v-.17c.23-.05.47-.07.69-.16.08-.3.08-.61.08-.92,0-1.31,0-2.61,0-3.92-.49.05-1.07-.09-1.49.22-.19.32-.25.7-.46,1-.07-.48-.04-.96.02-1.44m-104.36,13.88c.32-.6,1.01-.88,1.66-.96.73-.08,1.51-.04,2.17.29.19.05.18.26.2.41.06.44.06.9.08,1.35h-.41c-.17-.59-.36-1.31-1.01-1.56-.59-.25-1.42-.03-1.6.63-.2.59.19,1.17.69,1.47.77.52,1.73.81,2.34,1.54.73.84.56,2.31-.42,2.9-1.15.68-2.62.58-3.8.06-.26-.66-.33-1.37-.34-2.08.13-.03.4-.1.53-.14.19.65.38,1.37.92,1.83.48.41,1.29.52,1.79.09.53-.47.49-1.38-.01-1.86-.74-.74-1.85-.98-2.56-1.77-.55-.59-.6-1.52-.24-2.22m22-.84c1.22-.31,2.61-.17,3.66.54.86.58,1.34,1.59,1.38,2.59.08,1.08-.2,2.22-.96,3.03-.83.92-2.13,1.31-3.34,1.22-1.06-.06-2.15-.47-2.8-1.32-.78-1-.87-2.38-.54-3.56.34-1.22,1.37-2.18,2.6-2.49m.4.39c-.95.35-1.38,1.4-1.49,2.33-.12,1.17-.04,2.46.67,3.44.64.91,2.1,1.07,2.92.31.68-.64.9-1.63.93-2.53.02-1.02-.12-2.12-.77-2.94-.52-.65-1.48-.88-2.26-.61m5.91-.39c.18-.02.37-.05.55-.08,1.65,1.74,3.28,3.49,4.93,5.23,0-1.25.01-2.49,0-3.75-.03-.31,0-.67-.22-.93-.29-.15-.72-.08-.85-.45.9-.03,1.8-.04,2.69,0-.16.3-.54.3-.78.51-.16.35-.13.74-.16,1.12,0,1.86,0,3.71,0,5.57-.2.02-.39.05-.59.07-1.62-1.73-3.26-3.45-4.89-5.17,0,1.22-.02,2.45.02,3.67.02.3.01.62.18.88.27.23.73.12.9.49-.9.05-1.8.04-2.69,0,.12-.4.71-.25.82-.63.1-.33.08-.67.09-1.01,0-1.85,0-3.69,0-5.54m24.67-.02c.22-.04.44-.08.66-.12.78,2.04,1.56,4.09,2.33,6.14.09.22.17.45.33.63.25.2.59.27.79.55-1.12.06-2.25.05-3.38,0,.19-.36.63-.34.96-.49-.22-.71-.44-1.43-.77-2.1-.67-.17-1.39-.18-2.05,0-.31.68-.56,1.39-.7,2.12.35.13.85.06,1.01.47-.88.04-1.76.05-2.64,0,.19-.24.49-.36.72-.56.17-.21.27-.47.38-.71.79-1.97,1.58-3.95,2.38-5.92m-1.01,4.1c.6-.06,1.19-.06,1.79,0-.3-.82-.6-1.65-.9-2.48-.31.83-.59,1.66-.89,2.48m31.78-4.09c.18-.03.37-.05.55-.08,1.64,1.74,3.28,3.49,4.93,5.23,0-1.2,0-2.4,0-3.6-.03-.35,0-.74-.2-1.05-.23-.16-.53-.15-.8-.21,0-.07,0-.21,0-.28.86,0,1.73-.03,2.59.03-.15.29-.5.32-.75.48-.18.36-.15.77-.17,1.15,0,1.85,0,3.71,0,5.56-.19.02-.38.05-.58.08-1.63-1.72-3.26-3.45-4.9-5.16,0,1.18-.01,2.35.01,3.52.03.35,0,.73.19,1.04.28.2.74.1.89.48-.9.04-1.79.05-2.69,0,.16-.29.51-.31.76-.48.17-.36.15-.78.16-1.17,0-1.85,0-3.69,0-5.54m35.33.14c1.02-.46,2.23-.38,3.24.07.09.56.12,1.14.14,1.71-.1,0-.31.02-.42.02-.14-.45-.24-.93-.58-1.28-.46-.48-1.35-.54-1.81-.04-.41.45-.33,1.2.13,1.58.8.71,1.94.96,2.66,1.77.56.62.62,1.59.22,2.3-.29.49-.81.81-1.35.96-1.02.28-2.13.16-3.08-.28-.23-.66-.31-1.37-.32-2.07.18-.04.36-.08.54-.12.17.6.34,1.25.8,1.71.43.47,1.2.64,1.77.31.62-.4.68-1.34.21-1.87-.74-.83-1.95-1.06-2.68-1.91-.74-.84-.52-2.38.53-2.86m-113.33-.11c1.74-.05,3.49-.01,5.23-.02.09.59.11,1.18.11,1.77-.1.02-.3.05-.4.07-.15-.48-.23-1.12-.78-1.31-.59-.16-1.22-.07-1.83-.09v2.77c.54,0,1.08.05,1.61-.04.37-.08.3-.54.4-.82.07,0,.22,0,.28,0v2.19c-.07,0-.21,0-.28.01-.07-.25-.09-.52-.24-.74-.57-.18-1.19-.07-1.78-.09v2.9c.74.15,1.57.27,2.27-.08.55-.27.68-.91.83-1.44.13.06.28.08.42.09-.07.68-.17,1.35-.37,2.01-1.83,0-3.67.04-5.5-.02.13-.43.86-.21.87-.7.06-1.57,0-3.14.02-4.7-.01-.42.04-.85-.07-1.25-.25-.21-.67-.17-.82-.51m6.67,1.87c.04-.63.09-1.27.14-1.9,2.05,0,4.11,0,6.16,0,.06.63.11,1.26.14,1.89-.1,0-.3,0-.4,0-.14-.42-.19-.91-.54-1.23-.45-.31-1.03-.21-1.55-.24,0,1.79,0,3.58,0,5.37.01.29-.01.6.12.87.29.25.83.09.95.52-1.2.03-2.41.04-3.61,0,.18-.5,1.09-.18,1.06-.83.04-1.97,0-3.95.02-5.92-.49.02-1.02-.06-1.47.18-.42.28-.47.83-.61,1.27-.1,0-.32,0-.42.01m28.59-1.87c1.08-.05,2.15-.04,3.22,0-.13.42-.81.24-.85.71-.08.82-.02,1.64-.04,2.46,1.1,0,2.21,0,3.31,0-.02-.82.05-1.65-.04-2.46-.03-.46-.71-.29-.84-.71,1.07-.04,2.14-.04,3.21,0-.14.31-.51.32-.77.47-.11.23-.1.5-.11.75,0,1.56,0,3.12,0,4.69,0,.26,0,.54.11.77.26.16.63.16.77.47-1.07.04-2.14.04-3.21,0,.15-.41.83-.25.85-.72.08-.92.01-1.84.03-2.76h-3.31c.02.92-.05,1.85.04,2.76.01.49.71.3.85.72-1.08.04-2.16.05-3.23,0,.17-.29.52-.31.78-.47.11-.24.1-.51.1-.77,0-1.56,0-3.12,0-4.69,0-.25,0-.51-.1-.75-.26-.16-.62-.18-.78-.47m16.69.23c0-.06.03-.19.04-.26.99,0,1.99,0,2.98,0,.01.06.04.19.05.25-.24.08-.51.09-.71.26-.11.28-.09.58-.1.87,0,1.75,0,3.5,0,5.25.69.14,1.47.26,2.12-.09.49-.31.59-.93.77-1.43.13.06.27.09.42.1-.09.66-.15,1.32-.39,1.95-.29.09-.6.04-.89.05-1.46-.03-2.92.04-4.38-.03.16-.32.56-.29.81-.48.08-.2.06-.42.08-.63,0-1.6,0-3.2,0-4.8,0-.25,0-.52-.1-.76-.21-.15-.47-.17-.71-.25m6.32-.23c1.07-.05,2.15-.04,3.22,0-.16.43-.92.25-.87.81-.04,1.93,0,3.87-.01,5.8.69.13,1.45.26,2.09-.08.51-.29.57-.91.79-1.39.1,0,.31,0,.41,0-.05.69-.18,1.37-.37,2.04-1.76,0-3.51.04-5.27-.03.16-.3.53-.31.8-.47.1-.29.08-.61.09-.91,0-1.52,0-3.03,0-4.54-.01-.26,0-.52-.11-.76-.26-.16-.62-.17-.77-.47m9.94,0c1.07-.04,2.15-.04,3.22,0-.16.29-.51.31-.78.47-.16.37-.1.78-.12,1.16,0,1.11-.03,2.22.02,3.33.04.59.22,1.27.8,1.54.82.39,1.78.14,2.52-.32,0-1.65,0-3.31,0-4.97-.01-.25.01-.51-.1-.74-.25-.18-.62-.19-.78-.49,1.03-.05,2.06,0,3.09-.03.01.07.04.2.05.26-.22.06-.45.1-.66.21-.15.18-.13.43-.14.64-.01,2.05,0,4.1,0,6.15-.21.04-.42.09-.62.13-.27-.23-.51-.83-.95-.58-1.09.52-2.4.81-3.56.36-.71-.27-1.08-1.03-1.1-1.75-.04-1.43,0-2.86-.02-4.29-.02-.22,0-.46-.14-.64-.26-.14-.61-.15-.74-.46m17.84,0c1.08-.04,2.15-.04,3.23,0-.16.3-.52.31-.78.47-.13.28-.11.59-.12.89v4.41c0,.3,0,.62.11.91.26.16.63.18.79.47-1.08.05-2.16.05-3.24,0,.14-.31.51-.31.78-.47.13-.28.1-.6.12-.9v-4.43c-.02-.3.02-.63-.13-.9-.26-.15-.63-.16-.76-.47m3.67,0c1.14-.04,2.29-.03,3.43,0-.08.52-.95.2-.97.69.54,1.64,1.19,3.25,1.77,4.88.49-1.3.94-2.61,1.41-3.92.13-.36.27-.71.31-1.09-.27-.3-.84-.12-.99-.56.92-.03,1.85-.04,2.78,0-.3.36-.81.51-.99.97-.92,2.04-1.66,4.15-2.56,6.2-.22.09-.46.12-.68.17-.78-1.94-1.56-3.89-2.33-5.83-.13-.31-.22-.64-.42-.92-.25-.21-.6-.28-.75-.59m8.08,0c1.74-.05,3.48,0,5.21-.02.09.59.13,1.18.12,1.78-.1.02-.3.04-.4.06-.15-.47-.23-1.12-.78-1.31-.59-.15-1.21-.07-1.81-.09,0,.93,0,1.85,0,2.77.59-.04,1.24.12,1.8-.13.11-.27.19-.55.31-.81.26.15.15.48.19.72,0,.57.03,1.15-.1,1.71-.22-.27-.25-.65-.48-.9-.56-.14-1.14-.04-1.71-.07v2.9c.75.15,1.61.28,2.31-.11.5-.28.63-.88.79-1.39.1.02.3.05.41.07-.05.68-.16,1.36-.36,2.02-1.83-.02-3.66.04-5.48-.03.15-.31.52-.31.79-.47.08-.25.08-.51.09-.77,0-1.56,0-3.12,0-4.69,0-.25,0-.52-.09-.76-.27-.15-.63-.17-.79-.47m6.91.23c.01-.06.04-.2.05-.26,1.11,0,2.22,0,3.33,0,.64.02,1.34.07,1.87.47.58.44.7,1.27.49,1.92-.21.62-.77,1.01-1.31,1.33.5.98,1.03,1.96,1.71,2.83.17.25.49.3.76.4,0,.06-.03.19-.03.25-.77-.01-1.67.12-2.26-.48-.63-.68-.87-1.62-1.38-2.39-.21-.31-.64-.22-.96-.27.01.8-.05,1.61.04,2.4.03.45.68.32.84.7-1.03.07-2.07.01-3.1.04,0-.06-.02-.2-.03-.26.22-.07.46-.1.67-.21.16-.28.11-.62.13-.93-.02-1.65.02-3.31-.02-4.96.05-.46-.46-.5-.79-.59m2.27.21c-.01,1.07,0,2.14,0,3.21.65,0,1.47.02,1.86-.61.4-.72.38-1.81-.33-2.34-.43-.34-1.01-.3-1.53-.26m11.3-.45c1.07-.03,2.14-.04,3.21,0-.15.3-.5.31-.76.47-.13.23-.11.51-.12.76,0,1.52,0,3.03,0,4.55,0,.3,0,.61.1.9.26.16.62.18.78.48-1.07.05-2.14.04-3.21,0,.12-.32.5-.31.76-.47.16-.28.1-.61.12-.92-.03-1.68.03-3.37-.03-5.05-.01-.5-.73-.3-.85-.73m3.86,1.88c.03-.63.08-1.26.14-1.89,2.05,0,4.11,0,6.16,0,.06.63.1,1.26.14,1.9-.1,0-.31,0-.41-.01-.13-.42-.18-.9-.52-1.21-.44-.33-1.04-.22-1.55-.25.01,1.98-.02,3.96.02,5.93-.02.64.89.32,1.06.82-1.2.04-2.4.04-3.61,0,.14-.53,1.1-.18,1.05-.85.06-1.97,0-3.94.02-5.91-.53.03-1.12-.08-1.57.25-.33.32-.39.8-.52,1.21-.1,0-.3,0-.41,0m6.7-1.87c.98-.05,1.96-.02,2.94-.02.21-.04.37.06.47.23-.34.1-.69.17-1.02.28.42,1.12,1.05,2.15,1.58,3.22.48-1.09,1.14-2.11,1.45-3.27-.34-.12-.85-.03-.98-.45.92-.03,1.84-.04,2.76,0-.22.33-.67.36-.89.67-.37.5-.64,1.06-.96,1.59-.46.8-.98,1.63-1,2.57,0,.59-.07,1.2.04,1.79.29.28.83.11.99.53-1.19.04-2.38.04-3.56,0,.17-.39.65-.27.96-.48.14-.18.09-.42.11-.63,0-.8.03-1.65-.38-2.38-.54-.99-1.09-1.97-1.63-2.94-.16-.39-.69-.35-.87-.73"/><path class="cls-1" d="m92.29,54.26c-1.48-2.11-2.93-4.23-4.41-6.34-.41-.5-.22-1.19-.26-1.79.27.07.53.13.8.21,0-.32,0-.64,0-.95-.27.09-.55.18-.82.26.05-.29.12-.58.21-.86-.32,0-.64,0-.95,0,.09.28.18.56.25.85-.3-.08-.59-.16-.88-.25,0,.33,0,.65,0,.98.26-.09.54-.17.81-.25,0,.39.03.78,0,1.17,0,.38-.29.67-.49.98-1.48,2.12-2.95,4.24-4.41,6.36-.38,0-.77-.02-1.15-.02-.26-.65-.72-1.26-.69-1.99,0-.58,0-1.16,0-1.74-.33,0-.66,0-.99,0-.25-.53-.49-1.07-.72-1.6-.41-.02-.83-.03-1.24-.03,0-1.14,0-2.29,0-3.43.53,0,1.06,0,1.59-.01-.57-.7-1.44-1.21-1.68-2.13-.4-1.2-.82-2.39-1.23-3.58-.14-.41-.34-.81-.39-1.26,0,0,0,0,0,0h0c0-.39,0-.77,0-1.16.25.06.5.13.75.2,0-.3,0-.6.01-.89-.26.09-.53.17-.79.25.07-.27.14-.54.23-.8-.3,0-.6,0-.9,0,.08.27.15.54.21.81-.26-.08-.53-.17-.79-.26,0,.3,0,.59.01.89.25-.07.49-.14.74-.21,0,.39,0,.77,0,1.16-.02.22-.05.43-.12.64-.47,1.29-.93,2.58-1.37,3.88-.15.41-.26.85-.56,1.18-.4.43-.82.84-1.21,1.28.53,0,1.06,0,1.59,0,0,1.15,0,2.29,0,3.44-.4,0-.81,0-1.21,0-.24.54-.48,1.08-.73,1.61-.34,0-.69,0-1.03,0-.01.71.04,1.43-.02,2.15-.12.55-.43,1.04-.64,1.56-.41.01-.82.01-1.22.02v-2.84h-1.33c-.07-.72-.23-1.45-.65-2.05-.48-.76-1.26-1.27-2.09-1.57,0-.28,0-.55,0-.83-.27,0-.55,0-.82,0,0-.39,0-.79,0-1.18.26.06.51.13.76.2,0-.3,0-.61.01-.91-.27.09-.54.18-.81.25.07-.27.15-.55.23-.81-.31,0-.61,0-.92,0,.08.27.15.55.21.83-.27-.08-.54-.17-.81-.26,0,.3,0,.61.01.91.25-.07.5-.14.76-.21,0,.39,0,.79,0,1.18-.26,0-.53,0-.79,0,0,.28,0,.56-.01.84-.63.24-1.25.56-1.7,1.07-.67.68-.97,1.62-1.05,2.55-.45,0-.9,0-1.35,0,0,4.59-.01,9.18.01,13.77.41,0,.83.02,1.24-.05.04-3.23,0-6.46.02-9.68.55,0,1.12-.07,1.66.04.04,3.23,0,6.46.02,9.68.47,0,.94,0,1.4,0v-9.73c.56,0,1.11,0,1.67,0,0,3.25-.01,6.49.01,9.74.47,0,.94-.01,1.4-.02-.02-3.24,0-6.48,0-9.72h1.67c0,3.25,0,6.49,0,9.73,2.44,0,4.88,0,7.32,0,0-.92,0-1.85,0-2.77.49,0,.98,0,1.47,0,0,.92,0,1.85,0,2.77,2.59.01,5.17,0,7.76,0,0-2.07,0-4.15,0-6.22-.03-.82.28-1.64.78-2.29.38.66.76,1.37.73,2.15,0,2.12,0,4.24,0,6.35.4,0,.79,0,1.19,0,.01-2.48,0-4.95,0-7.43-.02-.82.27-1.65.79-2.29.39.65.75,1.37.72,2.15,0,2.52,0,5.04,0,7.56.4,0,.79,0,1.18,0,0-2.12,0-4.24,0-6.36,0-.78.35-1.52.77-2.16.42.65.77,1.38.75,2.17,0,2.12,0,4.24,0,6.36.58,0,1.16,0,1.74,0,0-3.32,0-6.64,0-9.95-.01-.45.08-.94-.23-1.32Zm-31.14.59c-.56,0-1.12,0-1.67,0,0-.56,0-1.11,0-1.66.56,0,1.12,0,1.68,0,0,.55,0,1.1,0,1.65Zm3.08,0c-.56,0-1.11,0-1.67,0,0-.56,0-1.11,0-1.67.56,0,1.12,0,1.67,0,0,.55,0,1.1,0,1.65Zm1.4,0c0-.55,0-1.1,0-1.65.56,0,1.11,0,1.67,0,0,.55,0,1.1,0,1.65-.56,0-1.12,0-1.68,0Zm7.79,6.96c-.5,0-1.01,0-1.51,0,0-.82,0-1.64,0-2.47.5,0,1.01,0,1.51,0,0,.83,0,1.65,0,2.48Zm0-3.53c-.5,0-1,0-1.5,0,0-.83,0-1.66,0-2.49.5,0,1.01,0,1.51,0,0,.83,0,1.66,0,2.49Zm0-3.43c-.51,0-1.01,0-1.51,0,0-.6-.07-1.23.13-1.81.15-.44.36-.85.6-1.24.69.86.86,1.97.78,3.04Zm1.95-8.77c.24.21.48.43.72.64-.01.85,0,1.71-.01,2.56h-1.43c0-.86,0-1.71,0-2.57.24-.21.48-.43.73-.63Zm.71,15.73c-.49,0-.98,0-1.48,0,.01-.82.01-1.64,0-2.46.49,0,.98,0,1.47,0v2.47Zm0-3.53c-.49,0-.98,0-1.47,0,0-.83,0-1.66,0-2.49.49,0,.98,0,1.47,0v2.49Zm.04-3.44c-.5,0-1,.01-1.51.01.02-.76-.12-1.55.18-2.27.14-.37.32-.73.54-1.07.8.92.84,2.18.79,3.33Zm1.32-1.8c.16-.45.39-.87.6-1.29.27.45.53.91.68,1.42.14.55.08,1.12.08,1.68-.5,0-.99,0-1.49,0,0-.6-.07-1.23.14-1.81Zm1.38,8.77c-.51,0-1.02,0-1.52,0,0-.82,0-1.65,0-2.47h1.52c0,.83,0,1.65,0,2.48Zm0-3.53c-.5,0-1.01,0-1.51,0,0-.83,0-1.66,0-2.49.51,0,1.01,0,1.52,0v2.49Zm9.2-3.63c-.48,0-.96,0-1.43,0,0-.49-.05-.99.04-1.47.15-.4.41-.76.7-1.08.25.33.51.67.65,1.07.09.49.03.99.04,1.49Z"/><path class="cls-1" d="m96.65,69.04c-.02-6.67.02-13.35-.02-20.02-.18.08-.61-.03-.57.25-.01,6.59,0,13.18,0,19.76-12.62,0-25.24,0-37.85,0,0,.19,0,.39,0,.58h141.66v-.58c-34.4,0-68.81,0-103.22,0Z"/></svg>