<?xml version="1.0" encoding="UTF-8"?><svg id="Layer_1" xmlns="http://www.w3.org/2000/svg" viewBox="0 0 246.52 123.71"><defs><style>.cls-1,.cls-2{fill:#a7a9ac;}.cls-2{fill-rule:evenodd;}</style></defs><path class="cls-1" d="m101.99,81.12h.52s.09.01.12.04c.03.03.06.06.07.09l.91,2.31c.03.08.06.17.08.25.02.08.04.17.05.25.02-.08.04-.17.06-.25.02-.08.05-.17.08-.25l.92-2.31s.04-.07.07-.09.07-.04.12-.04h.49l-1.46,3.59h-.57l-1.46-3.59Z"/><path class="cls-1" d="m108.7,84.71h-.28c-.06,0-.11,0-.15-.03-.04-.02-.06-.06-.07-.12l-.07-.33c-.09.08-.19.16-.28.23-.09.07-.18.12-.28.17-.1.05-.2.08-.32.1-.11.02-.24.04-.37.04s-.27-.02-.39-.06c-.12-.04-.23-.1-.32-.18-.09-.08-.16-.18-.21-.3-.05-.12-.08-.26-.08-.42,0-.14.04-.28.12-.41.08-.13.2-.25.38-.35.17-.1.4-.19.68-.25.28-.07.62-.1,1.03-.1v-.28c0-.28-.06-.49-.18-.64-.12-.14-.3-.22-.53-.22-.15,0-.28.02-.39.06-.1.04-.2.08-.27.13-.08.05-.14.09-.2.13s-.11.06-.16.06c-.04,0-.08-.01-.11-.03-.03-.02-.06-.05-.08-.08l-.11-.2c.2-.19.41-.33.64-.43.23-.09.48-.14.76-.14.2,0,.38.03.53.1.16.07.29.16.39.28.11.12.19.26.24.43.05.17.08.35.08.55v2.29Zm-1.64-.39c.11,0,.21-.01.3-.03.09-.02.18-.05.26-.1.08-.04.16-.09.23-.15.07-.06.15-.13.22-.2v-.74c-.29,0-.54.02-.74.06-.2.04-.37.08-.5.14-.13.06-.22.13-.28.21-.06.08-.09.17-.09.27s.02.18.05.25c.03.07.07.13.12.17.05.04.11.08.18.1.07.02.15.03.23.03Z"/><path class="cls-1" d="m112.1,81.76s-.04.05-.06.06c-.02.01-.05.02-.08.02s-.07-.01-.12-.04c-.04-.03-.09-.06-.16-.1s-.14-.07-.23-.1c-.09-.03-.2-.04-.33-.04-.17,0-.33.03-.46.09-.13.06-.25.15-.34.27-.09.12-.16.26-.21.43-.05.17-.07.36-.07.56s.02.41.07.58c.05.17.12.31.21.42.09.11.2.2.33.26.13.06.27.09.43.09s.28-.02.38-.05.18-.08.25-.12c.07-.04.12-.09.16-.12.04-.04.08-.05.13-.05.05,0,.09.02.12.06l.18.23c-.16.19-.35.33-.58.42-.23.09-.48.13-.74.13-.22,0-.43-.04-.63-.12s-.36-.2-.5-.36c-.14-.16-.25-.35-.33-.58-.08-.23-.12-.49-.12-.78,0-.27.04-.51.11-.74.07-.23.18-.42.33-.59.14-.16.32-.29.53-.38.21-.09.45-.14.72-.14.25,0,.47.04.67.12.19.08.36.2.51.35l-.17.23Z"/><path class="cls-1" d="m115.6,84.71h-.28c-.06,0-.11,0-.15-.03-.04-.02-.06-.06-.07-.12l-.07-.33c-.09.08-.19.16-.28.23-.09.07-.18.12-.28.17-.1.05-.2.08-.32.1-.11.02-.24.04-.37.04s-.27-.02-.39-.06c-.12-.04-.23-.1-.32-.18-.09-.08-.16-.18-.21-.3-.05-.12-.08-.26-.08-.42,0-.14.04-.28.12-.41.08-.13.2-.25.38-.35.17-.1.4-.19.68-.25.28-.07.62-.1,1.03-.1v-.28c0-.28-.06-.49-.18-.64-.12-.14-.3-.22-.53-.22-.15,0-.28.02-.39.06-.1.04-.2.08-.27.13-.08.05-.14.09-.2.13s-.11.06-.16.06c-.04,0-.08-.01-.11-.03-.03-.02-.06-.05-.08-.08l-.11-.2c.2-.19.41-.33.64-.43.23-.09.48-.14.76-.14.2,0,.38.03.53.1.16.07.29.16.39.28.11.12.19.26.24.43.05.17.08.35.08.55v2.29Zm-1.64-.39c.11,0,.21-.01.3-.03.09-.02.18-.05.26-.1.08-.04.16-.09.23-.15.07-.06.15-.13.22-.2v-.74c-.29,0-.54.02-.74.06-.2.04-.37.08-.5.14-.13.06-.22.13-.28.21-.06.08-.09.17-.09.27s.02.18.05.25c.03.07.07.13.12.17.05.04.11.08.18.1.07.02.15.03.23.03Z"/><path class="cls-1" d="m117.64,84.77c-.28,0-.5-.08-.65-.24-.15-.16-.23-.39-.23-.68v-2.2h-.43s-.07-.01-.1-.03c-.03-.02-.04-.06-.04-.1v-.25l.59-.07.15-1.11s.02-.06.05-.09c.03-.02.06-.03.1-.03h.32v1.24h1.03v.46h-1.03v2.15c0,.15.04.26.11.34.07.07.17.11.28.11.07,0,.12,0,.17-.03.05-.02.09-.04.13-.06.04-.02.07-.04.09-.06.02-.02.05-.03.07-.03.03,0,.06.02.09.06l.18.3c-.11.1-.24.18-.39.24-.15.06-.31.09-.47.09Z"/><path class="cls-1" d="m120.04,80c0,.06-.01.12-.04.17-.02.05-.06.1-.1.14-.04.04-.09.07-.14.1-.05.02-.11.04-.17.04s-.12-.01-.17-.04c-.05-.02-.1-.06-.14-.1s-.07-.09-.1-.14-.04-.11-.04-.17.01-.12.04-.18c.02-.06.06-.1.1-.15.04-.04.09-.07.14-.1.05-.02.11-.04.17-.04s.12.01.17.04c.05.02.1.06.14.1.04.04.07.09.1.15.02.06.04.11.04.18Zm-.14,1.13v3.59h-.63v-3.59h.63Z"/><path class="cls-1" d="m122.46,81.07c.26,0,.5.04.71.13.21.09.39.21.54.37.15.16.26.35.34.58.08.23.12.48.12.76s-.04.54-.12.76c-.08.23-.19.42-.34.58-.15.16-.33.28-.54.37s-.45.13-.71.13-.5-.04-.71-.13c-.21-.09-.39-.21-.54-.37-.15-.16-.26-.35-.34-.58-.08-.23-.12-.48-.12-.76s.04-.54.12-.76c.08-.23.19-.42.34-.58.15-.16.33-.28.54-.37.21-.09.45-.13.71-.13Zm0,3.2c.35,0,.62-.12.79-.36s.26-.57.26-.99-.09-.76-.26-1c-.17-.24-.44-.36-.79-.36-.18,0-.34.03-.47.09-.13.06-.24.15-.33.27-.09.12-.15.26-.2.43-.04.17-.07.36-.07.57s.02.4.07.57c.04.17.11.31.2.42.09.11.2.2.33.26.13.06.29.09.47.09Z"/><path class="cls-1" d="m124.95,84.71v-3.59h.38c.09,0,.15.04.17.13l.05.39c.16-.17.33-.31.52-.42.19-.11.41-.16.67-.16.2,0,.37.03.52.1.15.06.27.16.38.28.1.12.18.26.23.43.05.17.08.35.08.56v2.28h-.63v-2.28c0-.27-.06-.48-.19-.63-.12-.15-.31-.22-.57-.22-.19,0-.36.04-.52.13-.16.09-.31.21-.45.36v2.64h-.63Z"/><path class="cls-1" d="m131.09,80c0,.06-.01.12-.04.17-.02.05-.06.1-.1.14-.04.04-.09.07-.14.1-.05.02-.11.04-.17.04s-.12-.01-.17-.04c-.05-.02-.1-.06-.14-.1s-.07-.09-.1-.14-.04-.11-.04-.17.01-.12.04-.18c.02-.06.06-.1.1-.15.04-.04.09-.07.14-.1.05-.02.11-.04.17-.04s.12.01.17.04c.05.02.1.06.14.1.04.04.07.09.1.15.02.06.04.11.04.18Zm-.14,1.13v3.59h-.63v-3.59h.63Z"/><path class="cls-1" d="m134.12,81.71c-.03.05-.07.08-.13.08-.04,0-.08-.01-.12-.04-.04-.03-.1-.05-.16-.09-.06-.03-.14-.06-.23-.09-.09-.03-.2-.04-.32-.04-.11,0-.2.01-.29.04-.08.03-.16.06-.22.11-.06.05-.11.1-.14.16-.03.06-.05.13-.05.2,0,.09.03.17.08.23.05.06.12.11.21.16.09.04.19.08.3.12.11.03.23.07.34.11.12.04.23.08.34.13.11.05.21.11.3.18s.16.16.21.26c.05.1.08.23.08.37,0,.17-.03.32-.09.46-.06.14-.15.26-.26.36-.12.1-.26.18-.42.24-.17.06-.36.09-.58.09-.25,0-.48-.04-.68-.12-.2-.08-.38-.19-.52-.31l.15-.24s.04-.05.07-.07c.03-.02.06-.02.1-.02s.09.02.13.05c.05.03.1.07.17.11s.15.08.24.11c.1.03.22.05.36.05.12,0,.23-.02.32-.05.09-.03.17-.07.23-.13.06-.05.11-.12.14-.19.03-.07.04-.15.04-.23,0-.1-.03-.18-.08-.25-.05-.06-.12-.12-.21-.17-.09-.05-.19-.09-.3-.12-.11-.03-.23-.07-.34-.11-.12-.04-.23-.08-.34-.13-.11-.05-.21-.11-.3-.18-.09-.07-.16-.16-.21-.27-.05-.11-.08-.24-.08-.39,0-.14.03-.27.09-.39.06-.13.14-.24.25-.33.11-.1.24-.17.4-.23.16-.06.34-.08.54-.08.24,0,.45.04.64.11.19.07.35.18.49.31l-.14.23Z"/><path class="cls-1" d="m139.14,84.71h-.28c-.06,0-.11,0-.15-.03-.04-.02-.06-.06-.07-.12l-.07-.33c-.09.08-.19.16-.28.23-.09.07-.18.12-.28.17-.1.05-.2.08-.32.1-.11.02-.24.04-.37.04s-.27-.02-.39-.06c-.12-.04-.23-.1-.32-.18-.09-.08-.16-.18-.21-.3-.05-.12-.08-.26-.08-.42,0-.14.04-.28.12-.41.08-.13.2-.25.38-.35.17-.1.4-.19.68-.25.28-.07.62-.1,1.03-.1v-.28c0-.28-.06-.49-.18-.64-.12-.14-.3-.22-.53-.22-.15,0-.28.02-.39.06-.1.04-.2.08-.27.13-.08.05-.14.09-.2.13s-.11.06-.16.06c-.04,0-.08-.01-.11-.03-.03-.02-.06-.05-.08-.08l-.11-.2c.2-.19.41-.33.64-.43.23-.09.48-.14.76-.14.2,0,.38.03.53.1.16.07.29.16.39.28.11.12.19.26.24.43.05.17.08.35.08.55v2.29Zm-1.64-.39c.11,0,.21-.01.3-.03.09-.02.18-.05.26-.1.08-.04.16-.09.23-.15.07-.06.15-.13.22-.2v-.74c-.29,0-.54.02-.74.06-.2.04-.37.08-.5.14-.13.06-.22.13-.28.21-.06.08-.09.17-.09.27s.02.18.05.25c.03.07.07.13.12.17.05.04.11.08.18.1.07.02.15.03.23.03Z"/><path class="cls-1" d="m141.46,84.71v-5.22h.63v2.11c.15-.16.32-.29.51-.39.19-.1.4-.15.64-.15.2,0,.37.03.52.1.15.06.27.16.38.28.1.12.18.26.23.43.05.17.08.35.08.56v2.28h-.63v-2.28c0-.27-.06-.48-.19-.63-.12-.15-.31-.22-.57-.22-.19,0-.36.04-.52.13-.16.09-.31.21-.45.36v2.64h-.63Z"/><path class="cls-1" d="m145.94,81.12v2.29c0,.27.06.48.19.63.13.15.31.22.57.22.18,0,.36-.04.52-.13.16-.09.31-.21.45-.36v-2.64h.63v3.59h-.38c-.09,0-.15-.04-.17-.13l-.05-.39c-.16.17-.33.31-.52.42s-.42.16-.67.16c-.2,0-.37-.03-.52-.1-.15-.06-.28-.16-.38-.27-.1-.12-.18-.26-.23-.43-.05-.17-.08-.35-.08-.56v-2.29h.63Z"/><path class="cls-1" d="m149.33,84.71v-3.59h.38c.09,0,.15.04.17.13l.05.37c.13-.16.28-.3.44-.4.16-.1.35-.16.57-.16.24,0,.44.07.59.2.15.13.26.32.32.55.05-.13.12-.24.2-.34.08-.09.17-.17.27-.23.1-.06.21-.11.32-.13.11-.03.23-.04.35-.04.19,0,.36.03.5.09s.27.15.38.26c.1.12.18.26.24.43.05.17.08.36.08.58v2.28h-.63v-2.28c0-.28-.06-.49-.18-.64-.12-.15-.3-.22-.53-.22-.1,0-.2.02-.3.05-.09.04-.18.09-.25.16-.07.07-.13.16-.17.27-.04.11-.06.23-.06.37v2.28h-.63v-2.28c0-.29-.06-.5-.17-.64-.12-.14-.28-.21-.51-.21-.16,0-.3.04-.43.13-.13.08-.26.2-.37.34v2.67h-.63Z"/><path class="cls-1" d="m157.78,84.71h-.28c-.06,0-.11,0-.15-.03-.04-.02-.06-.06-.07-.12l-.07-.33c-.09.08-.19.16-.28.23-.09.07-.18.12-.28.17-.1.05-.2.08-.32.1-.11.02-.24.04-.37.04s-.27-.02-.39-.06c-.12-.04-.23-.1-.32-.18-.09-.08-.16-.18-.21-.3-.05-.12-.08-.26-.08-.42,0-.14.04-.28.12-.41.08-.13.2-.25.38-.35.17-.1.4-.19.68-.25.28-.07.62-.1,1.03-.1v-.28c0-.28-.06-.49-.18-.64-.12-.14-.3-.22-.53-.22-.15,0-.28.02-.39.06-.1.04-.2.08-.27.13-.08.05-.14.09-.2.13s-.11.06-.16.06c-.04,0-.08-.01-.11-.03-.03-.02-.06-.05-.08-.08l-.11-.2c.2-.19.41-.33.64-.43.23-.09.48-.14.76-.14.2,0,.38.03.53.1.16.07.29.16.39.28.11.12.19.26.24.43.05.17.08.35.08.55v2.29Zm-1.64-.39c.11,0,.21-.01.3-.03.09-.02.18-.05.26-.1.08-.04.16-.09.23-.15.07-.06.15-.13.22-.2v-.74c-.29,0-.54.02-.74.06-.2.04-.37.08-.5.14-.13.06-.22.13-.28.21-.06.08-.09.17-.09.27s.02.18.05.25c.03.07.07.13.12.17.05.04.11.08.18.1.07.02.15.03.23.03Z"/><path class="cls-1" d="m158.74,84.71v-3.59h.38c.09,0,.15.04.17.13l.05.39c.16-.17.33-.31.52-.42.19-.11.41-.16.67-.16.2,0,.37.03.52.1.15.06.27.16.38.28.1.12.18.26.23.43.05.17.08.35.08.56v2.28h-.63v-2.28c0-.27-.06-.48-.19-.63-.12-.15-.31-.22-.57-.22-.19,0-.36.04-.52.13-.16.09-.31.21-.45.36v2.64h-.63Z"/><path class="cls-1" d="m164.04,84.71v-3.59h.36c.07,0,.12.01.14.04.03.03.04.07.05.13l.04.56c.12-.25.27-.45.46-.59.18-.14.39-.21.64-.21.1,0,.19.01.27.03.08.02.15.05.22.09l-.08.47c-.02.06-.05.09-.11.09-.03,0-.08-.01-.15-.03-.07-.02-.16-.03-.29-.03-.22,0-.4.06-.55.19s-.27.31-.37.56v2.28h-.63Z"/><path class="cls-1" d="m167.74,80c0,.06-.01.12-.04.17-.02.05-.06.1-.1.14-.04.04-.09.07-.14.1-.05.02-.11.04-.17.04s-.12-.01-.17-.04c-.05-.02-.1-.06-.14-.1s-.07-.09-.1-.14-.04-.11-.04-.17.01-.12.04-.18c.02-.06.06-.1.1-.15.04-.04.09-.07.14-.1.05-.02.11-.04.17-.04s.12.01.17.04c.05.02.1.06.14.1.04.04.07.09.1.15.02.06.04.11.04.18Zm-.14,1.13v3.59h-.63v-3.59h.63Z"/><path class="cls-1" d="m169.92,81.06c.16,0,.3.02.44.05.14.03.26.08.37.15h.97v.23c0,.08-.05.13-.15.15l-.41.06c.08.15.12.32.12.51,0,.17-.03.33-.1.48-.07.14-.16.26-.28.37-.12.1-.26.18-.42.23-.16.05-.34.08-.54.08-.17,0-.33-.02-.47-.06-.08.05-.13.1-.17.16-.04.06-.06.11-.06.16,0,.09.03.15.1.2.07.05.16.08.27.1s.24.03.39.03h.44c.15,0,.3.01.44.04s.27.07.39.13c.11.06.2.14.27.25.07.11.1.24.1.41,0,.16-.04.31-.11.45-.08.15-.19.28-.33.39-.14.11-.32.2-.53.27-.21.07-.44.1-.7.1s-.49-.03-.69-.08c-.2-.05-.36-.12-.49-.21-.13-.09-.23-.19-.29-.3-.06-.11-.1-.23-.1-.36,0-.18.06-.33.17-.45.11-.12.27-.22.46-.3-.1-.05-.18-.11-.24-.19s-.09-.18-.09-.32c0-.05,0-.11.03-.16.02-.06.05-.11.09-.16s.09-.11.14-.16c.06-.05.12-.09.2-.13-.18-.1-.32-.23-.42-.39-.1-.16-.15-.36-.15-.58,0-.17.03-.33.1-.48.07-.14.16-.26.28-.36.12-.1.26-.18.43-.23.17-.05.35-.08.55-.08Zm1.12,3.83c0-.09-.02-.16-.07-.22-.05-.06-.12-.1-.2-.13-.09-.03-.18-.05-.29-.07-.11-.01-.23-.02-.35-.02h-.38c-.13,0-.25-.02-.36-.05-.13.06-.24.14-.33.23-.08.09-.13.2-.13.33,0,.08.02.16.06.23.04.07.1.13.19.18.08.05.19.09.32.12.13.03.28.04.46.04s.32-.02.46-.05c.13-.03.25-.08.34-.13.09-.06.16-.13.21-.21.05-.08.07-.17.07-.26Zm-1.12-1.93c.13,0,.24-.02.34-.05.1-.04.18-.08.25-.15.07-.06.12-.14.15-.23.03-.09.05-.19.05-.29,0-.22-.07-.39-.2-.52-.13-.13-.33-.19-.58-.19s-.45.06-.58.19c-.13.13-.2.3-.2.52,0,.11.02.2.05.29.03.09.08.16.15.23.07.06.15.11.24.15s.21.05.33.05Z"/><path class="cls-1" d="m172.33,84.71v-5.22h.63v2.11c.15-.16.32-.29.51-.39.19-.1.4-.15.64-.15.2,0,.37.03.52.1.15.06.27.16.38.28.1.12.18.26.23.43.05.17.08.35.08.56v2.28h-.63v-2.28c0-.27-.06-.48-.19-.63-.12-.15-.31-.22-.57-.22-.19,0-.36.04-.52.13-.16.09-.31.21-.45.36v2.64h-.63Z"/><path class="cls-1" d="m177.35,84.77c-.28,0-.5-.08-.65-.24-.15-.16-.23-.39-.23-.68v-2.2h-.43s-.07-.01-.1-.03c-.03-.02-.04-.06-.04-.1v-.25l.59-.07.15-1.11s.02-.06.05-.09c.03-.02.06-.03.1-.03h.32v1.24h1.03v.46h-1.03v2.15c0,.15.04.26.11.34.07.07.17.11.28.11.07,0,.12,0,.17-.03.05-.02.09-.04.13-.06.04-.02.07-.04.09-.06.02-.02.05-.03.07-.03.03,0,.06.02.09.06l.18.3c-.11.1-.24.18-.39.24-.15.06-.31.09-.47.09Z"/><path class="cls-1" d="m77.46,48.06l-6.34,18.24-6.52-18.24h-6.15l10.06,25.79h5.27l9.76-25.79h-6.08Z"/><path class="cls-1" d="m121.67,73.85h6.08l-10.43-25.79h-5.27l-10.13,25.79h5.93l1.77-4.86h10.24l1.81,4.86Zm-6.93-18.97l3.39,9.25h-6.78l3.39-9.25Z"/><path class="cls-1" d="m146.32,48.06v9.95h-9.73v-9.95h-5.56v25.79h5.56v-10.65h9.73v10.65h5.56v-25.79h-5.56Z"/><path class="cls-1" d="m172,73.85h6.23l-5.71-9.73c2.87-1.4,4.72-4.13,4.72-7.52,0-4.97-3.87-8.55-9.03-8.55h-10.39v25.79h5.56v-8.77h3.57l5.05,8.77Zm-8.62-20.63h4.46c2.36,0,3.72,1.44,3.72,3.35s-1.36,3.35-3.72,3.35h-4.46v-6.71Z"/><path class="cls-2" d="m96.26,75.95c-2.55,3.79-7.69,4.78-11.48,2.23-.26-.18-.51-.37-.74-.57,2.18,1.05,4.86.37,6.26-1.7.49-.73.77-1.55.83-2.37-.92-.02-1.83-.3-2.65-.85-1.54-1.04-2.31-2.79-2.17-4.51.07-.82.34-1.64.83-2.38,1.51-2.24,4.52-2.85,6.78-1.41.04.02.07.05.11.07.04.02.07.05.1.07,3.7,2.58,4.65,7.66,2.12,11.41Zm-5.4-14.12c-2.74,0-4.96-2.22-4.96-4.96s2.22-4.96,4.96-4.96,4.96,2.22,4.96,4.96-2.22,4.96-4.96,4.96Z"/></svg>