<svg xmlns="http://www.w3.org/2000/svg" viewBox="0 0 39.56 39.56"><defs><style>.cls-1{fill:none;stroke:#fff;stroke-miterlimit:10;stroke-width:1.5px;}.cls-2{fill-rule:evenodd;opacity:0.12;}.cls-3{fill:#fff;}</style></defs><g id="Capa_2" data-name="Capa 2"><g id="Layer_1" data-name="Layer 1"><circle class="cls-1" cx="19.78" cy="19.78" r="19.03"/><path id="The_Sharpness" data-name="The Sharpness" class="cls-2" d="M17.89,17l4.33,2.89.61-.32Z"/><g id="Lozenge"><path class="cls-3" d="M28.73,16.13A4,4,0,0,0,28,14.31a2.65,2.65,0,0,0-1.83-.77c-2.56-.18-6.39-.18-6.39-.18h0s-3.84,0-6.39.18a2.65,2.65,0,0,0-1.84.77,4,4,0,0,0-.72,1.82,28,28,0,0,0-.18,2.95v1.39a28.1,28.1,0,0,0,.18,3,4,4,0,0,0,.72,1.81,3.06,3.06,0,0,0,2,.78c1.46.14,6.21.19,6.21.19s3.84,0,6.4-.2A2.6,2.6,0,0,0,28,25.24a4,4,0,0,0,.72-1.81,26.64,26.64,0,0,0,.19-3V19.08A26.58,26.58,0,0,0,28.73,16.13Zm-10.83,6V17l4.94,2.57Z"/></g></g></g></svg>